<?xml version="1.0" encoding="UTF-8" standalone="no"?>
<svg
   id="svg10864"
   viewBox="0 0 19906.389 26344.536"
   version="1.1"
   xml:space="preserve"
   width="auto"
   height="auto"
   xmlns:xlink="http://www.w3.org/1999/xlink"
   xmlns="http://www.w3.org/2000/svg"
   xmlns:svg="http://www.w3.org/2000/svg"
   xmlns:rdf="http://www.w3.org/1999/02/22-rdf-syntax-ns#"
   xmlns:cc="http://creativecommons.org/ns#"
   xmlns:dc="http://purl.org/dc/elements/1.1/"><defs
     id="defs10866"><linearGradient
       id="linearGradient40237"
       x1="-245.49001"
       gradientUnits="userSpaceOnUse"
       y1="432.28"
       gradientTransform="matrix(1,0,0,0.78415,-2.8281,112.43)"
       x2="-214.8"
       y2="432.28"><stop
         id="stop40233"
         stop-color="#d3d7cf"
         offset="0" /><stop
         id="stop40239"
         stop-color="#eeeeec"
         offset=".11792" /><stop
         id="stop40235"
         stop-color="#555753"
         offset="1" /></linearGradient><filter
       id="filter5598"
       color-interpolation-filters="sRGB"
       x="-0.080373065"
       y="-0.040028598"
       width="1.1607461"
       height="1.0800572"><feGaussianBlur
         id="feGaussianBlur5600"
         stdDeviation="0.066778906" /></filter><linearGradient
       id="linearGradient5209"><stop
         id="stop5211"
         stop-color="#1cd000"
         offset="0" /><stop
         id="stop5213"
         offset="1" /></linearGradient><filter
       id="filter5308"
       color-interpolation-filters="sRGB"
       x="-0.09956148"
       y="-0.039212752"
       width="1.199123"
       height="1.0784255"><feGaussianBlur
         id="feGaussianBlur5310"
         stdDeviation="1.1796078" /></filter><linearGradient
       id="linearGradient3833-2"><stop
         id="stop3835-3"
         stop-color="#fff"
         offset="0" /><stop
         id="stop3837-8"
         stop-color="#fff"
         stop-opacity="0"
         offset="1" /></linearGradient><linearGradient
       id="linearGradient3675-1"><stop
         id="stop3677-5"
         stop-color="#666"
         offset="0" /><stop
         id="stop3683-6"
         stop-color="#e6e6e6"
         offset=".25016" /><stop
         id="stop3685-7"
         stop-color="#808080"
         offset=".51293" /><stop
         id="stop3679-5"
         stop-color="#474747"
         offset="1" /></linearGradient><radialGradient
       id="radialGradient8082"
       xlink:href="#linearGradient5209"
       gradientUnits="userSpaceOnUse"
       cy="55.617001"
       cx="29.606001"
       gradientTransform="matrix(-0.0013077,0.21495,-0.046464,-3.1646e-4,-104.73,16.165)"
       r="42" /><radialGradient
       id="radialGradient8084"
       xlink:href="#linearGradient5209"
       gradientUnits="userSpaceOnUse"
       cy="406.26999"
       cx="287.51001"
       gradientTransform="matrix(3.5927,-0.17543,0.84188,19.302,-1480.3,-7767.7)"
       r="0.47578001" /><linearGradient
       id="linearGradient8086"
       y2="404.51999"
       gradientUnits="userSpaceOnUse"
       x2="287.01001"
       gradientTransform="matrix(1.9497,0,0,2.0629,-665.91,-814.27)"
       y1="407.54999"
       x1="287.01999"><stop
         id="stop5342"
         offset="0" /><stop
         id="stop5344"
         stop-color="#98fc66"
         stop-opacity="0"
         offset="1" /></linearGradient><linearGradient
       id="linearGradient8088"
       y2="63.152"
       gradientUnits="userSpaceOnUse"
       x2="45.789001"
       gradientTransform="matrix(-0.046382,0,0,0.12342,-104.06,16.71)"
       y1="63"
       x1="6"><stop
         id="stop5334"
         stop-color="#00410b"
         offset="0" /><stop
         id="stop5336"
         stop-color="#003255"
         stop-opacity="0"
         offset="1" /></linearGradient><linearGradient
       id="linearGradient8090"
       y2="408.67001"
       gradientUnits="userSpaceOnUse"
       x2="288.63"
       gradientTransform="matrix(1.9497,0,0,1.8709,-667.14,-743.01)"
       y1="410.10999"
       x1="286.82001"><stop
         id="stop5370"
         stop-color="#c9c9c9"
         offset="0" /><stop
         id="stop5372"
         stop-color="#c9c9c9"
         stop-opacity="0"
         offset="1" /></linearGradient><linearGradient
       id="linearGradient8092"
       y2="120.02"
       xlink:href="#linearGradient3833-2"
       gradientUnits="userSpaceOnUse"
       x2="26"
       gradientTransform="matrix(0.046382,0,0,0.085175,-108.56,19.77)"
       y1="6"
       x1="26" /><linearGradient
       id="linearGradient8094"
       y2="72.022003"
       xlink:href="#linearGradient3833-2"
       gradientUnits="userSpaceOnUse"
       x2="26"
       gradientTransform="matrix(0.026504,0,0,0.085175,-106.11,19.77)"
       y1="6"
       x1="26" /><linearGradient
       id="linearGradient8096"
       y2="88"
       xlink:href="#linearGradient3675-1"
       gradientUnits="userSpaceOnUse"
       x2="-16"
       gradientTransform="matrix(0,0.085175,0.046382,0,-108.47,27.947)"
       y1="8"
       x1="-16" /><linearGradient
       id="linearGradient8098"
       y2="6.0500002"
       gradientUnits="userSpaceOnUse"
       x2="64"
       gradientTransform="matrix(0.046382,0,0,0.085175,-108.47,19.77)"
       y1="6.0500002"
       x1="32"><stop
         id="stop3790-5"
         stop-color="#d9d9d9"
         offset="0" /><stop
         id="stop3792-9"
         stop-color="#c6c6c6"
         offset=".25016" /><stop
         id="stop3796-3"
         stop-color="#696969"
         offset="1" /></linearGradient><linearGradient
       id="linearGradient8100"
       y2="88"
       xlink:href="#linearGradient3675-1"
       gradientUnits="userSpaceOnUse"
       x2="-16"
       gradientTransform="matrix(0,-0.085175,0.046382,0,-108.47,19.77)"
       y1="8"
       x1="-16" /><radialGradient
       id="radialGradient8102"
       xlink:href="#linearGradient3833-2"
       gradientUnits="userSpaceOnUse"
       cy="90.171997"
       cx="48"
       gradientTransform="matrix(0.053678,0,0,0.084827,-108.81,19.792)"
       r="42" /><linearGradient
       id="linearGradient8104"
       y2="63.893002"
       xlink:href="#linearGradient3833-2"
       gradientUnits="userSpaceOnUse"
       x2="36.356998"
       gradientTransform="matrix(0.046382,0,0,0.085175,-108.46,19.776)"
       y1="6"
       x1="36.356998" /><linearGradient
       id="linearGradient8106"
       y2="72.022003"
       xlink:href="#linearGradient3833-2"
       gradientUnits="userSpaceOnUse"
       x2="26"
       gradientTransform="matrix(0.011043,0,0,-0.085175,-106.28,27.947)"
       y1="6"
       x1="26" /></defs><g
     id="g8048"
     transform="matrix(6.8597258,0,0,7.3533483,767.29584,-106.21042)"><path
       id="path5575"
       opacity="0.61728"
       filter="url(#filter5598)"
       d="m 286.96,411.88 c -0.0334,-0.0181 -0.0671,-0.0783 -0.0839,-0.14976 -0.0122,-0.0519 -0.0139,-0.26373 -0.0139,-1.7424 3e-5,-1.8298 -0.002,-1.7599 0.0498,-1.8481 0.0389,-0.0663 0.0434,-0.0673 0.32248,-0.0673 h 0.24613 v -0.0586 c 0,-0.0605 0.0114,-0.10434 0.0301,-0.11628 0.006,-0.004 0.16514,-0.007 0.35378,-0.007 l 0.34298,-1.4e-4 0.0142,0.0202 c 0.01,0.0141 0.0142,0.0416 0.0142,0.0906 v 0.0704 l 0.25861,0.003 0.25861,0.003 0.0243,0.0228 c 0.0302,0.0283 0.0491,0.064 0.065,0.12284 0.0192,0.0711 0.0181,3.4542 -0.001,3.5257 -0.0154,0.0573 -0.0547,0.11779 -0.0871,0.13422 -0.0174,0.009 -0.21692,0.0113 -0.8959,0.0111 -0.75212,-2e-4 -0.87696,-0.002 -0.89824,-0.0136 z"
       transform="matrix(1.9497,0,0,1.8709,-667.14,-743.01)" /><path
       id="path5577"
       d="m -108.07,21.146 v 5.4304 h 3.7105 V 21.146 Z"
       fill="url(#radialGradient8082)"
       style="fill:url(#radialGradient8082)" /><path
       id="path5579"
       d="m -106.29,21.146 v 5.4304 h 1.8552 V 21.146 Z"
       fill="url(#radialGradient8084)"
       style="fill:url(#radialGradient8084)" /><path
       id="path5581"
       opacity="0.89712"
       d="m -108.09,21.116 v 5.4303 h 3.7105 V 21.116 Z"
       fill="url(#linearGradient8086)"
       style="fill:url(#linearGradient8086)" /><path
       id="path5583"
       opacity="0.6"
       d="m -108.11,26.356 v 0.24683 h 3.7105 V 26.356 Z"
       fill="#008015" /><path
       id="path5585"
       d="m -106.29,21.153 v 5.4303 h 1.8553 V 21.153 Z"
       fill="url(#linearGradient8088)"
       style="fill:url(#linearGradient8088)" /><path
       id="path5587"
       opacity="0.4"
       d="m -108.11,21.172 v 0.24683 h 3.7105 V 21.172 Z"
       fill="#00d446" /><path
       id="path5589"
       opacity="0.3"
       d="m -108.11,21.172 v 5.4304 h 0.0928 V 21.172 Z m 3.6178,0 v 5.4304 h 0.0928 V 21.172 Z"
       fill="#00d41d" /><path
       id="path5591"
       opacity="0.35802"
       d="m -108.06,26.33 v 0.24683 h 3.7105 V 26.33 Z"
       fill="#98fc66" /><path
       id="path5593"
       opacity="0.36626"
       d="m -108.09,21.146 v 0.24683 h 3.7105 V 21.146 Z"
       fill="#ccff99" /><path
       id="path5595"
       opacity="0.79012"
       d="m -108.07,21.127 v 5.4303 h 0.0928 V 21.127 Z m 3.6178,0 v 5.4303 h 0.0928 V 21.127 Z"
       fill="#7ce800" /><path
       id="path5597"
       opacity="0.28531"
       d="m 142.88,-97.775 v 5.501 h 47.725 v -5.501 z m 0,22.004 v 5.501 h 47.725 v -5.501 z m 0,22.004 v 5.501 h 47.725 v -5.501 z m 0,22.004 v 5.501 h 47.725 v -5.501 z m 0,22.004 v 5.501 h 47.725 v -5.501 z m 0,22.004 v 5.501 h 47.725 v -5.501 z m 0,22.004 v 5.501 h 47.725 v -5.501 z"
       transform="matrix(0.032271,0,0,0.030967,-110.79,24.47)"
       filter="url(#filter5308)"
       stroke="#000000"
       stroke-width="0.7" /><path
       id="path5599"
       opacity="0.29744"
       d="m 112.99,-37.264 v 33.006 h 17.954 L 112.99,39.75 V 6.744 H 95.036 Z"
       transform="matrix(0.032271,0,0,0.030967,-110.79,24.47)"
       filter="url(#filter5308)"
       stroke="#000000" /><path
       id="path5601"
       opacity="0.3251"
       stroke-linejoin="round"
       d="m -108.16,21.054 h 3.8866 v 5.5876 h -3.8866 z"
       fill-rule="evenodd"
       stroke="#8f8f8f"
       stroke-linecap="round"
       stroke-width="0.0063225"
       fill="url(#linearGradient8090)"
       style="fill:url(#linearGradient8090)" /><path
       id="path5603"
       opacity="0.4856"
       d="m -107.82,20.281 h 0.97401 v 7.1547 H -107.82 Z"
       fill="url(#linearGradient8092)"
       style="fill:url(#linearGradient8092)" /><path
       id="path5605"
       opacity="0.56379"
       d="m -105.69,20.281 h 0.55658 v 7.1547 H -105.69 Z"
       fill="url(#linearGradient8094)"
       style="fill:url(#linearGradient8094)" /><path
       id="path5607"
       d="m -107.91,27.436 c -0.15422,0 -0.27828,-0.22793 -0.27828,-0.51105 v -0.34071 h 3.896 v 0.34071 c 0,0.28312 -0.1242,0.51105 -0.27828,0.51105 h -3.3395 z"
       fill="url(#linearGradient8096)"
       style="fill:url(#linearGradient8096)" /><path
       id="path5609"
       opacity="0.29"
       d="m -108.19,26.584 h 3.896 v 0.17035 h -3.896 z"
       fill="#ffffff" /><path
       id="path5611"
       fill="url(#linearGradient8098)"
       d="m -106.89,19.941 h 1.2987 c 0.0514,0 0.0928,0.076 0.0928,0.17035 v 0.34922 c 0,0.0944 -0.0414,0.17035 -0.0928,0.17035 h -1.2987 c -0.0514,0 -0.0928,-0.076 -0.0928,-0.17035 v -0.34922 c 0,-0.0944 0.0414,-0.17035 0.0928,-0.17035 z"
       style="fill:url(#linearGradient8098)" /><path
       id="path5613"
       d="m -107.91,20.281 c -0.15422,0 -0.27828,0.22793 -0.27828,0.51105 v 0.34071 h 3.896 v -0.34071 c 0,-0.28312 -0.1242,-0.51105 -0.27828,-0.51105 h -3.3395 z"
       fill="url(#linearGradient8100)"
       style="fill:url(#linearGradient8100)" /><path
       id="path5615"
       opacity="0.5"
       d="m -106.89,19.941 c -0.0515,0 -0.0928,0.076 -0.0928,0.17025 v 0.0851 c 0,-0.0943 0.0413,-0.17044 0.0928,-0.17044 h 1.2987 c 0.0515,0 0.0928,0.076 0.0928,0.17044 v -0.0851 c 0,-0.0943 -0.0413,-0.17025 -0.0928,-0.17025 z"
       fill="#ffffff" /><path
       id="path5617"
       opacity="0.2"
       d="m -106.99,20.196 h 1.4842 v 0.0852 h -1.4842 z" /><path
       id="path5619"
       opacity="0.1"
       d="m -108.19,20.963 h 3.896 v 0.17035 h -3.896 z" /><path
       id="path5621"
       opacity="0.1"
       d="m -108.1,21.133 v 0.17025 h 3.7105 V 21.133 Z" /><path
       id="path5623"
       opacity="0.97026"
       stroke-linejoin="round"
       d="m -108.19,21.108 h 3.8866 v 5.5876 h -3.8866 z"
       stroke="#8f8f8f"
       stroke-linecap="round"
       stroke-width="0.0094838"
       fill="none" /><path
       id="path5625"
       opacity="0.4"
       d="m -108.1,21.133 h 0.0928 v 1.7035 H -108.1 Z"
       fill="#ffffff" /><path
       id="path5627"
       opacity="0.3"
       d="m -104.48,21.133 h 0.0928 v 1.7035 h -0.0928 z"
       fill="#ffffff" /><path
       id="path5629"
       opacity="0.2"
       d="m -107.99,20.316 c -0.014,0.008 -0.0277,0.0174 -0.0406,0.0293 -0.0258,0.0238 -0.0492,0.0567 -0.0696,0.0932 -0.0102,0.0182 -0.019,0.0376 -0.0275,0.0585 -0.009,0.0209 -0.0165,0.0433 -0.0232,0.0666 -0.007,0.0226 -0.0128,0.0447 -0.0174,0.0692 -4.8e-4,0.003 -9.9e-4,0.005 -0.001,0.008 -0.004,0.0237 -0.006,0.0494 -0.009,0.0745 -0.002,0.0271 -0.004,0.054 -0.004,0.0825 v 0.3407 h 0.0464 v -0.42588 c 0,-0.031 0.002,-0.0614 0.006,-0.0905 0.001,-0.009 0.003,-0.0175 0.004,-0.0266 0.001,-0.008 0.001,-0.0161 0.003,-0.024 3.6e-4,-0.002 0.001,-0.003 0.001,-0.005 0.004,-0.0178 0.008,-0.0366 0.013,-0.0532 0.003,-0.009 0.006,-0.0178 0.009,-0.0266 0.001,-0.003 0.002,-0.007 0.003,-0.0106 0.004,-0.012 0.01,-0.0235 0.0145,-0.0346 0.007,-0.0158 0.0149,-0.0315 0.0232,-0.0453 0.005,-0.008 0.01,-0.0144 0.0145,-0.0213 0.005,-0.007 0.0104,-0.0148 0.0159,-0.0213 0.001,-0.002 0.003,-0.004 0.004,-0.005 3.3e-4,-4e-4 0.001,3.5e-4 0.001,0 0.0108,-0.0118 0.0215,-0.0234 0.0333,-0.0319 z m 3.5105,0 c 0.0119,0.009 0.0226,0.0201 0.0333,0.0319 3.4e-4,3.5e-4 0.001,-4e-4 0.001,0 0.005,0.006 0.01,0.0124 0.0145,0.0186 0.007,0.009 0.0139,0.0186 0.0203,0.0293 5.3e-4,8.6e-4 9.3e-4,0.002 10e-4,0.003 0.008,0.013 0.0151,0.0277 0.0217,0.0426 0.005,0.0111 0.0101,0.0226 0.0145,0.0346 0.003,0.008 0.006,0.0157 0.009,0.0239 0.002,0.007 0.004,0.0143 0.006,0.0213 0.004,0.0139 0.007,0.0304 0.0102,0.0452 3.7e-4,0.002 0.001,0.003 0.001,0.005 0.003,0.0167 0.005,0.0329 0.007,0.0506 0.003,0.0291 0.006,0.0595 0.006,0.0905 v 0.42588 h 0.0464 v -0.3407 c 0,-0.0285 -0.002,-0.0554 -0.004,-0.0825 -0.002,-0.0252 -0.005,-0.0508 -0.009,-0.0745 -4.6e-4,-0.003 -9.6e-4,-0.005 -10e-4,-0.008 -0.005,-0.0245 -0.0109,-0.0466 -0.0174,-0.0692 -0.007,-0.0233 -0.0146,-0.0456 -0.0232,-0.0666 -0.009,-0.0209 -0.0173,-0.0403 -0.0275,-0.0585 -0.0204,-0.0365 -0.0437,-0.0694 -0.0696,-0.0932 -0.0129,-0.0119 -0.0266,-0.021 -0.0406,-0.0293 z m -3.7033,6.2737 v 0.34071 c 0,0.28312 0.12412,0.51105 0.27829,0.51105 h 3.3395 c 0.15417,0 0.27829,-0.22793 0.27829,-0.51105 V 26.5897 h -0.0464 v 0.25555 c 0,0.23694 -0.10289,0.42588 -0.23191,0.42588 h -3.3396 c -0.12903,0 -0.23191,-0.18894 -0.23191,-0.42588 V 26.5897 h -0.0464 z"
       fill="url(#radialGradient8102)"
       style="fill:url(#radialGradient8102)" /><path
       id="path5631"
       opacity="0.2"
       d="m -107.9,20.287 c -0.15417,0 -0.27829,0.22793 -0.27829,0.51105 v 0.3407 h 0.0464 V 20.8832 c 0,-0.23694 0.10288,-0.42587 0.23191,-0.42587 h 3.3396 c 0.12902,0 0.23191,0.18893 0.23191,0.42587 v 0.25555 h 0.0464 v -0.3407 c 0,-0.28312 -0.12412,-0.51105 -0.27829,-0.51105 h -3.3395 z m -0.27829,6.303 v 0.34071 c 0,0.0285 0.002,0.0554 0.004,0.0825 0.002,0.0252 0.004,0.0508 0.009,0.0745 4.5e-4,0.003 9.6e-4,0.005 0.001,0.008 0.005,0.0245 0.0109,0.0466 0.0174,0.0692 0.007,0.0233 0.0146,0.0456 0.0232,0.0665 0.009,0.0209 0.0173,0.0403 0.0275,0.0586 0.0204,0.0365 0.0437,0.0694 0.0696,0.0932 0.0129,0.0119 0.0266,0.021 0.0406,0.0293 -0.0119,-0.009 -0.0226,-0.0201 -0.0333,-0.0319 -3.4e-4,-3.6e-4 -0.001,4e-4 -0.001,0 -10e-4,-0.002 -0.003,-0.004 -0.004,-0.005 -0.006,-0.007 -0.0107,-0.0139 -0.0159,-0.0213 -0.005,-0.007 -0.01,-0.0137 -0.0145,-0.0213 -0.008,-0.0138 -0.0161,-0.0294 -0.0232,-0.0453 -0.005,-0.0111 -0.0101,-0.0226 -0.0145,-0.0346 -0.001,-0.003 -0.002,-0.007 -0.003,-0.0106 -0.003,-0.009 -0.006,-0.0174 -0.009,-0.0266 -0.005,-0.0166 -0.01,-0.0354 -0.013,-0.0532 -3.8e-4,-0.002 -0.001,-0.003 -0.001,-0.005 -10e-4,-0.008 -0.002,-0.0159 -0.003,-0.024 -10e-4,-0.009 -0.003,-0.0173 -0.004,-0.0266 -0.003,-0.0291 -0.006,-0.0595 -0.006,-0.0905 v -0.42588 h -0.0464 z m 3.8497,0 v 0.42588 c 0,0.031 -0.002,0.0614 -0.006,0.0905 -0.002,0.0176 -0.004,0.0339 -0.007,0.0506 -3.7e-4,0.002 -0.001,0.003 -0.001,0.005 -0.003,0.0148 -0.006,0.0313 -0.0102,0.0452 -0.002,0.007 -0.004,0.0145 -0.006,0.0213 -0.003,0.008 -0.006,0.016 -0.009,0.024 -0.004,0.012 -0.01,0.0235 -0.0145,0.0346 -0.007,0.0149 -0.0141,0.0296 -0.0217,0.0426 -5.2e-4,8.7e-4 -9.3e-4,0.002 -0.001,0.003 -0.006,0.0107 -0.0132,0.02 -0.0203,0.0293 -0.005,0.006 -0.009,0.0131 -0.0145,0.0186 -3.3e-4,4e-4 -0.001,-3.6e-4 -0.001,0 -0.0108,0.0118 -0.0215,0.0234 -0.0333,0.0319 0.014,-0.008 0.0277,-0.0174 0.0406,-0.0293 0.0258,-0.0238 0.0492,-0.0567 0.0696,-0.0932 0.0102,-0.0182 0.019,-0.0376 0.0275,-0.0586 0.009,-0.0209 0.0165,-0.0433 0.0232,-0.0665 0.007,-0.0226 0.0128,-0.0447 0.0174,-0.0692 4.8e-4,-0.003 9.9e-4,-0.005 10e-4,-0.008 0.004,-0.0237 0.006,-0.0494 0.009,-0.0745 0.002,-0.0271 0.004,-0.054 0.004,-0.0825 v -0.34071 h -0.0464 z"
       fill="url(#linearGradient8104)"
       style="fill:url(#linearGradient8104)" /><path
       id="path5633"
       opacity="0.1"
       d="m -106.11,27.436 h 0.23191 V 20.2813 H -106.11 Z"
       fill="url(#linearGradient8106)"
       style="fill:url(#linearGradient8106)" /><path
       id="path5635"
       opacity="0.91223"
       d="m -106.25,21.527 v 0.17035 h 1.5402 V 21.527 Z m 0,0.6814 v 0.17035 h 1.5402 V 22.2084 Z m 0,0.68141 v 0.17035 h 1.5402 v -0.17035 z m 0,0.6814 v 0.17035 h 1.5402 v -0.17035 z m 0,0.6814 v 0.17035 h 1.5402 v -0.17035 z m 0,0.6814 v 0.17035 h 1.5402 v -0.17035 z m 0,0.6814 v 0.17035 h 1.5402 v -0.17035 z"
       stroke="#98fc66"
       stroke-width="0.022129"
       fill="#fff51f" /><path
       id="path5637"
       opacity="0.95104"
       d="m -107.21,23.401 v 1.0221 h 0.57941 l -0.57941,1.3628 v -1.0221 h -0.57941 z"
       stroke="#98fc66"
       stroke-width="0.031613"
       fill="#ffef42" /></g><g
     id="g111"
     transform="matrix(0.30632434,0.04764426,-0.03147509,0.19187952,-37.198842,-51.819708)"
     style="opacity:0.543529;fill:#000000"><path
       id="path75"
       fill="#364e59"
       d="m 586.19,722.59 -46.029,26.575 v -53.15 L 586.19,669.44 Z"
       style="fill:#000000" /><path
       id="path76"
       d="m 448.1,625.15 46.029,-26.575 15.343,26.575 -46.029,26.575 z"
       fill="#555753"
       style="fill:#000000" /><path
       id="path77"
       d="M 463.45,634 509.479,607.425 524.822,634 478.793,660.575 Z"
       fill="#555753"
       style="fill:#000000" /><path
       id="path78"
       d="m 478.79,642.86 46.029,-26.575 15.343,26.575 -46.029,26.575 z"
       fill="#555753"
       style="fill:#000000" /><path
       id="path79"
       d="m 494.13,651.72 46.029,-26.575 15.343,26.575 -46.029,26.575 z"
       fill="#555753"
       style="fill:#000000" /><path
       id="path80"
       d="m 509.47,660.58 46.029,-26.575 15.343,26.575 -46.029,26.575 z"
       fill="#555753"
       style="fill:#000000" /><path
       id="path81"
       d="m 524.82,669.44 46.029,-26.575 15.343,26.575 -46.029,26.575 z"
       fill="#555753"
       style="fill:#000000" /><path
       id="path82"
       d="m 448.11,625.16 v 17.688 l -0.014,53.158 92.062,53.156 0.014,-53.158 -15.344,-26.562 v 17.688 h -0.0312 l -15.312,-26.562 v 17.719 l -15.344,-26.562 v 17.719 l -15.344,-26.594 v 17.719 l -15.344,-26.562 v 17.688 h -0.0312 l -15.312,-26.531 z"
       fill="#9eabb0"
       style="fill:#000000" /><path
       id="path83"
       d="m 570.85,749.16 -15.343,-8.8583 v -35.433 l 15.343,8.8583 z"
       fill="#babdb6"
       style="fill:#000000" /><path
       id="path84"
       d="m 570.85,749.16 15.343,-8.8583 v -35.433 l -15.343,8.8583 z"
       fill="#888a85"
       style="fill:#000000" /><path
       id="path85"
       d="m 540.11,696.07 45.75,-26.5 -0.25,3.75 -45.625,25.75 z"
       fill="#151819"
       style="fill:#000000" /><path
       id="path86"
       d="m 555.5,704.87 15.343,-8.8583 15.343,8.8583 -15.343,8.8583 z"
       fill="#eeeeec"
       style="fill:#000000" /><g
       id="g89"
       transform="matrix(1,0,0,0.80474,813,284.95)"
       style="fill:#000000"><path
         id="path87"
         fill="url(#linearGradient40237)"
         d="m -246.33,381.95 -2,138.92 h 0.0625 c -10e-4,0.0254 0,0.048 0,0.0735 0,1.9181 3.4507,3.4797 7.6875,3.4797 4.2368,0 7.6562,-1.5615 7.6562,-3.4797 0,-0.15171 -0.0208,-0.29449 -0.0625,-0.44108 l -2,-138.55 h -13.344 l 2,10e-6 z"
         style="fill:#000000" /><path
         id="path88"
         transform="matrix(0.75605,0,0,0.59285,-58.505,581.95)"
         fill="#eeeeec"
         d="m -233.21,-338.09 c 0,2.4462 -3.4346,4.4291 -7.6715,4.4291 -4.2368,0 -7.6715,-1.983 -7.6715,-4.4291 0,-2.4461 3.4346,-4.4291 7.6715,-4.4291 4.2368,0 7.6715,1.983 7.6715,4.4291 z"
         style="fill:#000000" /><path
         id="path89"
         transform="matrix(0.52141,0,0,0.40886,-115.02,520.56)"
         fill="#888a85"
         d="m -233.21,-338.09 c 0,2.4462 -3.4346,4.4291 -7.6715,4.4291 -4.2368,0 -7.6715,-1.983 -7.6715,-4.4291 0,-2.4461 3.4346,-4.4291 7.6715,-4.4291 4.2368,0 7.6715,1.983 7.6715,4.4291 z"
         style="fill:#000000" /></g><path
       id="path90"
       stroke="#000000"
       stroke-width="1px"
       fill="none"
       d="m 463.45,634 46.029,-26.575"
       style="fill:#000000" /><path
       id="path91"
       stroke="#000000"
       stroke-width="1px"
       fill="none"
       d="m 478.79,642.86 46.029,-26.575"
       style="fill:#000000" /><path
       id="path92"
       stroke="#000000"
       stroke-width="1px"
       fill="none"
       d="m 494.13,651.72 46.029,-26.575"
       style="fill:#000000" /><path
       id="path93"
       stroke="#000000"
       stroke-width="1px"
       fill="none"
       d="m 510.24,660.69 -0.76248,-0.1122 46.029,-26.575"
       style="fill:#000000" /><path
       id="path94"
       stroke="#000000"
       stroke-width="1px"
       fill="none"
       d="m 525.49,668.94 38.016,-21.22"
       style="fill:#000000" /><path
       id="path95"
       stroke-linejoin="bevel"
       d="m 448.49,626.44 14.959,25.28 v -17.717 l 15.343,26.575 v -17.717 l 15.343,26.575 v -17.717 l 15.343,26.575 v -17.717 l 15.343,26.575 v -17.717 l 15.343,26.575"
       stroke="#000000"
       stroke-width="1px"
       fill="none"
       style="fill:#000000" /><g
       id="g97"
       stroke-width="1.25"
       fill="#0084c8"
       transform="matrix(0.16,0,0,0.15593,450.89,650.49)"
       style="fill:#000000"><path
         id="path96"
         d="m 184.12,131.1 v 53.15 l 30.686,17.717 v -53.15 z"
         style="fill:#000000" /><path
         id="path97"
         stroke="#ffffff"
         stroke-width="1.5827"
         d="m 214.8,148.82 v 53.15"
         style="fill:#000000" /></g><g
       id="g99"
       stroke-width="1.25"
       fill="#0084c8"
       transform="matrix(0.16,0,0,0.15593,445.98,647.73)"
       style="fill:#000000"><path
         id="path98"
         d="m 184.12,131.1 v 53.15 l 30.686,17.717 v -53.15 z"
         style="fill:#000000" /><path
         id="path99"
         stroke="#ffffff"
         stroke-width="1.5827"
         d="m 214.8,148.82 v 53.15"
         style="fill:#000000" /></g><g
       id="g101"
       transform="matrix(0.16,0,0,0.15593,480.35,667.31)"
       fill="#0084c8"
       style="fill:#000000"><path
         id="path100"
         d="m 184.12,131.1 v 53.15 l 30.686,17.717 v -53.15 z"
         style="fill:#000000" /><path
         id="path101"
         stroke="#ffffff"
         stroke-width="1.5827"
         d="m 214.8,148.82 v 53.15"
         style="fill:#000000" /></g><g
       id="g103"
       stroke-width="1.25"
       fill="#0084c8"
       transform="matrix(0.16,0,0,0.15593,475.44,664.54)"
       style="fill:#000000"><path
         id="path102"
         d="m 184.12,131.1 v 53.15 l 30.686,17.717 v -53.15 z"
         style="fill:#000000" /><path
         id="path103"
         stroke="#ffffff"
         stroke-width="1.5827"
         d="m 214.8,148.82 v 53.15"
         style="fill:#000000" /></g><path
       id="path104"
       d="m 478.79,714.18 -1e-5,-28.961 30.686,17.266 v 28.961 l -30.686,-17.266 z"
       fill="#555753"
       style="fill:#000000" /><path
       id="path105"
       stroke="#000000"
       stroke-width="0.25"
       fill="none"
       d="m 494.33,694.16 -0.19548,28.65"
       style="fill:#000000" /><path
       id="path106"
       stroke="#000000"
       stroke-width="0.25"
       fill="none"
       d="m 494.33,694.16 -0.19548,28.65"
       style="fill:#000000" /><path
       id="path107"
       fill="#2e3436"
       d="m 514.62,722.8 v 10.63 l 6.1372,3.5433 v -10.63 z"
       style="fill:#000000" /><path
       id="path108"
       fill="#555753"
       d="m 522.12,724.17 v 2.126 l -3.9823,2.0135 0.3,-2.0135 z"
       style="fill:#000000" /><path
       id="path109"
       d="m 522.12,724.17 -3.9823,4.076 -7.2146,-4.252 3.8323,-4.076 z"
       fill="#babdb6"
       style="fill:#000000" /><path
       id="path110"
       stroke-linejoin="bevel"
       d="m 572.38,589.85 c -3.2032,0 -5.7812,0.95797 -5.7812,2.125 0,0.14588 0.0165,0.26869 0.0937,0.40625 l -0.96875,53.406 -2.5625,1.5 -7.6562,-13.281 -7.6562,4.4375 -7.6875,-13.312 -7.6875,4.4375 -7.6562,-13.281 -7.6562,4.4375 -7.6875,-13.312 -7.6875,4.4375 -7.6562,-13.281 -46.031,26.562 0.0312,0.0625 -0.0312,70.812 92.062,53.156 15.344,-8.875 15.344,8.875 15.344,-8.875 v -70.844 l -7,-12.125 -1.1562,-64.906 c 0.0902,-0.14806 0.15625,-0.27955 0.15625,-0.4375 0,-1.167 -2.6092,-2.125 -5.8125,-2.125 h 5e-5 z"
       stroke="#2e3436"
       stroke-width="3"
       fill="none"
       style="fill:#000000" /><path
       id="path111"
       d="m 448.11,625.16 v 17.688 l -0.014,3.158 92.062,53.156 0.014,-3.158 -15.344,-26.562 v 17.688 h -0.0312 l -15.312,-26.562 v 17.719 l -15.344,-26.562 v 17.719 l -15.344,-26.594 v 17.719 l -15.344,-26.562 v 17.688 h -0.0312 l -15.312,-26.531 h -10e-5 z"
       fill="#2e3436"
       style="fill:#000000" /></g><g
     id="layer1"
     transform="matrix(0.48547716,0,0,0.48547716,-165.89621,-241.49865)"><path
       id="path39383"
       fill="#364e59"
       d="m 586.19,722.59 -46.029,26.575 v -53.15 L 586.19,669.44 Z" /><path
       id="path5471"
       d="m 448.1,625.15 46.029,-26.575 15.343,26.575 -46.029,26.575 z"
       fill="#555753" /><path
       id="path5473"
       d="M 463.45,634 509.479,607.425 524.822,634 478.793,660.575 Z"
       fill="#555753" /><path
       id="path5475"
       d="m 478.79,642.86 46.029,-26.575 15.343,26.575 -46.029,26.575 z"
       fill="#555753" /><path
       id="path5477"
       d="m 494.13,651.72 46.029,-26.575 15.343,26.575 -46.029,26.575 z"
       fill="#555753" /><path
       id="path5479"
       d="m 509.47,660.58 46.029,-26.575 15.343,26.575 -46.029,26.575 z"
       fill="#555753" /><path
       id="path5481"
       d="m 524.82,669.44 46.029,-26.575 15.343,26.575 -46.029,26.575 z"
       fill="#555753" /><path
       id="path39379"
       d="m 448.11,625.16 v 17.688 l -0.014,53.158 92.062,53.156 0.014,-53.158 -15.344,-26.562 v 17.688 h -0.0312 l -15.312,-26.562 v 17.719 l -15.344,-26.562 v 17.719 l -15.344,-26.594 v 17.719 l -15.344,-26.562 v 17.688 h -0.0312 l -15.312,-26.531 z"
       fill="#9eabb0" /><path
       id="path5483"
       d="m 570.85,749.16 -15.343,-8.8583 v -35.433 l 15.343,8.8583 z"
       fill="#babdb6" /><path
       id="path5485"
       d="m 570.85,749.16 15.343,-8.8583 v -35.433 l -15.343,8.8583 z"
       fill="#888a85" /><path
       id="path5966"
       d="m 540.11,696.07 45.75,-26.5 -0.25,3.75 -45.625,25.75 z"
       fill="#151819" /><path
       id="path5487"
       d="m 555.5,704.87 15.343,-8.8583 15.343,8.8583 -15.343,8.8583 z"
       fill="#eeeeec" /><g
       id="g40252"
       transform="matrix(1,0,0,0.80474,813,284.95)"><path
         id="rect40229"
         fill="url(#linearGradient40237)"
         d="m -246.33,381.95 -2,138.92 h 0.0625 c -10e-4,0.0254 0,0.048 0,0.0735 0,1.9181 3.4507,3.4797 7.6875,3.4797 4.2368,0 7.6562,-1.5615 7.6562,-3.4797 0,-0.15171 -0.0208,-0.29449 -0.0625,-0.44108 l -2,-138.55 h -13.344 l 2,10e-6 z"
         style="fill:url(#linearGradient40237)" /><path
         id="path40241"
         transform="matrix(0.75605,0,0,0.59285,-58.505,581.95)"
         fill="#eeeeec"
         d="m -233.21,-338.09 c 0,2.4462 -3.4346,4.4291 -7.6715,4.4291 -4.2368,0 -7.6715,-1.983 -7.6715,-4.4291 0,-2.4461 3.4346,-4.4291 7.6715,-4.4291 4.2368,0 7.6715,1.983 7.6715,4.4291 z" /><path
         id="path5489"
         transform="matrix(0.52141,0,0,0.40886,-115.02,520.56)"
         fill="#888a85"
         d="m -233.21,-338.09 c 0,2.4462 -3.4346,4.4291 -7.6715,4.4291 -4.2368,0 -7.6715,-1.983 -7.6715,-4.4291 0,-2.4461 3.4346,-4.4291 7.6715,-4.4291 4.2368,0 7.6715,1.983 7.6715,4.4291 z" /></g><path
       id="path5529"
       stroke="#000000"
       stroke-width="1px"
       fill="none"
       d="m 463.45,634 46.029,-26.575" /><path
       id="path5531"
       stroke="#000000"
       stroke-width="1px"
       fill="none"
       d="m 478.79,642.86 46.029,-26.575" /><path
       id="path5533"
       stroke="#000000"
       stroke-width="1px"
       fill="none"
       d="m 494.13,651.72 46.029,-26.575" /><path
       id="path5535"
       stroke="#000000"
       stroke-width="1px"
       fill="none"
       d="m 510.24,660.69 -0.76248,-0.1122 46.029,-26.575" /><path
       id="path5537"
       stroke="#000000"
       stroke-width="1px"
       fill="none"
       d="m 525.49,668.94 38.016,-21.22" /><path
       id="path5539"
       stroke-linejoin="bevel"
       d="m 448.49,626.44 14.959,25.28 v -17.717 l 15.343,26.575 v -17.717 l 15.343,26.575 v -17.717 l 15.343,26.575 v -17.717 l 15.343,26.575 v -17.717 l 15.343,26.575"
       stroke="#000000"
       stroke-width="1px"
       fill="none" /><g
       id="g5684"
       stroke-width="1.25"
       fill="#0084c8"
       transform="matrix(0.16,0,0,0.15593,450.89,650.49)"><path
         id="path5686"
         d="m 184.12,131.1 v 53.15 l 30.686,17.717 v -53.15 z" /><path
         id="path5688"
         stroke="#ffffff"
         stroke-width="1.5827"
         d="m 214.8,148.82 v 53.15" /></g><g
       id="g5690"
       stroke-width="1.25"
       fill="#0084c8"
       transform="matrix(0.16,0,0,0.15593,445.98,647.73)"><path
         id="path5692"
         d="m 184.12,131.1 v 53.15 l 30.686,17.717 v -53.15 z" /><path
         id="path5694"
         stroke="#ffffff"
         stroke-width="1.5827"
         d="m 214.8,148.82 v 53.15" /></g><g
       id="g5794"
       transform="matrix(0.16,0,0,0.15593,480.35,667.31)"
       fill="#0084c8"><path
         id="path5796"
         d="m 184.12,131.1 v 53.15 l 30.686,17.717 v -53.15 z" /><path
         id="path5798"
         stroke="#ffffff"
         stroke-width="1.5827"
         d="m 214.8,148.82 v 53.15" /></g><g
       id="g5800"
       stroke-width="1.25"
       fill="#0084c8"
       transform="matrix(0.16,0,0,0.15593,475.44,664.54)"><path
         id="path5802"
         d="m 184.12,131.1 v 53.15 l 30.686,17.717 v -53.15 z" /><path
         id="path5804"
         stroke="#ffffff"
         stroke-width="1.5827"
         d="m 214.8,148.82 v 53.15" /></g><path
       id="path5806"
       d="m 478.79,714.18 -1e-5,-28.961 30.686,17.266 v 28.961 l -30.686,-17.266 z"
       fill="#555753" /><path
       id="path5808"
       stroke="#000000"
       stroke-width="0.25"
       fill="none"
       d="m 494.33,694.16 -0.19548,28.65" /><path
       id="path5810"
       stroke="#000000"
       stroke-width="0.25"
       fill="none"
       d="m 494.33,694.16 -0.19548,28.65" /><path
       id="path5822"
       fill="#2e3436"
       d="m 514.62,722.8 v 10.63 l 6.1372,3.5433 v -10.63 z" /><path
       id="path5830"
       fill="#555753"
       d="m 522.12,724.17 v 2.126 l -3.9823,2.0135 0.3,-2.0135 z" /><path
       id="path5834"
       d="m 522.12,724.17 -3.9823,4.076 -7.2146,-4.252 3.8323,-4.076 z"
       fill="#babdb6" /><path
       id="path5491"
       stroke-linejoin="bevel"
       d="m 572.38,589.85 c -3.2032,0 -5.7812,0.95797 -5.7812,2.125 0,0.14588 0.0165,0.26869 0.0937,0.40625 l -0.96875,53.406 -2.5625,1.5 -7.6562,-13.281 -7.6562,4.4375 -7.6875,-13.312 -7.6875,4.4375 -7.6562,-13.281 -7.6562,4.4375 -7.6875,-13.312 -7.6875,4.4375 -7.6562,-13.281 -46.031,26.562 0.0312,0.0625 -0.0312,70.812 92.062,53.156 15.344,-8.875 15.344,8.875 15.344,-8.875 v -70.844 l -7,-12.125 -1.1562,-64.906 c 0.0902,-0.14806 0.15625,-0.27955 0.15625,-0.4375 0,-1.167 -2.6092,-2.125 -5.8125,-2.125 h 5e-5 z"
       stroke="#2e3436"
       stroke-width="3"
       fill="none" /><path
       id="path5949"
       d="m 448.11,625.16 v 17.688 l -0.014,3.158 92.062,53.156 0.014,-3.158 -15.344,-26.562 v 17.688 h -0.0312 l -15.312,-26.562 v 17.719 l -15.344,-26.562 v 17.719 l -15.344,-26.594 v 17.719 l -15.344,-26.562 v 17.688 h -0.0312 l -15.312,-26.531 h -10e-5 z"
       fill="#2e3436" /></g><metadata
     id="metadata1"><rdf:RDF><cc:Work><dc:format>image/svg+xml</dc:format><dc:type
           rdf:resource="http://purl.org/dc/dcmitype/StillImage" /><cc:license
           rdf:resource="http://creativecommons.org/licenses/publicdomain/" /><dc:publisher><cc:Agent
             rdf:about="http://openclipart.org/"><dc:title>Openclipart</dc:title></cc:Agent></dc:publisher><dc:title>isocity factory</dc:title><dc:date>2010-03-20T21:36:13</dc:date><dc:description>building, clip art, clipart, factory, isometric, </dc:description><dc:source>http://openclipart.org/detail/32773/isocity-factory-by-rg1024</dc:source><dc:creator><cc:Agent><dc:title>rg1024</dc:title></cc:Agent></dc:creator><dc:subject><rdf:Bag><rdf:li>building</rdf:li><rdf:li>clip art</rdf:li><rdf:li>clipart</rdf:li><rdf:li>factory</rdf:li><rdf:li>isometric</rdf:li></rdf:Bag></dc:subject></cc:Work><cc:License
         rdf:about="http://creativecommons.org/licenses/publicdomain/"><cc:permits
           rdf:resource="http://creativecommons.org/ns#Reproduction" /><cc:permits
           rdf:resource="http://creativecommons.org/ns#Distribution" /><cc:permits
           rdf:resource="http://creativecommons.org/ns#DerivativeWorks" /></cc:License></rdf:RDF></metadata></svg>
