<?xml version="1.0" encoding="UTF-8" standalone="no"?>
<svg
   xmlns:dc="http://purl.org/dc/elements/1.1/"
   xmlns:cc="http://creativecommons.org/ns#"
   xmlns:rdf="http://www.w3.org/1999/02/22-rdf-syntax-ns#"
   xmlns:svg="http://www.w3.org/2000/svg"
   xmlns="http://www.w3.org/2000/svg"
   xmlns:sodipodi="http://sodipodi.sourceforge.net/DTD/sodipodi-0.dtd"
   xmlns:inkscape="http://www.inkscape.org/namespaces/inkscape"
   height="564.29718mm"
   width="655.30969mm"
   version="1.1"
   viewBox="0 0 2321.9678 1999.4689"
   id="svg6"
   sodipodi:docname="SimplePVPanel.svg"
   inkscape:version="0.92.2 (5c3e80d, 2017-08-06)">
  <metadata
     id="metadata12">
    <rdf:RDF>
      <cc:Work
         rdf:about="">
        <dc:format>image/svg+xml</dc:format>
        <dc:type
           rdf:resource="http://purl.org/dc/dcmitype/StillImage" />
        <dc:title></dc:title>
      </cc:Work>
    </rdf:RDF>
  </metadata>
  <defs
     id="defs10">
    <filter
       inkscape:collect="always"
       style="color-interpolation-filters:sRGB"
       id="filter970"
       x="-0.048000041"
       width="1.0960001"
       y="-0.047999959"
       height="1.096">
      <feGaussianBlur
         inkscape:collect="always"
         stdDeviation="6.1442311"
         id="feGaussianBlur972" />
    </filter>
  </defs>
  <sodipodi:namedview
     pagecolor="#ffffff"
     bordercolor="#666666"
     borderopacity="1"
     objecttolerance="10"
     gridtolerance="10"
     guidetolerance="10"
     inkscape:pageopacity="0"
     inkscape:pageshadow="2"
     inkscape:window-width="1366"
     inkscape:window-height="719"
     id="namedview8"
     showgrid="false"
     showguides="true"
     inkscape:guide-bbox="true"
     inkscape:snap-global="true"
     inkscape:zoom="0.15493057"
     inkscape:cx="627.78495"
     inkscape:cy="826.58606"
     inkscape:window-x="0"
     inkscape:window-y="25"
     inkscape:window-maximized="1"
     inkscape:current-layer="svg6"
     fit-margin-top="0"
     fit-margin-left="0"
     fit-margin-right="0"
     fit-margin-bottom="0">
    <sodipodi:guide
       position="-162.96556,497.43742"
       orientation="-0.93969262,0.34202014"
       id="guide861"
       inkscape:locked="false"
       inkscape:label=""
       inkscape:color="rgb(0,0,255)" />
    <sodipodi:guide
       position="2314.9635,1812.0322"
       orientation="1,0"
       id="guide1336"
       inkscape:locked="false" />
    <sodipodi:guide
       position="1992.6724,102.12835"
       orientation="1,0"
       id="guide1423"
       inkscape:locked="false" />
  </sodipodi:namedview>
  <g
     id="g1515"
     transform="translate(-2335.3138,707.83317)">
    <path
       inkscape:connector-curvature="0"
       id="path1406"
       d="m 4160.1375,795.7162 h 396.3477"
       style="fill:none;stroke:#ff000d;stroke-width:14.0625267;stroke-linecap:butt;stroke-linejoin:miter;stroke-miterlimit:4;stroke-dasharray:none;stroke-opacity:1" />
    <path
       inkscape:connector-curvature="0"
       id="path1408"
       d="m 4108.703,931.86615 h 441.731"
       style="fill:none;stroke:#0f16a2;stroke-width:14.0625267;stroke-linecap:butt;stroke-linejoin:miter;stroke-miterlimit:4;stroke-dasharray:none;stroke-opacity:1" />
    <path
       inkscape:connector-curvature="0"
       id="path1410"
       d="m 4060.2942,1077.0927 h 266.2488 v 99.8434"
       style="fill:none;stroke:#2ea712;stroke-width:14.0625267;stroke-linecap:butt;stroke-linejoin:miter;stroke-miterlimit:4;stroke-dasharray:none;stroke-opacity:1" />
    <g
       id="g1404">
      <path
         sodipodi:nodetypes="ccsssscc"
         inkscape:connector-curvature="0"
         id="path1334"
         d="m 4648.1379,-662.92704 c 0,0 2.1394,74.87182 0.01,109.63691 -7.4879,16.04543 -650.5609,1793.08163 -650.5609,1793.08163 -8.2531,22.7474 -19.4814,43.679 -43.6797,43.679 h -1561.757 c -20.1534,0 -42.759,-14.5186 -44.9858,-32.5132 -0.4469,-3.6116 -4.6112,-87.5405 -3.2316,-91.343 z"
         style="opacity:1;fill:#7b7777;fill-opacity:1;stroke:#040000;stroke-width:16.347229;stroke-miterlimit:4;stroke-dasharray:none;stroke-dashoffset:0;stroke-opacity:1" />
      <path
         style="opacity:1;fill:#b2b2b2;fill-opacity:1;stroke:#040000;stroke-width:16.347229;stroke-miterlimit:4;stroke-dasharray:none;stroke-dashoffset:0;stroke-opacity:1"
         d="m 3041.2786,-699.6642 h 1561.7542 c 24.1982,0 51.9328,20.93228 43.6796,43.67983 l -652.693,1798.95817 c -8.2531,22.7474 -19.4814,43.679 -43.6797,43.679 H 2388.5854 c -24.1984,0 -51.9322,-20.9316 -43.6791,-43.679 l 652.6931,-1798.95817 c 8.2532,-22.74757 19.4809,-43.67983 43.6792,-43.67983 z"
         id="path1332"
         inkscape:connector-curvature="0"
         sodipodi:nodetypes="sssssssss" />
      <path
         sodipodi:nodetypes="sssssssss"
         inkscape:connector-curvature="0"
         id="path1182"
         d="m 3068.3369,-637.32188 h 1458.106 c 22.5923,0 48.4862,19.54308 40.7807,40.78095 l -609.376,1679.56763 c -7.7054,21.2377 -18.1885,40.7802 -40.7809,40.7802 h -1458.106 c -22.5925,0 -48.4857,-19.5425 -40.7803,-40.7802 l 609.3761,-1679.56763 c 7.7054,-21.23789 18.188,-40.78095 40.7804,-40.78095 z"
         style="opacity:1;fill:#d6d6d6;fill-opacity:1;stroke:#040000;stroke-width:15.26231956;stroke-miterlimit:4;stroke-dasharray:none;stroke-dashoffset:0;stroke-opacity:1" />
      <g
         id="g1330">
        <g
           transform="translate(444.93712,-169.90978)"
           id="g977">
          <path
             style="opacity:1;fill:#3a34b4;fill-opacity:1;stroke:#040000;stroke-width:6.15657425;stroke-miterlimit:4;stroke-dasharray:none;stroke-dashoffset:0;stroke-opacity:1"
             d="m 2124.0076,959.42312 h 302.4565 c 3.926,0 8.4257,3.39604 7.0867,7.08663 l -105.8944,291.86705 c -1.339,3.6906 -3.1607,7.0866 -7.0867,7.0866 h -302.4565 c -3.926,0 -8.4256,-3.396 -7.0866,-7.0866 L 2116.921,966.50975 c 1.339,-3.69059 3.1606,-7.08663 7.0866,-7.08663 z"
             id="rect863"
             inkscape:connector-curvature="0"
             sodipodi:nodetypes="sssssssss" />
          <path
             style="opacity:0.16400003;fill:#b4b1fc;fill-opacity:1;stroke:none;stroke-width:5.97344685;stroke-miterlimit:4;stroke-dasharray:none;stroke-dashoffset:0;stroke-opacity:1;filter:url(#filter970)"
             d="m 2127.984,961.25034 h 293.4599 c 3.8096,0 8.1915,3.30105 6.8759,6.87584 l -104.3816,283.62692 c -1.3156,3.5749 -3.0663,6.876 -6.8759,6.876 -46.008,-129.782 -46.8161,-217.2762 -195.9538,-290.50292 0,-3.8092 3.0663,-6.87584 6.8755,-6.87584 z"
             id="rect865"
             inkscape:connector-curvature="0"
             sodipodi:nodetypes="ssssccs" />
        </g>
        <g
           transform="translate(571.69623,-518.17758)"
           id="g983">
          <path
             sodipodi:nodetypes="sssssssss"
             inkscape:connector-curvature="0"
             id="path979"
             d="m 2124.0076,959.42312 h 302.4565 c 3.926,0 8.4257,3.39604 7.0867,7.08663 l -105.8944,291.86705 c -1.339,3.6906 -3.1607,7.0866 -7.0867,7.0866 h -302.4565 c -3.926,0 -8.4256,-3.396 -7.0866,-7.0866 L 2116.921,966.50975 c 1.339,-3.69059 3.1606,-7.08663 7.0866,-7.08663 z"
             style="opacity:1;fill:#3a34b4;fill-opacity:1;stroke:#040000;stroke-width:6.15657425;stroke-miterlimit:4;stroke-dasharray:none;stroke-dashoffset:0;stroke-opacity:1" />
          <path
             sodipodi:nodetypes="ssssccs"
             inkscape:connector-curvature="0"
             id="path981"
             d="m 2127.984,961.25034 h 293.4599 c 3.8096,0 8.1915,3.30105 6.8759,6.87584 l -104.3816,283.62692 c -1.3156,3.5749 -3.0663,6.876 -6.8759,6.876 -46.008,-129.782 -46.8161,-217.2762 -195.9538,-290.50292 0,-3.8092 3.0663,-6.87584 6.8755,-6.87584 z"
             style="opacity:0.16400003;fill:#b4b1fc;fill-opacity:1;stroke:none;stroke-width:5.97344685;stroke-miterlimit:4;stroke-dasharray:none;stroke-dashoffset:0;stroke-opacity:1;filter:url(#filter970)" />
        </g>
        <g
           id="g989"
           transform="translate(698.45535,-866.44541)">
          <path
             style="opacity:1;fill:#3a34b4;fill-opacity:1;stroke:#040000;stroke-width:6.15657425;stroke-miterlimit:4;stroke-dasharray:none;stroke-dashoffset:0;stroke-opacity:1"
             d="m 2124.0076,959.42312 h 302.4565 c 3.926,0 8.4257,3.39604 7.0867,7.08663 l -105.8944,291.86705 c -1.339,3.6906 -3.1607,7.0866 -7.0867,7.0866 h -302.4565 c -3.926,0 -8.4256,-3.396 -7.0866,-7.0866 L 2116.921,966.50975 c 1.339,-3.69059 3.1606,-7.08663 7.0866,-7.08663 z"
             id="path985"
             inkscape:connector-curvature="0"
             sodipodi:nodetypes="sssssssss" />
          <path
             style="opacity:0.16400003;fill:#b4b1fc;fill-opacity:1;stroke:none;stroke-width:5.97344685;stroke-miterlimit:4;stroke-dasharray:none;stroke-dashoffset:0;stroke-opacity:1;filter:url(#filter970)"
             d="m 2127.984,961.25034 h 293.4599 c 3.8096,0 8.1915,3.30105 6.8759,6.87584 l -104.3816,283.62692 c -1.3156,3.5749 -3.0663,6.876 -6.8759,6.876 -46.008,-129.782 -46.8161,-217.2762 -195.9538,-290.50292 0,-3.8092 3.0663,-6.87584 6.8755,-6.87584 z"
             id="path987"
             inkscape:connector-curvature="0"
             sodipodi:nodetypes="ssssccs" />
        </g>
        <g
           transform="translate(825.21448,-1214.7133)"
           id="g995">
          <path
             sodipodi:nodetypes="sssssssss"
             inkscape:connector-curvature="0"
             id="path991"
             d="m 2124.0076,959.42312 h 302.4565 c 3.926,0 8.4257,3.39604 7.0867,7.08663 l -105.8944,291.86705 c -1.339,3.6906 -3.1607,7.0866 -7.0867,7.0866 h -302.4565 c -3.926,0 -8.4256,-3.396 -7.0866,-7.0866 L 2116.921,966.50975 c 1.339,-3.69059 3.1606,-7.08663 7.0866,-7.08663 z"
             style="opacity:1;fill:#3a34b4;fill-opacity:1;stroke:#040000;stroke-width:6.15657425;stroke-miterlimit:4;stroke-dasharray:none;stroke-dashoffset:0;stroke-opacity:1" />
          <path
             sodipodi:nodetypes="ssssccs"
             inkscape:connector-curvature="0"
             id="path993"
             d="m 2127.984,961.25034 h 293.4599 c 3.8096,0 8.1915,3.30105 6.8759,6.87584 l -104.3816,283.62692 c -1.3156,3.5749 -3.0663,6.876 -6.8759,6.876 -46.008,-129.782 -46.8161,-217.2762 -195.9538,-290.50292 0,-3.8092 3.0663,-6.87584 6.8755,-6.87584 z"
             style="opacity:0.16400003;fill:#b4b1fc;fill-opacity:1;stroke:none;stroke-width:5.97344685;stroke-miterlimit:4;stroke-dasharray:none;stroke-dashoffset:0;stroke-opacity:1;filter:url(#filter970)" />
        </g>
        <path
           sodipodi:nodetypes="sssssssss"
           inkscape:connector-curvature="0"
           id="path997"
           d="m 3075.9812,-603.55798 h 302.4565 c 3.926,0 8.4257,3.39604 7.0867,7.08663 L 3279.63,-304.6043 c -1.339,3.6906 -3.1607,7.0866 -7.0867,7.0866 h -302.4565 c -3.926,0 -8.4256,-3.396 -7.0866,-7.0866 l 105.8944,-291.86705 c 1.339,-3.69059 3.1606,-7.08663 7.0866,-7.08663 z"
           style="opacity:1;fill:#3a34b4;fill-opacity:1;stroke:#040000;stroke-width:6.15657425;stroke-miterlimit:4;stroke-dasharray:none;stroke-dashoffset:0;stroke-opacity:1" />
        <path
           sodipodi:nodetypes="ssssccs"
           inkscape:connector-curvature="0"
           id="path999"
           d="m 3079.9576,-601.73076 h 293.4599 c 3.8096,0 8.1915,3.30105 6.8759,6.87584 L 3275.9118,-311.228 c -1.3156,3.5749 -3.0663,6.876 -6.8759,6.876 -46.008,-129.782 -46.8161,-217.2762 -195.9538,-290.50292 0,-3.8092 3.0663,-6.87584 6.8755,-6.87584 z"
           style="opacity:0.16400003;fill:#b4b1fc;fill-opacity:1;stroke:none;stroke-width:5.97344685;stroke-miterlimit:4;stroke-dasharray:none;stroke-dashoffset:0;stroke-opacity:1;filter:url(#filter970)" />
        <g
           transform="translate(826.21308,-136.92097)"
           id="g1050">
          <g
             transform="translate(-0.05606302,-32.988811)"
             id="g1024">
            <path
               style="opacity:1;fill:#3a34b4;fill-opacity:1;stroke:#040000;stroke-width:6.15657425;stroke-miterlimit:4;stroke-dasharray:none;stroke-dashoffset:0;stroke-opacity:1"
               d="m 2124.0076,959.42312 h 302.4565 c 3.926,0 8.4257,3.39604 7.0867,7.08663 l -105.8944,291.86705 c -1.339,3.6906 -3.1607,7.0866 -7.0867,7.0866 h -302.4565 c -3.926,0 -8.4256,-3.396 -7.0866,-7.0866 L 2116.921,966.50975 c 1.339,-3.69059 3.1606,-7.08663 7.0866,-7.08663 z"
               id="path1020"
               inkscape:connector-curvature="0"
               sodipodi:nodetypes="sssssssss" />
            <path
               style="opacity:0.16400003;fill:#b4b1fc;fill-opacity:1;stroke:none;stroke-width:5.97344685;stroke-miterlimit:4;stroke-dasharray:none;stroke-dashoffset:0;stroke-opacity:1;filter:url(#filter970)"
               d="m 2127.984,961.25034 h 293.4599 c 3.8096,0 8.1915,3.30105 6.8759,6.87584 l -104.3816,283.62692 c -1.3156,3.5749 -3.0663,6.876 -6.8759,6.876 -46.008,-129.782 -46.8161,-217.2762 -195.9538,-290.50292 0,-3.8092 3.0663,-6.87584 6.8755,-6.87584 z"
               id="path1022"
               inkscape:connector-curvature="0"
               sodipodi:nodetypes="ssssccs" />
          </g>
          <g
             transform="translate(126.70305,-381.25661)"
             id="g1030">
            <path
               sodipodi:nodetypes="sssssssss"
               inkscape:connector-curvature="0"
               id="path1026"
               d="m 2124.0076,959.42312 h 302.4565 c 3.926,0 8.4257,3.39604 7.0867,7.08663 l -105.8944,291.86705 c -1.339,3.6906 -3.1607,7.0866 -7.0867,7.0866 h -302.4565 c -3.926,0 -8.4256,-3.396 -7.0866,-7.0866 L 2116.921,966.50975 c 1.339,-3.69059 3.1606,-7.08663 7.0866,-7.08663 z"
               style="opacity:1;fill:#3a34b4;fill-opacity:1;stroke:#040000;stroke-width:6.15657425;stroke-miterlimit:4;stroke-dasharray:none;stroke-dashoffset:0;stroke-opacity:1" />
            <path
               sodipodi:nodetypes="ssssccs"
               inkscape:connector-curvature="0"
               id="path1028"
               d="m 2127.984,961.25034 h 293.4599 c 3.8096,0 8.1915,3.30105 6.8759,6.87584 l -104.3816,283.62692 c -1.3156,3.5749 -3.0663,6.876 -6.8759,6.876 -46.008,-129.782 -46.8161,-217.2762 -195.9538,-290.50292 0,-3.8092 3.0663,-6.87584 6.8755,-6.87584 z"
               style="opacity:0.16400003;fill:#b4b1fc;fill-opacity:1;stroke:none;stroke-width:5.97344685;stroke-miterlimit:4;stroke-dasharray:none;stroke-dashoffset:0;stroke-opacity:1;filter:url(#filter970)" />
          </g>
          <g
             id="g1036"
             transform="translate(253.46217,-729.52444)">
            <path
               style="opacity:1;fill:#3a34b4;fill-opacity:1;stroke:#040000;stroke-width:6.15657425;stroke-miterlimit:4;stroke-dasharray:none;stroke-dashoffset:0;stroke-opacity:1"
               d="m 2124.0076,959.42312 h 302.4565 c 3.926,0 8.4257,3.39604 7.0867,7.08663 l -105.8944,291.86705 c -1.339,3.6906 -3.1607,7.0866 -7.0867,7.0866 h -302.4565 c -3.926,0 -8.4256,-3.396 -7.0866,-7.0866 L 2116.921,966.50975 c 1.339,-3.69059 3.1606,-7.08663 7.0866,-7.08663 z"
               id="path1032"
               inkscape:connector-curvature="0"
               sodipodi:nodetypes="sssssssss" />
            <path
               style="opacity:0.16400003;fill:#b4b1fc;fill-opacity:1;stroke:none;stroke-width:5.97344685;stroke-miterlimit:4;stroke-dasharray:none;stroke-dashoffset:0;stroke-opacity:1;filter:url(#filter970)"
               d="m 2127.984,961.25034 h 293.4599 c 3.8096,0 8.1915,3.30105 6.8759,6.87584 l -104.3816,283.62692 c -1.3156,3.5749 -3.0663,6.876 -6.8759,6.876 -46.008,-129.782 -46.8161,-217.2762 -195.9538,-290.50292 0,-3.8092 3.0663,-6.87584 6.8755,-6.87584 z"
               id="path1034"
               inkscape:connector-curvature="0"
               sodipodi:nodetypes="ssssccs" />
          </g>
          <g
             transform="translate(380.2213,-1077.7923)"
             id="g1042">
            <path
               sodipodi:nodetypes="sssssssss"
               inkscape:connector-curvature="0"
               id="path1038"
               d="m 2124.0076,959.42312 h 302.4565 c 3.926,0 8.4257,3.39604 7.0867,7.08663 l -105.8944,291.86705 c -1.339,3.6906 -3.1607,7.0866 -7.0867,7.0866 h -302.4565 c -3.926,0 -8.4256,-3.396 -7.0866,-7.0866 L 2116.921,966.50975 c 1.339,-3.69059 3.1606,-7.08663 7.0866,-7.08663 z"
               style="opacity:1;fill:#3a34b4;fill-opacity:1;stroke:#040000;stroke-width:6.15657425;stroke-miterlimit:4;stroke-dasharray:none;stroke-dashoffset:0;stroke-opacity:1" />
            <path
               sodipodi:nodetypes="ssssccs"
               inkscape:connector-curvature="0"
               id="path1040"
               d="m 2127.984,961.25034 h 293.4599 c 3.8096,0 8.1915,3.30105 6.8759,6.87584 l -104.3816,283.62692 c -1.3156,3.5749 -3.0663,6.876 -6.8759,6.876 -46.008,-129.782 -46.8161,-217.2762 -195.9538,-290.50292 0,-3.8092 3.0663,-6.87584 6.8755,-6.87584 z"
               style="opacity:0.16400003;fill:#b4b1fc;fill-opacity:1;stroke:none;stroke-width:5.97344685;stroke-miterlimit:4;stroke-dasharray:none;stroke-dashoffset:0;stroke-opacity:1;filter:url(#filter970)" />
          </g>
          <g
             id="g1048"
             transform="translate(506.98042,-1426.0601)">
            <path
               style="opacity:1;fill:#3a34b4;fill-opacity:1;stroke:#040000;stroke-width:6.15657425;stroke-miterlimit:4;stroke-dasharray:none;stroke-dashoffset:0;stroke-opacity:1"
               d="m 2124.0076,959.42312 h 302.4565 c 3.926,0 8.4257,3.39604 7.0867,7.08663 l -105.8944,291.86705 c -1.339,3.6906 -3.1607,7.0866 -7.0867,7.0866 h -302.4565 c -3.926,0 -8.4256,-3.396 -7.0866,-7.0866 L 2116.921,966.50975 c 1.339,-3.69059 3.1606,-7.08663 7.0866,-7.08663 z"
               id="path1044"
               inkscape:connector-curvature="0"
               sodipodi:nodetypes="sssssssss" />
            <path
               style="opacity:0.16400003;fill:#b4b1fc;fill-opacity:1;stroke:none;stroke-width:5.97344685;stroke-miterlimit:4;stroke-dasharray:none;stroke-dashoffset:0;stroke-opacity:1;filter:url(#filter970)"
               d="m 2127.984,961.25034 h 293.4599 c 3.8096,0 8.1915,3.30105 6.8759,6.87584 l -104.3816,283.62692 c -1.3156,3.5749 -3.0663,6.876 -6.8759,6.876 -46.008,-129.782 -46.8161,-217.2762 -195.9538,-290.50292 0,-3.8092 3.0663,-6.87584 6.8755,-6.87584 z"
               id="path1046"
               inkscape:connector-curvature="0"
               sodipodi:nodetypes="ssssccs" />
          </g>
        </g>
        <g
           id="g1082"
           transform="translate(1207.433,-136.92097)">
          <g
             id="g1056"
             transform="translate(-0.05606302,-32.988811)">
            <path
               sodipodi:nodetypes="sssssssss"
               inkscape:connector-curvature="0"
               id="path1052"
               d="m 2124.0076,959.42312 h 302.4565 c 3.926,0 8.4257,3.39604 7.0867,7.08663 l -105.8944,291.86705 c -1.339,3.6906 -3.1607,7.0866 -7.0867,7.0866 h -302.4565 c -3.926,0 -8.4256,-3.396 -7.0866,-7.0866 L 2116.921,966.50975 c 1.339,-3.69059 3.1606,-7.08663 7.0866,-7.08663 z"
               style="opacity:1;fill:#3a34b4;fill-opacity:1;stroke:#040000;stroke-width:6.15657425;stroke-miterlimit:4;stroke-dasharray:none;stroke-dashoffset:0;stroke-opacity:1" />
            <path
               sodipodi:nodetypes="ssssccs"
               inkscape:connector-curvature="0"
               id="path1054"
               d="m 2127.984,961.25034 h 293.4599 c 3.8096,0 8.1915,3.30105 6.8759,6.87584 l -104.3816,283.62692 c -1.3156,3.5749 -3.0663,6.876 -6.8759,6.876 -46.008,-129.782 -46.8161,-217.2762 -195.9538,-290.50292 0,-3.8092 3.0663,-6.87584 6.8755,-6.87584 z"
               style="opacity:0.16400003;fill:#b4b1fc;fill-opacity:1;stroke:none;stroke-width:5.97344685;stroke-miterlimit:4;stroke-dasharray:none;stroke-dashoffset:0;stroke-opacity:1;filter:url(#filter970)" />
          </g>
          <g
             id="g1062"
             transform="translate(126.70305,-381.25661)">
            <path
               style="opacity:1;fill:#3a34b4;fill-opacity:1;stroke:#040000;stroke-width:6.15657425;stroke-miterlimit:4;stroke-dasharray:none;stroke-dashoffset:0;stroke-opacity:1"
               d="m 2124.0076,959.42312 h 302.4565 c 3.926,0 8.4257,3.39604 7.0867,7.08663 l -105.8944,291.86705 c -1.339,3.6906 -3.1607,7.0866 -7.0867,7.0866 h -302.4565 c -3.926,0 -8.4256,-3.396 -7.0866,-7.0866 L 2116.921,966.50975 c 1.339,-3.69059 3.1606,-7.08663 7.0866,-7.08663 z"
               id="path1058"
               inkscape:connector-curvature="0"
               sodipodi:nodetypes="sssssssss" />
            <path
               style="opacity:0.16400003;fill:#b4b1fc;fill-opacity:1;stroke:none;stroke-width:5.97344685;stroke-miterlimit:4;stroke-dasharray:none;stroke-dashoffset:0;stroke-opacity:1;filter:url(#filter970)"
               d="m 2127.984,961.25034 h 293.4599 c 3.8096,0 8.1915,3.30105 6.8759,6.87584 l -104.3816,283.62692 c -1.3156,3.5749 -3.0663,6.876 -6.8759,6.876 -46.008,-129.782 -46.8161,-217.2762 -195.9538,-290.50292 0,-3.8092 3.0663,-6.87584 6.8755,-6.87584 z"
               id="path1060"
               inkscape:connector-curvature="0"
               sodipodi:nodetypes="ssssccs" />
          </g>
          <g
             transform="translate(253.46217,-729.52444)"
             id="g1068">
            <path
               sodipodi:nodetypes="sssssssss"
               inkscape:connector-curvature="0"
               id="path1064"
               d="m 2124.0076,959.42312 h 302.4565 c 3.926,0 8.4257,3.39604 7.0867,7.08663 l -105.8944,291.86705 c -1.339,3.6906 -3.1607,7.0866 -7.0867,7.0866 h -302.4565 c -3.926,0 -8.4256,-3.396 -7.0866,-7.0866 L 2116.921,966.50975 c 1.339,-3.69059 3.1606,-7.08663 7.0866,-7.08663 z"
               style="opacity:1;fill:#3a34b4;fill-opacity:1;stroke:#040000;stroke-width:6.15657425;stroke-miterlimit:4;stroke-dasharray:none;stroke-dashoffset:0;stroke-opacity:1" />
            <path
               sodipodi:nodetypes="ssssccs"
               inkscape:connector-curvature="0"
               id="path1066"
               d="m 2127.984,961.25034 h 293.4599 c 3.8096,0 8.1915,3.30105 6.8759,6.87584 l -104.3816,283.62692 c -1.3156,3.5749 -3.0663,6.876 -6.8759,6.876 -46.008,-129.782 -46.8161,-217.2762 -195.9538,-290.50292 0,-3.8092 3.0663,-6.87584 6.8755,-6.87584 z"
               style="opacity:0.16400003;fill:#b4b1fc;fill-opacity:1;stroke:none;stroke-width:5.97344685;stroke-miterlimit:4;stroke-dasharray:none;stroke-dashoffset:0;stroke-opacity:1;filter:url(#filter970)" />
          </g>
          <g
             id="g1074"
             transform="translate(380.2213,-1077.7923)">
            <path
               style="opacity:1;fill:#3a34b4;fill-opacity:1;stroke:#040000;stroke-width:6.15657425;stroke-miterlimit:4;stroke-dasharray:none;stroke-dashoffset:0;stroke-opacity:1"
               d="m 2124.0076,959.42312 h 302.4565 c 3.926,0 8.4257,3.39604 7.0867,7.08663 l -105.8944,291.86705 c -1.339,3.6906 -3.1607,7.0866 -7.0867,7.0866 h -302.4565 c -3.926,0 -8.4256,-3.396 -7.0866,-7.0866 L 2116.921,966.50975 c 1.339,-3.69059 3.1606,-7.08663 7.0866,-7.08663 z"
               id="path1070"
               inkscape:connector-curvature="0"
               sodipodi:nodetypes="sssssssss" />
            <path
               style="opacity:0.16400003;fill:#b4b1fc;fill-opacity:1;stroke:none;stroke-width:5.97344685;stroke-miterlimit:4;stroke-dasharray:none;stroke-dashoffset:0;stroke-opacity:1;filter:url(#filter970)"
               d="m 2127.984,961.25034 h 293.4599 c 3.8096,0 8.1915,3.30105 6.8759,6.87584 l -104.3816,283.62692 c -1.3156,3.5749 -3.0663,6.876 -6.8759,6.876 -46.008,-129.782 -46.8161,-217.2762 -195.9538,-290.50292 0,-3.8092 3.0663,-6.87584 6.8755,-6.87584 z"
               id="path1072"
               inkscape:connector-curvature="0"
               sodipodi:nodetypes="ssssccs" />
          </g>
          <g
             transform="translate(506.98042,-1426.0601)"
             id="g1080">
            <path
               sodipodi:nodetypes="sssssssss"
               inkscape:connector-curvature="0"
               id="path1076"
               d="m 2124.0076,959.42312 h 302.4565 c 3.926,0 8.4257,3.39604 7.0867,7.08663 l -105.8944,291.86705 c -1.339,3.6906 -3.1607,7.0866 -7.0867,7.0866 h -302.4565 c -3.926,0 -8.4256,-3.396 -7.0866,-7.0866 L 2116.921,966.50975 c 1.339,-3.69059 3.1606,-7.08663 7.0866,-7.08663 z"
               style="opacity:1;fill:#3a34b4;fill-opacity:1;stroke:#040000;stroke-width:6.15657425;stroke-miterlimit:4;stroke-dasharray:none;stroke-dashoffset:0;stroke-opacity:1" />
            <path
               sodipodi:nodetypes="ssssccs"
               inkscape:connector-curvature="0"
               id="path1078"
               d="m 2127.984,961.25034 h 293.4599 c 3.8096,0 8.1915,3.30105 6.8759,6.87584 l -104.3816,283.62692 c -1.3156,3.5749 -3.0663,6.876 -6.8759,6.876 -46.008,-129.782 -46.8161,-217.2762 -195.9538,-290.50292 0,-3.8092 3.0663,-6.87584 6.8755,-6.87584 z"
               style="opacity:0.16400003;fill:#b4b1fc;fill-opacity:1;stroke:none;stroke-width:5.97344685;stroke-miterlimit:4;stroke-dasharray:none;stroke-dashoffset:0;stroke-opacity:1;filter:url(#filter970)" />
          </g>
        </g>
        <g
           transform="translate(1588.6529,-136.92097)"
           id="g1114">
          <g
             transform="translate(-0.05606302,-32.988811)"
             id="g1088">
            <path
               style="opacity:1;fill:#3a34b4;fill-opacity:1;stroke:#040000;stroke-width:6.15657425;stroke-miterlimit:4;stroke-dasharray:none;stroke-dashoffset:0;stroke-opacity:1"
               d="m 2124.0076,959.42312 h 302.4565 c 3.926,0 8.4257,3.39604 7.0867,7.08663 l -105.8944,291.86705 c -1.339,3.6906 -3.1607,7.0866 -7.0867,7.0866 h -302.4565 c -3.926,0 -8.4256,-3.396 -7.0866,-7.0866 L 2116.921,966.50975 c 1.339,-3.69059 3.1606,-7.08663 7.0866,-7.08663 z"
               id="path1084"
               inkscape:connector-curvature="0"
               sodipodi:nodetypes="sssssssss" />
            <path
               style="opacity:0.16400003;fill:#b4b1fc;fill-opacity:1;stroke:none;stroke-width:5.97344685;stroke-miterlimit:4;stroke-dasharray:none;stroke-dashoffset:0;stroke-opacity:1;filter:url(#filter970)"
               d="m 2127.984,961.25034 h 293.4599 c 3.8096,0 8.1915,3.30105 6.8759,6.87584 l -104.3816,283.62692 c -1.3156,3.5749 -3.0663,6.876 -6.8759,6.876 -46.008,-129.782 -46.8161,-217.2762 -195.9538,-290.50292 0,-3.8092 3.0663,-6.87584 6.8755,-6.87584 z"
               id="path1086"
               inkscape:connector-curvature="0"
               sodipodi:nodetypes="ssssccs" />
          </g>
          <g
             transform="translate(126.70305,-381.25661)"
             id="g1094">
            <path
               sodipodi:nodetypes="sssssssss"
               inkscape:connector-curvature="0"
               id="path1090"
               d="m 2124.0076,959.42312 h 302.4565 c 3.926,0 8.4257,3.39604 7.0867,7.08663 l -105.8944,291.86705 c -1.339,3.6906 -3.1607,7.0866 -7.0867,7.0866 h -302.4565 c -3.926,0 -8.4256,-3.396 -7.0866,-7.0866 L 2116.921,966.50975 c 1.339,-3.69059 3.1606,-7.08663 7.0866,-7.08663 z"
               style="opacity:1;fill:#3a34b4;fill-opacity:1;stroke:#040000;stroke-width:6.15657425;stroke-miterlimit:4;stroke-dasharray:none;stroke-dashoffset:0;stroke-opacity:1" />
            <path
               sodipodi:nodetypes="ssssccs"
               inkscape:connector-curvature="0"
               id="path1092"
               d="m 2127.984,961.25034 h 293.4599 c 3.8096,0 8.1915,3.30105 6.8759,6.87584 l -104.3816,283.62692 c -1.3156,3.5749 -3.0663,6.876 -6.8759,6.876 -46.008,-129.782 -46.8161,-217.2762 -195.9538,-290.50292 0,-3.8092 3.0663,-6.87584 6.8755,-6.87584 z"
               style="opacity:0.16400003;fill:#b4b1fc;fill-opacity:1;stroke:none;stroke-width:5.97344685;stroke-miterlimit:4;stroke-dasharray:none;stroke-dashoffset:0;stroke-opacity:1;filter:url(#filter970)" />
          </g>
          <g
             id="g1100"
             transform="translate(253.46217,-729.52444)">
            <path
               style="opacity:1;fill:#3a34b4;fill-opacity:1;stroke:#040000;stroke-width:6.15657425;stroke-miterlimit:4;stroke-dasharray:none;stroke-dashoffset:0;stroke-opacity:1"
               d="m 2124.0076,959.42312 h 302.4565 c 3.926,0 8.4257,3.39604 7.0867,7.08663 l -105.8944,291.86705 c -1.339,3.6906 -3.1607,7.0866 -7.0867,7.0866 h -302.4565 c -3.926,0 -8.4256,-3.396 -7.0866,-7.0866 L 2116.921,966.50975 c 1.339,-3.69059 3.1606,-7.08663 7.0866,-7.08663 z"
               id="path1096"
               inkscape:connector-curvature="0"
               sodipodi:nodetypes="sssssssss" />
            <path
               style="opacity:0.16400003;fill:#b4b1fc;fill-opacity:1;stroke:none;stroke-width:5.97344685;stroke-miterlimit:4;stroke-dasharray:none;stroke-dashoffset:0;stroke-opacity:1;filter:url(#filter970)"
               d="m 2127.984,961.25034 h 293.4599 c 3.8096,0 8.1915,3.30105 6.8759,6.87584 l -104.3816,283.62692 c -1.3156,3.5749 -3.0663,6.876 -6.8759,6.876 -46.008,-129.782 -46.8161,-217.2762 -195.9538,-290.50292 0,-3.8092 3.0663,-6.87584 6.8755,-6.87584 z"
               id="path1098"
               inkscape:connector-curvature="0"
               sodipodi:nodetypes="ssssccs" />
          </g>
          <g
             transform="translate(380.2213,-1077.7923)"
             id="g1106">
            <path
               sodipodi:nodetypes="sssssssss"
               inkscape:connector-curvature="0"
               id="path1102"
               d="m 2124.0076,959.42312 h 302.4565 c 3.926,0 8.4257,3.39604 7.0867,7.08663 l -105.8944,291.86705 c -1.339,3.6906 -3.1607,7.0866 -7.0867,7.0866 h -302.4565 c -3.926,0 -8.4256,-3.396 -7.0866,-7.0866 L 2116.921,966.50975 c 1.339,-3.69059 3.1606,-7.08663 7.0866,-7.08663 z"
               style="opacity:1;fill:#3a34b4;fill-opacity:1;stroke:#040000;stroke-width:6.15657425;stroke-miterlimit:4;stroke-dasharray:none;stroke-dashoffset:0;stroke-opacity:1" />
            <path
               sodipodi:nodetypes="ssssccs"
               inkscape:connector-curvature="0"
               id="path1104"
               d="m 2127.984,961.25034 h 293.4599 c 3.8096,0 8.1915,3.30105 6.8759,6.87584 l -104.3816,283.62692 c -1.3156,3.5749 -3.0663,6.876 -6.8759,6.876 -46.008,-129.782 -46.8161,-217.2762 -195.9538,-290.50292 0,-3.8092 3.0663,-6.87584 6.8755,-6.87584 z"
               style="opacity:0.16400003;fill:#b4b1fc;fill-opacity:1;stroke:none;stroke-width:5.97344685;stroke-miterlimit:4;stroke-dasharray:none;stroke-dashoffset:0;stroke-opacity:1;filter:url(#filter970)" />
          </g>
          <g
             id="g1112"
             transform="translate(506.98042,-1426.0601)">
            <path
               style="opacity:1;fill:#3a34b4;fill-opacity:1;stroke:#040000;stroke-width:6.15657425;stroke-miterlimit:4;stroke-dasharray:none;stroke-dashoffset:0;stroke-opacity:1"
               d="m 2124.0076,959.42312 h 302.4565 c 3.926,0 8.4257,3.39604 7.0867,7.08663 l -105.8944,291.86705 c -1.339,3.6906 -3.1607,7.0866 -7.0867,7.0866 h -302.4565 c -3.926,0 -8.4256,-3.396 -7.0866,-7.0866 L 2116.921,966.50975 c 1.339,-3.69059 3.1606,-7.08663 7.0866,-7.08663 z"
               id="path1108"
               inkscape:connector-curvature="0"
               sodipodi:nodetypes="sssssssss" />
            <path
               style="opacity:0.16400003;fill:#b4b1fc;fill-opacity:1;stroke:none;stroke-width:5.97344685;stroke-miterlimit:4;stroke-dasharray:none;stroke-dashoffset:0;stroke-opacity:1;filter:url(#filter970)"
               d="m 2127.984,961.25034 h 293.4599 c 3.8096,0 8.1915,3.30105 6.8759,6.87584 l -104.3816,283.62692 c -1.3156,3.5749 -3.0663,6.876 -6.8759,6.876 -46.008,-129.782 -46.8161,-217.2762 -195.9538,-290.50292 0,-3.8092 3.0663,-6.87584 6.8755,-6.87584 z"
               id="path1110"
               inkscape:connector-curvature="0"
               sodipodi:nodetypes="ssssccs" />
          </g>
        </g>
      </g>
    </g>
    <g
       style="stroke:#2ea712;stroke-opacity:1"
       transform="translate(0,-8.5575605)"
       id="g1421">
      <path
         style="fill:none;stroke:#2ea712;stroke-width:14.0625267;stroke-linecap:butt;stroke-linejoin:miter;stroke-miterlimit:4;stroke-dasharray:none;stroke-opacity:1"
         d="m 4262.7349,1191.6545 h 127.2937"
         id="path1412"
         inkscape:connector-curvature="0" />
      <path
         style="fill:none;stroke:#2ea712;stroke-width:14.0625267;stroke-linecap:butt;stroke-linejoin:miter;stroke-miterlimit:4;stroke-dasharray:none;stroke-opacity:1"
         d="m 4299.6394,1216.7924 h 53.4846"
         id="path1414"
         inkscape:connector-curvature="0" />
      <path
         style="fill:none;stroke:#2ea712;stroke-width:14.0625267;stroke-linecap:butt;stroke-linejoin:miter;stroke-miterlimit:4;stroke-dasharray:none;stroke-opacity:1"
         d="m 4318.359,1241.9302 h 16.0454"
         id="path1416"
         inkscape:connector-curvature="0" />
    </g>
    <path
       sodipodi:nodetypes="cc"
       style="fill:none;stroke:#0f16a2;stroke-width:14.0625267;stroke-linecap:butt;stroke-linejoin:miter;stroke-miterlimit:4;stroke-dasharray:none;stroke-opacity:1"
       d="m 4463.0289,965.86833 h 46.8961"
       id="path1429"
       inkscape:connector-curvature="0" />
    <g
       transform="translate(226.8744,-81.689973)"
       id="g1435">
      <path
         style="fill:none;stroke:#ff000d;stroke-width:14.0625267;stroke-linecap:butt;stroke-linejoin:miter;stroke-miterlimit:4;stroke-dasharray:none;stroke-opacity:1"
         d="m 4234.2635,833.53563 h 50.6781"
         id="path1427"
         inkscape:connector-curvature="0"
         sodipodi:nodetypes="cc" />
      <path
         sodipodi:nodetypes="cc"
         inkscape:connector-curvature="0"
         id="path1431"
         d="m 4259.6026,808.19658 v 50.6781"
         style="fill:none;stroke:#ff000d;stroke-width:14.0625267;stroke-linecap:butt;stroke-linejoin:miter;stroke-miterlimit:4;stroke-dasharray:none;stroke-opacity:1" />
    </g>
  </g>
</svg>
