<?xml version="1.0" encoding="UTF-8" standalone="no"?>
<!-- Created with Inkscape (http://www.inkscape.org/) -->

<svg
   width="auto"
   height="auto"
   viewBox="0 0 211.66666 52.916667"
   version="1.1"
   id="svg1"
   xml:space="preserve"
   xmlns:xlink="http://www.w3.org/1999/xlink"
   xmlns="http://www.w3.org/2000/svg"
   xmlns:svg="http://www.w3.org/2000/svg"><defs
     id="defs1" /><g
     id="layer1"
     transform="translate(-4.8732573,-131.21575)"><path
       style="opacity:0.561611;fill:#aa0000;stroke:#aa0000;stroke-linecap:round;stroke-linejoin:round;paint-order:stroke fill markers"
       xlink:href="#path552"
       id="path556"
       d="m -800.69336,179.72852 c -6.56792,0.0516 -10.34564,2.55682 -10.86133,6.43359 -0.77554,5.83007 3.3499,8.0752 8.14258,8.62695 1.8448,0.30735 3.96939,0.6725 5.36914,1.05078 0,0 2.95554,0.74964 3.63477,1.72657 1.74685,4.72775 3.5728,9.44434 5.4375,14.14257 1.25799,3.11777 5.22081,1.74887 5.80273,-0.93164 3.73988,-8.99383 7.47887,-17.9886 11.21875,-26.98242 1.61502,-3.40805 -4.26384,-5.88966 -5.4414,-2.07031 -2.9344,7.0569 -5.87029,14.11302 -8.80469,21.16992 -2.80403,-7.09569 -1.78893,-5.32789 -3.14063,-7.90234 -1.61952,-3.08454 -7.03681,-3.84825 -11.91406,-5.07227 -2.98494,-0.24054 -4.77152,-3.14368 -2.1543,-4.17187 5.76431,-1.18965 3.9793,2.0368 8.99805,1.3125 1.95935,-0.28276 3.56445,-3.69727 3.56445,-3.69727 0,0 -3.28364,-3.6864 -9.85156,-3.63476 z"
       transform="translate(24.116899,-26.455507)" /><path
       id="path642"
       style="font-size:27.9525px;font-family:'Fredoka One';-inkscape-font-specification:'Fredoka One';letter-spacing:0px;fill:currentColor;stroke-width:0.264583;stroke-dasharray:none;stroke-opacity:0.501272"
       d="m 132.60803,147.88155 c -1.35338,0 -2.17821,0.22169 -2.47427,0.66507 -0.14802,0.24633 -0.24296,0.46802 -0.28525,0.66508 -0.0212,0.18064 -0.032,0.45998 -0.032,0.83767 v 11.72487 c 0,1.75712 0.29621,3.038 0.88832,3.84266 0.48637,0.67329 1.54361,1.09204 3.1719,1.25625 2.07237,0.19706 3.38328,0.1478 3.93309,-0.14779 0.42293,-0.2299 0.63459,-0.86196 0.63459,-1.89653 0,-0.95245 -0.21166,-1.53524 -0.63459,-1.74873 -0.21147,-0.11495 -0.39096,-0.18098 -0.53898,-0.1974 -0.14803,-0.0328 -0.44424,-0.0491 -0.88832,-0.0491 -0.42294,0 -0.69788,-0.0739 -0.82476,-0.22169 -0.12688,-0.16422 -0.19017,-0.54209 -0.19017,-1.13327 v -11.40447 c 0,-0.3777 -0.0213,-0.66542 -0.0636,-0.86248 -0.0211,-0.19706 -0.11608,-0.41875 -0.28525,-0.66508 -0.3172,-0.44338 -1.12076,-0.66507 -2.41071,-0.66507 z m 41.10912,0.0496 c -1.35339,0 -2.17822,0.22169 -2.47427,0.66507 -0.14802,0.22991 -0.24296,0.44321 -0.28525,0.64027 -0.0212,0.18064 -0.032,0.45998 -0.032,0.83768 0,0.3777 0.0109,0.6649 0.032,0.86196 0.0423,0.18064 0.13723,0.39395 0.28525,0.64027 0.16917,0.24633 0.45449,0.41875 0.85628,0.51728 0.40179,0.0985 0.9304,0.1478 1.58595,0.1478 0.67669,0 1.2162,-0.0493 1.61799,-0.1478 0.40178,-0.0985 0.67673,-0.26257 0.82475,-0.49247 0.16918,-0.24633 0.26411,-0.45963 0.28526,-0.64027 0.0423,-0.19706 0.0636,-0.48478 0.0636,-0.86248 0,-0.3777 -0.0213,-0.65652 -0.0636,-0.83716 -0.0212,-0.19706 -0.11608,-0.41875 -0.28526,-0.66508 -0.2749,-0.44338 -1.07846,-0.66507 -2.4107,-0.66507 z M 73.545487,142.76012 c -2.389569,0 -4.282529,0.71267 -5.678206,2.13803 -1.374531,1.40377 -2.06189,3.05588 -2.06189,4.95634 0,1.38217 0.264567,2.57042 0.793233,3.56385 0.549813,0.97183 1.226279,1.6845 2.029851,2.13803 0.803572,0.45352 1.670939,0.8526 2.601391,1.19813 0.930452,0.32396 1.797303,0.56174 2.600875,0.71291 0.803572,0.15118 1.469662,0.39931 1.998327,0.74484 0.549813,0.32395 0.824756,0.73473 0.824756,1.23145 0,1.64131 -0.983054,2.46152 -2.94969,2.46152 -0.465226,0 -0.973092,-0.16197 -1.522905,-0.48592 -0.549812,-0.34553 -0.972603,-0.70188 -1.268656,-1.06902 -1.057332,-1.07981 -1.882162,-1.61949 -2.474268,-1.61949 -0.592105,0 -1.152368,0.25915 -1.681034,0.77747 -0.909305,0.90704 -1.363741,1.64109 -1.363741,2.20259 0,0.53991 0.274427,1.1554 0.824239,1.84648 l 0.285771,0.35679 c 0.444079,0.64789 1.226372,1.31715 2.347143,2.00823 0.549813,0.36714 1.268816,0.68005 2.156974,0.93921 0.888159,0.23756 1.829192,0.35679 2.823084,0.35679 1.94549,0 3.774643,-0.57274 5.48752,-1.71735 0.888159,-0.58311 1.607162,-1.40331 2.156974,-2.46152 0.549813,-1.07982 0.824756,-2.32183 0.824756,-3.72558 0,-1.40377 -0.274943,-2.58099 -0.824756,-3.53122 -0.528665,-0.97183 -1.194755,-1.65211 -1.998327,-2.04085 -0.803572,-0.38873 -1.681316,-0.71268 -2.632914,-0.97184 -0.951599,-0.28075 -1.828826,-0.48546 -2.632398,-0.61504 -0.803572,-0.12954 -1.480554,-0.37838 -2.030367,-0.74552 -0.528666,-0.36714 -0.792716,-0.84203 -0.792716,-1.42512 0,-0.6047 0.22203,-1.06925 0.666109,-1.39319 0.465226,-0.34555 1.035865,-0.51787 1.712557,-0.51787 0.697839,0 1.268994,0.13993 1.713074,0.42068 0.148026,0.10797 0.306766,0.24858 0.47594,0.42136 0.190319,0.17277 0.316898,0.28098 0.380338,0.32417 0.655546,0.43193 1.205432,0.64766 1.649512,0.64766 0.761278,0 1.501551,-0.53968 2.220536,-1.61949 0.507519,-0.75588 0.761194,-1.34999 0.761194,-1.78193 0,-0.43192 -0.327857,-0.96125 -0.983403,-1.58755 l -0.792716,-0.61504 c -0.401786,-0.34554 -1.131682,-0.6805 -2.189014,-1.00445 -1.036185,-0.34553 -2.188355,-0.51854 -3.457153,-0.51854 z m 94.135313,0.20446 c -0.42294,0 -0.78244,0.11932 -1.07849,0.35692 -0.27491,0.21603 -0.46529,0.44288 -0.57103,0.68052 -0.10573,0.23765 -0.2432,0.60446 -0.41237,1.10136 l -5.45549,14.79914 c -4.62653,-8.32612 -3.9897,-9.82835 -6.21719,-9.82835 -2.22749,0 -1.30849,1.50223 -6.12159,9.82835 l -6.41996,-14.1179 c -0.21146,-0.71294 -0.45476,-1.24178 -0.72967,-1.58745 -0.25376,-0.34566 -0.63453,-0.51872 -1.14205,-0.51872 -0.48637,0 -1.03626,0.10827 -1.64951,0.32429 -1.41682,0.49689 -2.12493,1.17741 -2.12493,2.04157 0,0.34567 0.1162,0.87451 0.34881,1.58745 l 8.95727,17.37094 0.22221,0.48608 c 0.14803,0.32407 0.43335,0.64812 0.85628,0.97218 0.44408,0.32406 1.00486,0.48609 1.68155,0.48609 0.67669,0 1.25823,-0.24821 1.7446,-0.74511 0.19032,-0.19444 0.35943,-0.41025 0.50746,-0.6479 0.14803,-0.23764 0.24296,-0.42172 0.28525,-0.55134 0.0423,-0.12959 0,0 3.58428,-6.58983 l 3.7114,6.94674 c 0.14803,0.34566 0.44424,0.70213 0.88832,1.0694 0.46523,0.34566 1.00422,0.51804 1.61747,0.51804 0.6344,0 1.17391,-0.17238 1.61799,-0.51804 0.46523,-0.36727 0.75055,-0.65892 0.85628,-0.87497 0.10573,-0.21604 0.17992,-0.40012 0.22221,-0.55134 l 8.05636,-18.05218 c 0.25376,-0.77775 0.38085,-1.3066 0.38085,-1.58745 0,-0.86416 -0.70863,-1.55571 -2.12545,-2.07421 -0.57096,-0.21603 -1.06793,-0.32428 -1.49086,-0.32428 z m 35.40872,10.75485 c -2.57989,0 -4.7369,0.6242 -6.47093,1.87224 -1.71287,1.23163 -2.56883,2.88199 -2.56883,4.95112 0,1.64217 0.66609,3.12849 1.99833,4.45864 0.67669,0.68971 1.61772,1.24787 2.82308,1.67484 1.2265,0.41054 2.62197,0.61598 4.18682,0.61598 4.50424,0 6.75618,-0.7311 6.75618,-2.19263 0,-0.31201 -0.13747,-0.68936 -0.41238,-1.13275 -0.48637,-0.73897 -1.0679,-1.10846 -1.74459,-1.10846 -0.33835,0 -0.76114,0.0901 -1.26866,0.27079 l -0.34882,0.0987 c -0.69784,0.19706 -1.66014,0.29559 -2.88664,0.29559 -0.69784,0 -1.39558,-0.15618 -2.09341,-0.46819 -0.69784,-0.31201 -1.04697,-0.69775 -1.04697,-1.15755 h 7.51789 c 0.78242,0 1.49053,-0.23846 2.12493,-0.71469 0.65555,-0.49265 0.98341,-1.23948 0.98341,-2.2412 0,-1.01815 -0.35951,-1.95418 -1.07849,-2.8081 -1.37453,-1.60932 -3.53154,-2.41433 -6.47092,-2.41433 z m -0.0951,3.89227 c 0.69784,0 1.22646,0.11478 1.58595,0.34469 0.38064,0.2299 0.57103,0.53387 0.57103,0.91157 0,0.52549 -0.40153,0.78806 -1.2051,0.78806 h -3.99665 c 0,-0.49265 0.33823,-0.95228 1.01492,-1.37924 0.67669,-0.44338 1.35316,-0.66508 2.02985,-0.66508 z m -17.00205,-3.86746 c -4.58882,0 -6.88279,1.29713 -6.88279,3.89175 0,0.87035 0.20077,1.62609 0.60255,2.26653 0.40179,0.62402 0.90914,1.08365 1.52239,1.37924 1.31109,0.62403 2.63289,1.00976 3.96513,1.15756 1.41683,0.14779 2.12545,0.37787 2.12545,0.68988 0,0.39412 -0.64533,0.59117 -1.93528,0.59117 -0.71898,0 -1.52255,-0.19705 -2.4107,-0.59117 -0.88816,-0.41054 -1.59627,-0.61599 -2.12494,-0.61599 -0.50752,0 -0.87791,0.13993 -1.11053,0.4191 -0.80357,0.87035 -1.20509,1.51865 -1.20509,1.94562 0,0.42696 0.20076,0.73931 0.60255,0.93637 1.88205,0.91962 3.8383,1.37925 5.86837,1.37925 2.05123,0 3.75328,-0.25471 5.10667,-0.76378 0.74013,-0.29559 1.31129,-0.73897 1.71307,-1.33015 0.42293,-0.6076 0.63407,-1.33819 0.63407,-2.19212 0,-0.85392 -0.21114,-1.55988 -0.63407,-2.11821 -0.40178,-0.57476 -0.90965,-0.97726 -1.5229,-1.20716 -1.31109,-0.50907 -2.66403,-0.82091 -4.0597,-0.93586 -1.43797,-0.1478 -2.15698,-0.46802 -2.15698,-0.96067 0,-0.36128 0.62355,-0.54208 1.87121,-0.54208 0.80357,0 1.54384,0.12316 2.22053,0.36948 0.69784,0.24633 1.17355,0.36949 1.42731,0.36949 0.48637,0 0.96207,-0.28721 1.4273,-0.86196 0.46522,-0.57476 0.69815,-1.05954 0.69815,-1.45366 0,-0.39412 -0.3704,-0.72221 -1.11053,-0.98496 -1.586,-0.55833 -3.12983,-0.83767 -4.63124,-0.83767 z m -92.590214,0.22169 c -1.395678,0 -2.590386,0.5828 -3.584277,1.74873 0,-0.55833 -0.18001,-0.98495 -0.539502,-1.28054 -0.359493,-0.29559 -1.13141,-0.44338 -2.315621,-0.44338 -1.184212,0 -1.93486,0.22169 -2.252059,0.66507 -0.169173,0.2299 -0.275,0.44321 -0.317293,0.64027 -0.02115,0.18064 -0.03152,0.45998 -0.03152,0.83768 v 8.67027 c 0,0.39412 0.01038,0.68184 0.03152,0.86248 0.04229,0.18064 0.137744,0.39395 0.28577,0.64027 0.296053,0.44338 1.109991,0.66508 2.442228,0.66508 1.332238,0 2.157068,-0.21331 2.474268,-0.64028 0.169173,-0.24632 0.264107,-0.46014 0.285254,-0.64078 0.04229,-0.19706 0.06356,-0.48427 0.06356,-0.86197 v -4.35994 c 0,-1.42868 0.634445,-2.14302 1.903243,-2.14302 1.311091,0 1.966805,0.71434 1.966805,2.14302 v 4.31085 c 0,0.3777 0.01038,0.6649 0.03152,0.86196 0.04229,0.18064 0.137745,0.39395 0.285771,0.64028 0.296053,0.4598 1.10999,0.68988 2.442228,0.68988 1.353385,0 2.178219,-0.2217 2.474269,-0.66508 0.16918,-0.24632 0.26411,-0.45963 0.28526,-0.64027 0.0423,-0.18064 0.0636,-0.46836 0.0636,-0.86248 v -4.31033 c 0,-0.68971 0.12709,-1.22376 0.38085,-1.60145 0.27491,-0.3777 0.78226,-0.56638 1.52239,-0.56638 1.31109,0 1.96681,0.71434 1.96681,2.14302 v 4.31085 c 0,0.3777 0.0104,0.6649 0.0315,0.86196 0.0423,0.18064 0.13723,0.39395 0.28525,0.64028 0.29606,0.4598 1.11051,0.68988 2.44275,0.68988 1.35338,0 2.16732,-0.2217 2.44223,-0.66508 0.16917,-0.24632 0.26462,-0.45963 0.28577,-0.64027 0.0423,-0.19706 0.063,-0.48478 0.063,-0.86248 v -4.31033 c 0,-2.33188 -0.57064,-3.99901 -1.71255,-5.00073 -1.14192,-1.01814 -2.55866,-1.52704 -4.25039,-1.52704 -0.76128,0 -1.50155,0.16405 -2.22054,0.49248 -0.71898,0.31201 -1.2476,0.6076 -1.58595,0.88677 -0.3172,0.26274 -0.59214,0.51745 -0.824757,0.76377 -1.057332,-1.42868 -2.664455,-2.14302 -4.821411,-2.14302 z m 20.395654,0.0248 c -1.12077,0 -1.82888,0.22169 -2.12493,0.66507 -0.14803,0.2299 -0.24348,0.43483 -0.28578,0.61547 -0.0211,0.18064 -0.0315,0.45998 -0.0315,0.83767 v 14.38517 c 0,0.3777 0.0104,0.65704 0.0315,0.83768 0.0423,0.18063 0.13775,0.38608 0.28578,0.61598 0.16917,0.2299 0.44411,0.39395 0.82475,0.49248 0.40179,0.0985 0.9304,0.14779 1.58595,0.14779 0.65555,0 1.17327,-0.0493 1.55391,-0.14779 0.38064,-0.0985 0.64521,-0.27096 0.79323,-0.51729 0.16918,-0.2299 0.26411,-0.43534 0.28526,-0.61598 0.0423,-0.18064 0.0636,-0.45946 0.0636,-0.83716 v -4.97592 c 0.78243,0.7554 2.04094,1.13326 3.77496,1.13326 1.73403,0 3.3619,-0.63257 4.88446,-1.89704 1.5437,-1.26446 2.31562,-2.73402 2.31562,-4.40903 0,-1.67501 -0.77192,-3.14457 -2.31562,-4.40903 -1.5437,-1.26447 -3.18247,-1.89705 -4.9165,-1.89705 -1.71287,0 -2.97087,0.42714 -3.77444,1.28106 -0.0634,-0.42696 -0.29637,-0.74718 -0.69815,-0.96066 -0.38064,-0.22991 -1.13129,-0.34468 -2.25206,-0.34468 z m 5.77329,4.23643 c 0.82472,0 1.49081,0.22169 1.99833,0.66508 0.50752,0.42696 0.76119,0.91174 0.76119,1.45365 0,0.54192 -0.27494,1.02618 -0.82475,1.45315 -0.52867,0.42696 -1.18438,0.64027 -1.96681,0.64027 -0.76128,0 -1.39521,-0.21331 -1.90272,-0.64027 -0.48638,-0.44339 -0.72968,-0.92765 -0.72968,-1.45315 0,-0.52549 0.2433,-1.01027 0.72968,-1.45365 0.48637,-0.44339 1.13119,-0.66508 1.93476,-0.66508 z m 54.14605,-4.21215 c -1.35339,0 -2.17822,0.21383 -2.47427,0.64079 -0.14802,0.24633 -0.24296,0.46802 -0.28525,0.66508 -0.0212,0.18064 -0.032,0.45946 -0.032,0.83716 v 8.64598 c 0,0.39412 0.0109,0.68184 0.032,0.86248 0.0423,0.18064 0.13723,0.39395 0.28525,0.64027 0.29605,0.44338 1.10999,0.66508 2.44223,0.66508 1.35338,0 2.16784,-0.21331 2.44274,-0.64028 0.16918,-0.24632 0.26411,-0.46014 0.28526,-0.64078 0.0423,-0.19706 0.0636,-0.48427 0.0636,-0.86197 v -8.62117 c 0,-0.31202 -0.0104,-0.55047 -0.0315,-0.71469 -0.0212,-0.47623 -0.21153,-0.82895 -0.57103,-1.05885 -0.42293,-0.27917 -1.14193,-0.4191 -2.15697,-0.4191 z" /><path
       id="path713"
       style="color:currentColor;fill:currentColor;stroke-width:0.860848;stroke-linecap:round;stroke-linejoin:round;stroke-dasharray:none;paint-order:stroke fill markers"
       d="m 30.098891,165.20363 -2.332464,-4.68795 c -0.421315,-0.54008 -0.715288,0 -1.764305,0.32449 -0.885919,0.27403 -1.880482,1.24451 -3.810486,0.38745 -0.347346,-0.15426 -0.892686,-0.4654 -1.202031,-0.71194 -0.676457,-0.53916 -1.227222,-1.21685 -2.175788,-1.72548 -0.234757,-0.12588 -0.639096,-0.23466 -0.895152,-0.2539 -2.146788,-0.1613 -3.110159,0.63217 -3.764395,2.0977 -0.122745,0.27492 -0.303007,0.74737 -0.303081,1.05825 -4.4e-4,1.86017 3.008461,4.0831 4.541345,4.50209 3.709238,1.01383 5.901458,1.44978 8.952578,0.49662 1.067377,-0.33344 1.987532,-0.84558 2.753779,-1.48733 z M 23.777115,141.99 l 5.42e-4,5e-4 v 5.2e-4 l -0.552489,0.0107 c -4.952125,0.1509 -7.903751,1.71336 -9.062103,5.77211 -1.264264,5.88487 3.569149,8.47421 7.426328,9.01639 1.162169,0.2364 2.651766,0.60621 3.615298,0.98766 0.963533,0.38145 2.048596,0.79177 2.814485,1.53238 1.188595,1.40353 2.423032,4.9571 2.423032,4.9571 l 5.42e-4,-5.1e-4 v 0.002 c 0.181784,0.3719 0.363656,0.74374 0.54544,1.11564 1.122657,2.24931 4.658569,1.26104 5.177878,-0.67284 1.28026,-2.48889 2.56061,-4.97773 3.840849,-7.46661 1.326404,2.7133 2.652809,5.4266 3.979106,8.13995 1.122689,2.24934 4.658539,1.26106 5.17788,-0.67283 3.337669,-6.48869 6.675426,-12.97709 10.013096,-19.46577 1.441319,-2.45879 -3.806512,-4.24996 -4.857447,-1.49445 -2.618795,5.09129 -5.238015,10.18265 -7.856822,15.27394 -1.195712,-2.44606 -2.391382,-4.89205 -3.587105,-7.33813 -0.0032,9e-5 -0.0061,-8.4e-4 -0.0087,-0.004 v -5.2e-4 c -0.003,-3e-5 -0.0057,-8.4e-4 -0.0082,-0.004 h -5.43e-4 c 0,0 -0.79016,-1.61608 -1.129916,-2.31098 -0.339757,-0.69488 -0.597142,-1.50959 -1.652584,-1.5706 -1.055444,-0.0611 -1.261101,0.85393 -1.603787,1.52034 l -1.193353,2.32061 c -0.0034,0.006 -0.01169,0.009 -0.01843,0.006 -1.96e-4,-3.3e-4 -3.77e-4,-6.8e-4 -5.42e-4,-8.4e-4 -1.265211,2.45957 -2.530209,4.91921 -3.795305,7.37875 -0.539892,-1.10444 -1.079626,-2.20892 -1.61951,-3.31334 -0.07313,-0.17024 -0.151588,-0.33464 -0.239647,-0.48951 -2.62e-4,-4.7e-4 -2.79e-4,-8.6e-4 -5.42e-4,-0.002 -1.570715,-2.76054 -5.433771,-3.15587 -8.484131,-3.87651 -2.405967,0.17168 -3.630956,-2.42792 -1.524629,-3.43826 4.226598,-1.06505 3.408812,1.47199 6.284483,1.39338 0.529788,-0.0145 1.399899,-0.19381 1.829878,-0.56264 1.153399,-0.98932 1.994704,-3.17321 1.994704,-3.17321 0,0 -2.458042,-3.37133 -7.375904,-3.56469 -0.304684,-0.012 -0.551946,-0.008 -0.551946,-0.008 z" /></g></svg>
