<?xml version="1.0" encoding="UTF-8" standalone="no"?>
<!-- Created with Inkscape (http://www.inkscape.org/) -->

<svg
   width="auto"
   height="auto"
   viewBox="0 0 211.66666 52.916667"
   version="1.1"
   id="svg1"
   xml:space="preserve"
   xmlns:xlink="http://www.w3.org/1999/xlink"
   xmlns="http://www.w3.org/2000/svg"
   xmlns:svg="http://www.w3.org/2000/svg"><defs
     id="defs1" /><g
     id="layer1"
     transform="translate(-4.8732573,-131.21575)"><path
       style="opacity:0.561611;fill:#aa0000;stroke:#aa0000;stroke-linecap:round;stroke-linejoin:round;paint-order:stroke fill markers"
       xlink:href="#path552"
       id="path556"
       d="m -800.69336,179.72852 c -6.56792,0.0516 -10.34564,2.55682 -10.86133,6.43359 -0.77554,5.83007 3.3499,8.0752 8.14258,8.62695 1.8448,0.30735 3.96939,0.6725 5.36914,1.05078 0,0 2.95554,0.74964 3.63477,1.72657 1.74685,4.72775 3.5728,9.44434 5.4375,14.14257 1.25799,3.11777 5.22081,1.74887 5.80273,-0.93164 3.73988,-8.99383 7.47887,-17.9886 11.21875,-26.98242 1.61502,-3.40805 -4.26384,-5.88966 -5.4414,-2.07031 -2.9344,7.0569 -5.87029,14.11302 -8.80469,21.16992 -2.80403,-7.09569 -1.78893,-5.32789 -3.14063,-7.90234 -1.61952,-3.08454 -7.03681,-3.84825 -11.91406,-5.07227 -2.98494,-0.24054 -4.77152,-3.14368 -2.1543,-4.17187 5.76431,-1.18965 3.9793,2.0368 8.99805,1.3125 1.95935,-0.28276 3.56445,-3.69727 3.56445,-3.69727 0,0 -3.28364,-3.6864 -9.85156,-3.63476 z"
       transform="translate(24.116899,-26.455507)" /><g
       id="g657"
       transform="translate(0,2.561748)"><path
         d="m 175.32125,151.45327 c -1.35339,0 -2.17822,0.21383 -2.47427,0.64079 -0.14802,0.24633 -0.24296,0.46802 -0.28525,0.66508 -0.0212,0.18064 -0.032,0.45946 -0.032,0.83716 v 8.64598 c 0,0.39412 0.0109,0.68184 0.032,0.86248 0.0423,0.18064 0.13723,0.39395 0.28525,0.64027 0.29605,0.44338 1.10999,0.66508 2.44223,0.66508 1.35338,0 2.16784,-0.21331 2.44274,-0.64028 0.16918,-0.24632 0.26411,-0.46014 0.28526,-0.64078 0.0423,-0.19706 0.0636,-0.48427 0.0636,-0.86197 v -8.62117 c 0,-0.31202 -0.0104,-0.55047 -0.0315,-0.71469 -0.0212,-0.47623 -0.21153,-0.82895 -0.57103,-1.05885 -0.42293,-0.27917 -1.14193,-0.4191 -2.15697,-0.4191 z"
         style="font-size:27.9525px;font-family:'Fredoka One';-inkscape-font-specification:'Fredoka One';letter-spacing:0px;fill:currentColor;stroke-width:0.264583;stroke-opacity:0.501272"
         id="path655" /><path
         d="m 175.32125,151.45327 c 1.01504,0 1.73404,0.13993 2.15697,0.4191 0.3595,0.2299 0.54988,0.58262 0.57103,1.05885 0.0211,0.16422 0.0315,0.40267 0.0315,0.71469 v 8.62117 c 0,0.3777 -0.0213,0.66491 -0.0636,0.86197 -0.0212,0.18064 -0.11608,0.39446 -0.28526,0.64078 -0.2749,0.42697 -1.08936,0.64028 -2.44274,0.64028 -1.33224,0 -2.14618,-0.2217 -2.44223,-0.66508 -0.14802,-0.24632 -0.24296,-0.45963 -0.28525,-0.64027 -0.0212,-0.18064 -0.032,-0.46836 -0.032,-0.86248 v -8.64598 c 0,-0.3777 0.0109,-0.65652 0.032,-0.83716 0.0423,-0.19706 0.13723,-0.41875 0.28525,-0.66508 0.29605,-0.42696 1.12088,-0.64079 2.47427,-0.64079 z"
         style="font-size:27.9525px;font-family:'Fredoka One';-inkscape-font-specification:'Fredoka One';letter-spacing:0px;fill:currentColor;stroke-width:0.264583;stroke-opacity:0.501272"
         id="path654" /><path
         d="m 115.40191,151.42899 c -1.12077,0 -1.82888,0.22169 -2.12493,0.66507 -0.14803,0.2299 -0.24348,0.43483 -0.28578,0.61547 -0.0211,0.18064 -0.0315,0.45998 -0.0315,0.83767 v 14.38517 c 0,0.3777 0.0104,0.65704 0.0315,0.83768 0.0423,0.18063 0.13775,0.38608 0.28578,0.61598 0.16917,0.2299 0.44411,0.39395 0.82475,0.49248 0.40179,0.0985 0.9304,0.14779 1.58595,0.14779 0.65555,0 1.17327,-0.0493 1.55391,-0.14779 0.38064,-0.0985 0.64521,-0.27096 0.79323,-0.51729 0.16918,-0.2299 0.26411,-0.43534 0.28526,-0.61598 0.0423,-0.18064 0.0636,-0.45946 0.0636,-0.83716 v -4.97592 c 0.78243,0.7554 2.04094,1.13326 3.77496,1.13326 1.73403,0 3.3619,-0.63257 4.88446,-1.89704 1.5437,-1.26446 2.31562,-2.73402 2.31562,-4.40903 0,-1.67501 -0.77192,-3.14457 -2.31562,-4.40903 -1.5437,-1.26447 -3.18247,-1.89705 -4.9165,-1.89705 -1.71287,0 -2.97087,0.42714 -3.77444,1.28106 -0.0634,-0.42696 -0.29637,-0.74718 -0.69815,-0.96066 -0.38064,-0.22991 -1.13129,-0.34468 -2.25206,-0.34468 z m 5.77329,4.23643 c 0.82472,0 1.49081,0.22169 1.99833,0.66508 0.50752,0.42696 0.76119,0.91174 0.76119,1.45365 0,0.54192 -0.27494,1.02618 -0.82475,1.45315 -0.52867,0.42696 -1.18438,0.64027 -1.96681,0.64027 -0.76128,0 -1.39521,-0.21331 -1.90272,-0.64027 -0.48638,-0.44339 -0.72968,-0.92765 -0.72968,-1.45315 0,-0.52549 0.2433,-1.01027 0.72968,-1.45365 0.48637,-0.44339 1.13119,-0.66508 1.93476,-0.66508 z"
         style="font-size:27.9525px;font-family:'Fredoka One';-inkscape-font-specification:'Fredoka One';letter-spacing:0px;fill:currentColor;stroke-width:0.264583;stroke-opacity:0.501272"
         id="path653" /><path
         d="m 95.006256,151.40418 c -1.395678,0 -2.590386,0.5828 -3.584277,1.74873 0,-0.55833 -0.18001,-0.98495 -0.539502,-1.28054 -0.359493,-0.29559 -1.13141,-0.44338 -2.315621,-0.44338 -1.184212,0 -1.93486,0.22169 -2.252059,0.66507 -0.169173,0.2299 -0.275,0.44321 -0.317293,0.64027 -0.02115,0.18064 -0.03152,0.45998 -0.03152,0.83768 v 8.67027 c 0,0.39412 0.01038,0.68184 0.03152,0.86248 0.04229,0.18064 0.137744,0.39395 0.28577,0.64027 0.296053,0.44338 1.109991,0.66508 2.442228,0.66508 1.332238,0 2.157068,-0.21331 2.474268,-0.64028 0.169173,-0.24632 0.264107,-0.46014 0.285254,-0.64078 0.04229,-0.19706 0.06356,-0.48427 0.06356,-0.86197 v -4.35994 c 0,-1.42868 0.634445,-2.14302 1.903243,-2.14302 1.311091,0 1.966805,0.71434 1.966805,2.14302 v 4.31085 c 0,0.3777 0.01038,0.6649 0.03152,0.86196 0.04229,0.18064 0.137745,0.39395 0.285771,0.64028 0.296053,0.4598 1.10999,0.68988 2.442228,0.68988 1.353385,0 2.178219,-0.2217 2.474269,-0.66508 0.16918,-0.24632 0.26411,-0.45963 0.28526,-0.64027 0.0423,-0.18064 0.0636,-0.46836 0.0636,-0.86248 v -4.31033 c 0,-0.68971 0.12709,-1.22376 0.38085,-1.60145 0.27491,-0.3777 0.78226,-0.56638 1.52239,-0.56638 1.31109,0 1.96681,0.71434 1.96681,2.14302 v 4.31085 c 0,0.3777 0.0104,0.6649 0.0315,0.86196 0.0423,0.18064 0.13723,0.39395 0.28525,0.64028 0.29606,0.4598 1.11051,0.68988 2.44275,0.68988 1.35338,0 2.16732,-0.2217 2.44223,-0.66508 0.16917,-0.24632 0.26462,-0.45963 0.28577,-0.64027 0.0423,-0.19706 0.063,-0.48478 0.063,-0.86248 v -4.31033 c 0,-2.33188 -0.57064,-3.99901 -1.71255,-5.00073 -1.14192,-1.01814 -2.55866,-1.52704 -4.25039,-1.52704 -0.76128,0 -1.50155,0.16405 -2.22054,0.49248 -0.71898,0.31201 -1.2476,0.6076 -1.58595,0.88677 -0.3172,0.26274 -0.59214,0.51745 -0.824757,0.76377 -1.057332,-1.42868 -2.664455,-2.14302 -4.821411,-2.14302 z"
         style="font-size:27.9525px;font-family:'Fredoka One';-inkscape-font-specification:'Fredoka One';letter-spacing:0px;fill:currentColor;stroke-width:0.264583;stroke-opacity:0.501272"
         id="path651" /><path
         d="m 95.006256,151.40418 c 2.156956,0 3.764079,0.71434 4.821411,2.14302 0.232613,-0.24632 0.507553,-0.50103 0.824753,-0.76377 0.33835,-0.27917 0.86697,-0.57476 1.58595,-0.88677 0.71899,-0.32843 1.45926,-0.49248 2.22054,-0.49248 1.69173,0 3.10847,0.5089 4.25039,1.52704 1.14191,1.00172 1.71255,2.66885 1.71255,5.00073 v 4.31033 c 0,0.3777 -0.0208,0.66542 -0.063,0.86248 -0.0212,0.18064 -0.1166,0.39395 -0.28577,0.64027 -0.27491,0.44338 -1.08885,0.66508 -2.44223,0.66508 -1.33224,0 -2.14669,-0.23008 -2.44275,-0.68988 -0.14802,-0.24633 -0.24296,-0.45964 -0.28525,-0.64028 -0.0212,-0.19706 -0.0315,-0.48426 -0.0315,-0.86196 v -4.31085 c 0,-1.42868 -0.65572,-2.14302 -1.96681,-2.14302 -0.74013,0 -1.24748,0.18868 -1.52239,0.56638 -0.25376,0.37769 -0.38085,0.91174 -0.38085,1.60145 v 4.31033 c 0,0.39412 -0.0213,0.68184 -0.0636,0.86248 -0.0212,0.18064 -0.11608,0.39395 -0.28526,0.64027 -0.29605,0.44338 -1.12088,0.66508 -2.474265,0.66508 -1.332238,0 -2.146175,-0.23008 -2.442228,-0.68988 -0.148026,-0.24633 -0.243477,-0.45964 -0.285771,-0.64028 -0.02115,-0.19706 -0.03152,-0.48426 -0.03152,-0.86196 v -4.31085 c 0,-1.42868 -0.655714,-2.14302 -1.966805,-2.14302 -1.268798,0 -1.903243,0.71434 -1.903243,2.14302 v 4.35994 c 0,0.3777 -0.02127,0.66491 -0.06356,0.86197 -0.02115,0.18064 -0.116081,0.39446 -0.285254,0.64078 -0.3172,0.42697 -1.14203,0.64028 -2.474268,0.64028 -1.332237,0 -2.146175,-0.2217 -2.442228,-0.66508 -0.148026,-0.24632 -0.243477,-0.45963 -0.28577,-0.64027 -0.02115,-0.18064 -0.03152,-0.46836 -0.03152,-0.86248 v -8.67027 c 0,-0.3777 0.01038,-0.65704 0.03152,-0.83768 0.04229,-0.19706 0.14812,-0.41037 0.317293,-0.64027 0.317199,-0.44338 1.067847,-0.66507 2.252059,-0.66507 1.184211,0 1.956128,0.14779 2.315621,0.44338 0.359492,0.29559 0.539502,0.72221 0.539502,1.28054 0.993891,-1.16593 2.188599,-1.74873 3.584277,-1.74873 z"
         style="font-size:27.9525px;font-family:'Fredoka One';-inkscape-font-specification:'Fredoka One';letter-spacing:0px;fill:currentColor;stroke-width:0.264583;stroke-opacity:0.501272"
         id="path650" /><path
         d="m 187.59647,151.18249 c -4.58882,0 -6.88279,1.29713 -6.88279,3.89175 0,0.87035 0.20077,1.62609 0.60255,2.26653 0.40179,0.62402 0.90914,1.08365 1.52239,1.37924 1.31109,0.62403 2.63289,1.00976 3.96513,1.15756 1.41683,0.14779 2.12545,0.37787 2.12545,0.68988 0,0.39412 -0.64533,0.59117 -1.93528,0.59117 -0.71898,0 -1.52255,-0.19705 -2.4107,-0.59117 -0.88816,-0.41054 -1.59627,-0.61599 -2.12494,-0.61599 -0.50752,0 -0.87791,0.13993 -1.11053,0.4191 -0.80357,0.87035 -1.20509,1.51865 -1.20509,1.94562 0,0.42696 0.20076,0.73931 0.60255,0.93637 1.88205,0.91962 3.8383,1.37925 5.86837,1.37925 2.05123,0 3.75328,-0.25471 5.10667,-0.76378 0.74013,-0.29559 1.31129,-0.73897 1.71307,-1.33015 0.42293,-0.6076 0.63407,-1.33819 0.63407,-2.19212 0,-0.85392 -0.21114,-1.55988 -0.63407,-2.11821 -0.40178,-0.57476 -0.90965,-0.97726 -1.5229,-1.20716 -1.31109,-0.50907 -2.66403,-0.82091 -4.0597,-0.93586 -1.43797,-0.1478 -2.15698,-0.46802 -2.15698,-0.96067 0,-0.36128 0.62355,-0.54208 1.87121,-0.54208 0.80357,0 1.54384,0.12316 2.22053,0.36948 0.69784,0.24633 1.17355,0.36949 1.42731,0.36949 0.48637,0 0.96207,-0.28721 1.4273,-0.86196 0.46522,-0.57476 0.69815,-1.05954 0.69815,-1.45366 0,-0.39412 -0.3704,-0.72221 -1.11053,-0.98496 -1.586,-0.55833 -3.12983,-0.83767 -4.63124,-0.83767 z"
         style="font-size:27.9525px;font-family:'Fredoka One';-inkscape-font-specification:'Fredoka One';letter-spacing:0px;fill:currentColor;stroke-width:0.264583;stroke-opacity:0.501272"
         id="path649" /><path
         d="m 187.59647,151.18249 c 1.50141,0 3.04524,0.27934 4.63124,0.83767 0.74013,0.26275 1.11053,0.59084 1.11053,0.98496 0,0.39412 -0.23293,0.8789 -0.69815,1.45366 -0.46523,0.57475 -0.94093,0.86196 -1.4273,0.86196 -0.25376,0 -0.72947,-0.12316 -1.42731,-0.36949 -0.67669,-0.24632 -1.41696,-0.36948 -2.22053,-0.36948 -1.24766,0 -1.87121,0.1808 -1.87121,0.54208 0,0.49265 0.71901,0.81287 2.15698,0.96067 1.39567,0.11495 2.74861,0.42679 4.0597,0.93586 0.61325,0.2299 1.12112,0.6324 1.5229,1.20716 0.42293,0.55833 0.63407,1.26429 0.63407,2.11821 0,0.85393 -0.21114,1.58452 -0.63407,2.19212 -0.40178,0.59118 -0.97294,1.03456 -1.71307,1.33015 -1.35339,0.50907 -3.05544,0.76378 -5.10667,0.76378 -2.03007,0 -3.98632,-0.45963 -5.86837,-1.37925 -0.40179,-0.19706 -0.60255,-0.50941 -0.60255,-0.93637 0,-0.42697 0.40152,-1.07527 1.20509,-1.94562 0.23262,-0.27917 0.60301,-0.4191 1.11053,-0.4191 0.52867,0 1.23678,0.20545 2.12494,0.61599 0.88815,0.39412 1.69172,0.59117 2.4107,0.59117 1.28995,0 1.93528,-0.19705 1.93528,-0.59117 0,-0.31201 -0.70862,-0.54209 -2.12545,-0.68988 -1.33224,-0.1478 -2.65404,-0.53353 -3.96513,-1.15756 -0.61325,-0.29559 -1.1206,-0.75522 -1.52239,-1.37924 -0.40178,-0.64044 -0.60255,-1.39618 -0.60255,-2.26653 0,-2.59462 2.29397,-3.89175 6.88279,-3.89175 z"
         style="font-size:27.9525px;font-family:'Fredoka One';-inkscape-font-specification:'Fredoka One';letter-spacing:0px;fill:currentColor;stroke-width:0.264583;stroke-opacity:0.501272"
         id="path648" /><path
         d="m 204.69362,151.15768 c -2.57989,0 -4.7369,0.6242 -6.47093,1.87224 -1.71287,1.23163 -2.56883,2.88199 -2.56883,4.95112 0,1.64217 0.66609,3.12849 1.99833,4.45864 0.67669,0.68971 1.61772,1.24787 2.82308,1.67484 1.2265,0.41054 2.62197,0.61598 4.18682,0.61598 4.50424,0 6.75618,-0.7311 6.75618,-2.19263 0,-0.31201 -0.13747,-0.68936 -0.41238,-1.13275 -0.48637,-0.73897 -1.0679,-1.10846 -1.74459,-1.10846 -0.33835,0 -0.76114,0.0901 -1.26866,0.27079 l -0.34882,0.0987 c -0.69784,0.19706 -1.66014,0.29559 -2.88664,0.29559 -0.69784,0 -1.39558,-0.15618 -2.09341,-0.46819 -0.69784,-0.31201 -1.04697,-0.69775 -1.04697,-1.15755 h 7.51789 c 0.78242,0 1.49053,-0.23846 2.12493,-0.71469 0.65555,-0.49265 0.98341,-1.23948 0.98341,-2.2412 0,-1.01815 -0.35951,-1.95418 -1.07849,-2.8081 -1.37453,-1.60932 -3.53154,-2.41433 -6.47092,-2.41433 z m -0.0951,3.89227 c 0.69784,0 1.22646,0.11478 1.58595,0.34469 0.38064,0.2299 0.57103,0.53387 0.57103,0.91157 0,0.52549 -0.40153,0.78806 -1.2051,0.78806 h -3.99665 c 0,-0.49265 0.33823,-0.95228 1.01492,-1.37924 0.67669,-0.44338 1.35316,-0.66508 2.02985,-0.66508 z"
         style="font-size:27.9525px;font-family:'Fredoka One';-inkscape-font-specification:'Fredoka One';letter-spacing:0px;fill:currentColor;stroke-width:0.264583;stroke-opacity:0.501272"
         id="path647" /><path
         d="m 168.12066,140.46967 c -0.42294,0 -0.78244,0.11932 -1.07849,0.35692 -0.27491,0.21603 -0.46529,0.44288 -0.57103,0.68052 -0.10573,0.23765 -0.2432,0.60446 -0.41237,1.10136 l -3.4892,10.88841 -3.64784,-11.24466 c -0.12688,-0.34566 -0.42257,-0.6911 -0.8878,-1.03676 -0.46522,-0.36727 -0.97309,-0.55136 -1.5229,-0.55136 -0.52867,0 -0.96183,0.0758 -1.30018,0.22707 -0.78243,0.34567 -1.32194,0.9724 -1.61799,1.87977 l -3.45715,10.66135 -3.4892,-10.82382 c -0.21146,-0.71294 -0.45476,-1.24178 -0.72967,-1.58745 -0.25376,-0.34566 -0.63453,-0.51872 -1.14205,-0.51872 -0.48637,0 -1.03626,0.10827 -1.64951,0.32429 -1.41682,0.49689 -2.12493,1.17741 -2.12493,2.04157 0,0.34567 0.1162,0.87451 0.34881,1.58745 l 6.12159,17.98534 0.22221,0.48608 c 0.14803,0.32407 0.43335,0.64812 0.85628,0.97218 0.44408,0.32406 1.00486,0.48609 1.68155,0.48609 0.67669,0 1.25823,-0.24821 1.7446,-0.74511 0.19032,-0.19444 0.35943,-0.41025 0.50746,-0.6479 0.14803,-0.23764 0.24296,-0.42172 0.28525,-0.55134 0.0423,-0.12959 1.23701,-3.73704 3.58428,-10.82316 l 3.7114,11.18007 c 0.14803,0.34566 0.44424,0.70213 0.88832,1.0694 0.46523,0.34566 1.00422,0.51804 1.61747,0.51804 0.6344,0 1.17391,-0.17238 1.61799,-0.51804 0.46523,-0.36727 0.75055,-0.65892 0.85628,-0.87497 0.10573,-0.21604 0.17992,-0.40012 0.22221,-0.55134 l 6.09007,-17.98534 c 0.25376,-0.77775 0.38085,-1.3066 0.38085,-1.58745 0,-0.86416 -0.70863,-1.55571 -2.12545,-2.07421 -0.57096,-0.21603 -1.06793,-0.32428 -1.49086,-0.32428 z"
         style="font-size:27.9525px;font-family:'Fredoka One';-inkscape-font-specification:'Fredoka One';letter-spacing:0px;fill:currentColor;stroke-width:0.303474;stroke-opacity:0.501272"
         id="path645" /><path
         d="m 75.149587,140.19837 c -2.389569,0 -4.282529,0.71267 -5.678206,2.13803 -1.374531,1.40377 -2.06189,3.05588 -2.06189,4.95634 0,1.38217 0.264567,2.57042 0.793233,3.56385 0.549813,0.97183 1.226279,1.6845 2.029851,2.13803 0.803572,0.45352 1.670939,0.8526 2.601391,1.19813 0.930452,0.32396 1.797303,0.56174 2.600875,0.71291 0.803572,0.15118 1.469662,0.39931 1.998327,0.74484 0.549813,0.32395 0.824756,0.73473 0.824756,1.23145 0,1.64131 -0.983054,2.46152 -2.94969,2.46152 -0.465226,0 -0.973092,-0.16197 -1.522905,-0.48592 -0.549812,-0.34553 -0.972603,-0.70188 -1.268656,-1.06902 -1.057332,-1.07981 -1.882162,-1.61949 -2.474268,-1.61949 -0.592105,0 -1.152368,0.25915 -1.681034,0.77747 -0.909305,0.90704 -1.363741,1.64109 -1.363741,2.20259 0,0.53991 0.274427,1.1554 0.824239,1.84648 l 0.285771,0.35679 c 0.444079,0.64789 1.226372,1.31715 2.347143,2.00823 0.549813,0.36714 1.268816,0.68005 2.156974,0.93921 0.888159,0.23756 1.829192,0.35679 2.823084,0.35679 1.94549,0 3.774643,-0.57274 5.48752,-1.71735 0.888159,-0.58311 1.607162,-1.40331 2.156974,-2.46152 0.549813,-1.07982 0.824756,-2.32183 0.824756,-3.72558 0,-1.40377 -0.274943,-2.58099 -0.824756,-3.53122 -0.528665,-0.97183 -1.194755,-1.65211 -1.998327,-2.04085 -0.803572,-0.38873 -1.681316,-0.71268 -2.632914,-0.97184 -0.951599,-0.28075 -1.828826,-0.48546 -2.632398,-0.61504 -0.803572,-0.12954 -1.480554,-0.37838 -2.030367,-0.74552 -0.528666,-0.36714 -0.792716,-0.84203 -0.792716,-1.42512 0,-0.6047 0.22203,-1.06925 0.666109,-1.39319 0.465226,-0.34555 1.035865,-0.51787 1.712557,-0.51787 0.697839,0 1.268994,0.13993 1.713074,0.42068 0.148026,0.10797 0.306766,0.24858 0.47594,0.42136 0.190319,0.17277 0.316898,0.28098 0.380338,0.32417 0.655546,0.43193 1.205432,0.64766 1.649512,0.64766 0.761278,0 1.501551,-0.53968 2.220536,-1.61949 0.507519,-0.75588 0.761194,-1.34999 0.761194,-1.78193 0,-0.43192 -0.327857,-0.96125 -0.983403,-1.58755 l -0.792716,-0.61504 c -0.401786,-0.34554 -1.131682,-0.6805 -2.189014,-1.00445 -1.036185,-0.34553 -2.188355,-0.51854 -3.457153,-0.51854 z"
         style="font-size:27.9525px;font-family:'Fredoka One';-inkscape-font-specification:'Fredoka One';letter-spacing:0px;fill:currentColor;stroke-width:0.303419;stroke-opacity:0.501272"
         id="path644" /><path
         d="m 175.32125,145.36941 c -1.35339,0 -2.17822,0.22169 -2.47427,0.66507 -0.14802,0.22991 -0.24296,0.44321 -0.28525,0.64027 -0.0212,0.18064 -0.032,0.45998 -0.032,0.83768 0,0.3777 0.0109,0.6649 0.032,0.86196 0.0423,0.18064 0.13723,0.39395 0.28525,0.64027 0.16917,0.24633 0.45449,0.41875 0.85628,0.51728 0.40179,0.0985 0.9304,0.1478 1.58595,0.1478 0.67669,0 1.2162,-0.0493 1.61799,-0.1478 0.40178,-0.0985 0.67673,-0.26257 0.82475,-0.49247 0.16918,-0.24633 0.26411,-0.45963 0.28526,-0.64027 0.0423,-0.19706 0.0636,-0.48478 0.0636,-0.86248 0,-0.3777 -0.0213,-0.65652 -0.0636,-0.83716 -0.0212,-0.19706 -0.11608,-0.41875 -0.28526,-0.66508 -0.2749,-0.44338 -1.07846,-0.66507 -2.4107,-0.66507 z"
         style="font-size:27.9525px;font-family:'Fredoka One';-inkscape-font-specification:'Fredoka One';letter-spacing:0px;fill:currentColor;stroke-width:0.264583;stroke-opacity:0.501272"
         id="path643" /><path
         d="m 134.21213,145.3198 c -1.35338,0 -2.17821,0.22169 -2.47427,0.66507 -0.14802,0.24633 -0.24296,0.46802 -0.28525,0.66508 -0.0212,0.18064 -0.032,0.45998 -0.032,0.83767 v 11.72487 c 0,1.75712 0.29621,3.038 0.88832,3.84266 0.48637,0.67329 1.54361,1.09204 3.1719,1.25625 2.07237,0.19706 3.38328,0.1478 3.93309,-0.14779 0.42293,-0.2299 0.63459,-0.86196 0.63459,-1.89653 0,-0.95245 -0.21166,-1.53524 -0.63459,-1.74873 -0.21147,-0.11495 -0.39096,-0.18098 -0.53898,-0.1974 -0.14803,-0.0328 -0.44424,-0.0491 -0.88832,-0.0491 -0.42294,0 -0.69788,-0.0739 -0.82476,-0.22169 -0.12688,-0.16422 -0.19017,-0.54209 -0.19017,-1.13327 v -11.40447 c 0,-0.3777 -0.0213,-0.66542 -0.0636,-0.86248 -0.0211,-0.19706 -0.11608,-0.41875 -0.28525,-0.66508 -0.3172,-0.44338 -1.12076,-0.66507 -2.41071,-0.66507 z"
         style="font-size:27.9525px;font-family:'Fredoka One';-inkscape-font-specification:'Fredoka One';letter-spacing:0px;fill:currentColor;stroke-width:0.264583;stroke-opacity:0.501272"
         id="path642" /></g><path
       id="path574"
       style="fill:currentColor;fill-opacity:1;stroke-width:0.892435;stroke-linecap:round;stroke-linejoin:round;paint-order:stroke fill markers"
       d="m 37.513787,143.13535 c -0.338367,-0.008 -0.679286,0.0521 -0.999969,0.18864 -1.975098,0.72563 -1.789296,2.9574 -1.007932,4.47479 l 4.540867,11.35234 c 1.661033,4.15384 3.321899,8.30875 4.982922,12.46261 1.134011,2.7778 4.664058,1.54108 5.17362,-0.8532 3.304816,-8.03992 6.610505,-16.08023 9.915317,-24.12015 1.42888,-3.04732 -3.829361,-5.24166 -4.866355,-1.8289 -2.592996,6.30846 -5.1861,12.61637 -7.779138,18.92481 -1.57354,-3.93487 -3.145767,-7.86857 -4.719307,-11.80344 -0.954678,-2.38727 -1.909694,-4.77482 -2.864371,-7.16211 -0.366599,-0.97931 -1.360567,-1.6113 -2.375661,-1.63539 z m -12.913219,-0.0436 -0.612432,0.0126 c -5.490725,0.15944 -8.757945,1.59206 -10.027386,5.28343 -1.380099,5.35026 3.988805,7.68008 8.267908,8.15503 2.304737,0.37432 6.00536,0.77662 6.598732,2.14433 2.145435,5.36527 3.234561,7.70101 5.380008,13.06628 1.13401,2.77778 4.665492,1.54009 5.175058,-0.8542 0.768335,-1.86914 1.536709,-3.73812 2.305013,-5.60719 -0.780281,-1.95127 -1.560469,-3.90247 -2.340792,-5.85386 l -0.428267,-1.07084 c -0.754906,1.83655 -1.509615,3.67315 -2.264558,5.5098 -0.460523,-1.15164 -0.921632,-2.30252 -1.382176,-3.45415 -0.357906,-0.95892 -7.6e-5,7e-5 -1.269931,-3.48914 -1.921059,-4.86544 -6.084634,-4.58468 -10.094725,-5.34362 -2.66728,0.16679 -4.035164,-2.18898 -1.703255,-3.11608 4.682808,-0.98639 3.785437,1.32132 6.973886,1.23692 0.587409,-0.0156 1.551442,-0.18198 2.026866,-0.51888 1.275313,-0.90372 2.2003,-2.89122 2.2003,-2.89122 0,0 -2.738154,-3.05074 -8.19213,-3.20414 -0.337905,-0.01 -0.612081,-0.005 -0.612081,-0.005 z m 21.953131,0.13524 c -0.910752,0.0412 -1.764399,0.55255 -2.120865,1.7257 -0.618311,1.50426 -1.236562,3.00837 -1.85485,4.51258 0.292217,0.73064 0.584281,1.4613 0.876519,2.19212 0.630721,1.57718 1.261355,3.15444 1.892118,4.73174 1.316475,-3.20285 2.633066,-6.40572 3.949722,-9.60874 0.937697,-1.99979 -1.003966,-3.63206 -2.742676,-3.55342 z m -4.799731,8.24286 c -0.670522,1.63123 -1.341067,3.26253 -2.011574,4.89373 l 1.004953,2.51363 c 0.587889,1.47013 1.175781,2.94019 1.763673,4.41025 0.670591,-1.6314 1.341405,-3.26282 2.011977,-4.89418 -0.823178,-2.0584 -1.646551,-4.11666 -2.46965,-6.17496 -0.09977,-0.2495 -0.199625,-0.499 -0.299403,-0.74848 z m -23.897804,7.6851 c -2.081651,-0.0282 -3.060454,0.68687 -3.735488,1.93744 -0.135075,0.25025 -0.332888,0.68058 -0.331826,0.96291 0.0064,1.68939 3.350899,3.69462 5.052215,4.06822 4.116804,0.90395 4.596583,1.49375 9.929038,0.41052 0.756932,-0.2507 1.452309,-0.51438 2.087729,-0.79992 -0.701111,-1.67105 -1.422167,-3.39904 -2.343927,-5.70306 -0.07038,0.3157 -0.314869,0.67883 -0.793344,1.10131 -0.680178,0.60061 -2.46489,1.21776 -4.683261,0.4577 -0.387674,-0.13281 -0.993512,-0.41262 -1.337282,-0.63549 -0.752102,-0.48661 -1.365521,-1.0996 -2.41925,-1.55723 -0.260925,-0.11292 -0.709339,-0.21029 -0.993375,-0.22655 -0.148838,-0.008 -0.292471,-0.014 -0.431274,-0.0157 z" /><path
       style="opacity:0.3;fill:#000000;fill-opacity:1;fill-rule:nonzero;stroke:#000000;stroke-width:0.264583;stroke-linecap:round;stroke-linejoin:round;stroke-dasharray:none;stroke-opacity:0.501272;paint-order:stroke fill markers"
       d="m 16.035124,142.26345 78.400422,0.0668"
       id="path657" /></g></svg>
