<?xml version="1.0" encoding="UTF-8" standalone="no"?>
<!-- Created with Inkscape (http://www.inkscape.org/) -->

<svg
   width="auto"
   height="auto"
   viewBox="0 0 211.66666 52.916667"
   version="1.1"
   id="svg1"
   xml:space="preserve"
   xmlns:xlink="http://www.w3.org/1999/xlink"
   xmlns="http://www.w3.org/2000/svg"
   xmlns:svg="http://www.w3.org/2000/svg"><defs
     id="defs1" /><g
     id="layer1"
     transform="translate(-4.8732573,-131.21575)"><path
       style="opacity:0.561611;fill:#aa0000;stroke:#aa0000;stroke-linecap:round;stroke-linejoin:round;paint-order:stroke fill markers"
       xlink:href="#path552"
       id="path556"
       d="m -800.69336,179.72852 c -6.56792,0.0516 -10.34564,2.55682 -10.86133,6.43359 -0.77554,5.83007 3.3499,8.0752 8.14258,8.62695 1.8448,0.30735 3.96939,0.6725 5.36914,1.05078 0,0 2.95554,0.74964 3.63477,1.72657 1.74685,4.72775 3.5728,9.44434 5.4375,14.14257 1.25799,3.11777 5.22081,1.74887 5.80273,-0.93164 3.73988,-8.99383 7.47887,-17.9886 11.21875,-26.98242 1.61502,-3.40805 -4.26384,-5.88966 -5.4414,-2.07031 -2.9344,7.0569 -5.87029,14.11302 -8.80469,21.16992 -2.80403,-7.09569 -1.78893,-5.32789 -3.14063,-7.90234 -1.61952,-3.08454 -7.03681,-3.84825 -11.91406,-5.07227 -2.98494,-0.24054 -4.77152,-3.14368 -2.1543,-4.17187 5.76431,-1.18965 3.9793,2.0368 8.99805,1.3125 1.95935,-0.28276 3.56445,-3.69727 3.56445,-3.69727 0,0 -3.28364,-3.6864 -9.85156,-3.63476 z"
       transform="translate(24.116899,-26.455507)" /><path
       d="m 178.82071,154.1487 c -1.22512,0 -1.97177,0.21383 -2.23976,0.64079 -0.13399,0.24633 -0.21993,0.46802 -0.25821,0.66508 -0.0192,0.18064 -0.029,0.45946 -0.029,0.83716 v 8.64598 c 0,0.39412 0.01,0.68184 0.029,0.86248 0.0383,0.18064 0.12422,0.39395 0.25821,0.64027 0.26799,0.44338 1.00479,0.66508 2.21076,0.66508 1.2251,0 1.96237,-0.21331 2.21121,-0.64028 0.15315,-0.24632 0.23908,-0.46014 0.25822,-0.64078 0.0383,-0.19706 0.0576,-0.48427 0.0576,-0.86197 v -8.62117 c 0,-0.31202 -0.009,-0.55047 -0.0285,-0.71469 -0.0192,-0.47623 -0.19148,-0.82895 -0.51691,-1.05885 -0.38284,-0.27917 -1.03369,-0.4191 -1.95253,-0.4191 z"
       style="font-size:27.9525px;font-family:'Fredoka One';-inkscape-font-specification:'Fredoka One';letter-spacing:0px;fill:currentColor;stroke-width:0.251732;stroke-opacity:0.501272"
       id="path655" /><path
       d="m 119.28887,154.12442 c -1.01454,0 -1.65553,0.22169 -1.92353,0.66507 -0.13399,0.2299 -0.2204,0.43483 -0.25869,0.61547 -0.0191,0.18064 -0.0285,0.45998 -0.0285,0.83767 v 14.38517 c 0,0.3777 0.009,0.65704 0.0285,0.83768 0.0383,0.18063 0.1247,0.38608 0.25869,0.61598 0.15314,0.2299 0.40202,0.39395 0.74658,0.49248 0.36371,0.0985 0.84222,0.14779 1.43564,0.14779 0.59341,0 1.06206,-0.0493 1.40663,-0.14779 0.34456,-0.0985 0.58405,-0.27096 0.71805,-0.51729 0.15314,-0.2299 0.23907,-0.43534 0.25822,-0.61598 0.0383,-0.18064 0.0576,-0.45946 0.0576,-0.83716 v -4.97592 c 0.70827,0.7554 1.8475,1.13326 3.41717,1.13326 1.56968,0 3.04326,-0.63257 4.42151,-1.89704 1.39739,-1.26446 2.09614,-2.73402 2.09614,-4.40903 0,-1.67501 -0.69875,-3.14457 -2.09614,-4.40903 -1.39739,-1.26447 -2.88084,-1.89705 -4.45052,-1.89705 -1.55052,0 -2.68929,0.42714 -3.41669,1.28106 -0.0574,-0.42696 -0.26828,-0.74718 -0.63198,-0.96066 -0.34456,-0.22991 -1.02407,-0.34468 -2.03861,-0.34468 z m 5.2261,4.23643 c 0.74655,0 1.34951,0.22169 1.80893,0.66508 0.45941,0.42696 0.68904,0.91174 0.68904,1.45365 0,0.54192 -0.24888,1.02618 -0.74658,1.45315 -0.47856,0.42696 -1.07212,0.64027 -1.78039,0.64027 -0.68913,0 -1.26298,-0.21331 -1.72238,-0.64027 -0.44028,-0.44339 -0.66052,-0.92765 -0.66052,-1.45315 0,-0.52549 0.22024,-1.01027 0.66052,-1.45365 0.44027,-0.44339 1.02397,-0.66508 1.75138,-0.66508 z"
       style="font-size:27.9525px;font-family:'Fredoka One';-inkscape-font-specification:'Fredoka One';letter-spacing:0px;fill:currentColor;stroke-width:0.251732;stroke-opacity:0.501272"
       id="path653" /><path
       d="m 100.82633,154.09961 c -1.263397,0 -2.344867,0.5828 -3.244557,1.74873 0,-0.55833 -0.16295,-0.98495 -0.48837,-1.28054 -0.32542,-0.29559 -1.02417,-0.44338 -2.09615,-0.44338 -1.071967,0 -1.751469,0.22169 -2.038604,0.66507 -0.153138,0.2299 -0.248935,0.44321 -0.287219,0.64027 -0.01915,0.18064 -0.02853,0.45998 -0.02853,0.83768 v 8.67027 c 0,0.39412 0.0094,0.68184 0.02853,0.86248 0.03828,0.18064 0.124688,0.39395 0.258684,0.64027 0.267993,0.44338 1.004786,0.66508 2.210749,0.66508 1.20597,0 1.95262,-0.21331 2.23976,-0.64028 0.15314,-0.24632 0.23907,-0.46014 0.25822,-0.64078 0.0383,-0.19706 0.0575,-0.48427 0.0575,-0.86197 v -4.35994 c 0,-1.42868 0.57432,-2.14302 1.72286,-2.14302 1.186817,0 1.780387,0.71434 1.780387,2.14302 v 4.31085 c 0,0.3777 0.009,0.6649 0.0285,0.86196 0.0383,0.18064 0.12469,0.39395 0.25868,0.64028 0.268,0.4598 1.00479,0.68988 2.21076,0.68988 1.22511,0 1.97176,-0.2217 2.23975,-0.66508 0.15315,-0.24632 0.23908,-0.45963 0.25823,-0.64027 0.0383,-0.18064 0.0576,-0.46836 0.0576,-0.86248 v -4.31033 c 0,-0.68971 0.11504,-1.22376 0.34475,-1.60145 0.24886,-0.3777 0.70812,-0.56638 1.3781,-0.56638 1.18682,0 1.7804,0.71434 1.7804,2.14302 v 4.31085 c 0,0.3777 0.009,0.6649 0.0285,0.86196 0.0383,0.18064 0.12422,0.39395 0.25821,0.64028 0.268,0.4598 1.00526,0.68988 2.21123,0.68988 1.2251,0 1.9619,-0.2217 2.21075,-0.66508 0.15314,-0.24632 0.23954,-0.45963 0.25869,-0.64027 0.0383,-0.19706 0.057,-0.48478 0.057,-0.86248 v -4.31033 c 0,-2.33188 -0.51656,-3.99901 -1.55024,-5.00073 -1.03369,-1.01814 -2.31615,-1.52704 -3.84753,-1.52704 -0.68913,0 -1.35924,0.16405 -2.01008,0.49248 -0.65084,0.31201 -1.12935,0.6076 -1.43563,0.88677 -0.28714,0.26274 -0.53602,0.51745 -0.74659,0.76377 -0.95712,-1.42868 -2.41192,-2.14302 -4.36444,-2.14302 z"
       style="font-size:27.9525px;font-family:'Fredoka One';-inkscape-font-specification:'Fredoka One';letter-spacing:0px;fill:currentColor;stroke-width:0.251732;stroke-opacity:0.501272"
       id="path651" /><path
       d="m 189.93248,153.87792 c -4.15389,0 -6.23044,1.29713 -6.23044,3.89175 0,0.87035 0.18174,1.62609 0.54544,2.26653 0.36371,0.62402 0.82297,1.08365 1.3781,1.37924 1.18682,0.62403 2.38334,1.00976 3.58931,1.15756 1.28255,0.14779 1.924,0.37787 1.924,0.68988 0,0.39412 -0.58416,0.59117 -1.75185,0.59117 -0.65084,0 -1.37824,-0.19705 -2.18221,-0.59117 -0.80398,-0.41054 -1.44498,-0.61599 -1.92354,-0.61599 -0.45942,0 -0.7947,0.13993 -1.00528,0.4191 -0.7274,0.87035 -1.09087,1.51865 -1.09087,1.94562 0,0.42696 0.18174,0.73931 0.54544,0.93637 1.70367,0.91962 3.47451,1.37925 5.31217,1.37925 1.85681,0 3.39754,-0.25471 4.62266,-0.76378 0.66998,-0.29559 1.187,-0.73897 1.5507,-1.33015 0.38285,-0.6076 0.57397,-1.33819 0.57397,-2.19212 0,-0.85392 -0.19112,-1.55988 -0.57397,-2.11821 -0.3637,-0.57476 -0.82343,-0.97726 -1.37856,-1.20716 -1.18682,-0.50907 -2.41153,-0.82091 -3.67492,-0.93586 -1.30168,-0.1478 -1.95254,-0.46802 -1.95254,-0.96067 0,-0.36128 0.56445,-0.54208 1.69386,-0.54208 0.7274,0 1.39751,0.12316 2.01006,0.36948 0.6317,0.24633 1.06232,0.36949 1.29203,0.36949 0.44027,0 0.87089,-0.28721 1.29202,-0.86196 0.42113,-0.57476 0.63198,-1.05954 0.63198,-1.45366 0,-0.39412 -0.33529,-0.72221 -1.00527,-0.98496 -1.43568,-0.55833 -2.83319,-0.83767 -4.19229,-0.83767 z"
       style="font-size:27.9525px;font-family:'Fredoka One';-inkscape-font-specification:'Fredoka One';letter-spacing:0px;fill:currentColor;stroke-width:0.251732;stroke-opacity:0.501272"
       id="path649" /><path
       d="m 205.40916,153.85311 c -2.33537,0 -4.28794,0.6242 -5.85762,1.87224 -1.55052,1.23163 -2.32535,2.88199 -2.32535,4.95112 0,1.64217 0.60295,3.12849 1.80892,4.45864 0.61256,0.68971 1.4644,1.24787 2.55551,1.67484 1.11025,0.41054 2.37346,0.61598 3.78999,0.61598 4.07733,0 6.11583,-0.7311 6.11583,-2.19263 0,-0.31201 -0.12444,-0.68936 -0.37329,-1.13275 -0.44028,-0.73897 -0.96669,-1.10846 -1.57924,-1.10846 -0.30628,0 -0.689,0.0901 -1.14842,0.27079 l -0.31576,0.0987 c -0.63169,0.19706 -1.50279,0.29559 -2.61304,0.29559 -0.6317,0 -1.26331,-0.15618 -1.89499,-0.46819 -0.6317,-0.31201 -0.94774,-0.69775 -0.94774,-1.15755 h 6.80534 c 0.70826,0 1.34926,-0.23846 1.92353,-0.71469 0.59341,-0.49265 0.8902,-1.23948 0.8902,-2.2412 0,-1.01815 -0.32544,-1.95418 -0.97627,-2.8081 -1.24425,-1.60932 -3.19682,-2.41433 -5.8576,-2.41433 z m -0.0861,3.89227 c 0.6317,0 1.11021,0.11478 1.43563,0.34469 0.34457,0.2299 0.51691,0.53387 0.51691,0.91157 0,0.52549 -0.36347,0.78806 -1.09088,0.78806 h -3.61785 c 0,-0.49265 0.30618,-0.95228 0.91873,-1.37924 0.61255,-0.44338 1.22491,-0.66508 1.83746,-0.66508 z"
       style="font-size:27.9525px;font-family:'Fredoka One';-inkscape-font-specification:'Fredoka One';letter-spacing:0px;fill:currentColor;stroke-width:0.251732;stroke-opacity:0.501272"
       id="path647" /><path
       d="m 171.54767,143.1651 c -0.47114,0 -0.87162,0.14979 -1.20141,0.44807 -0.30624,0.27121 -0.51832,0.55598 -0.63612,0.85432 -0.11777,0.29833 -0.2709,0.75882 -0.45936,1.38262 l -3.88687,13.66914 -4.06361,-14.11636 c -0.14133,-0.43394 -0.47073,-0.8676 -0.98898,-1.30154 -0.51825,-0.46106 -1.08399,-0.69217 -1.69647,-0.69217 -0.58893,0 -1.07146,0.0952 -1.44837,0.28506 -0.8716,0.43396 -1.47261,1.22074 -1.8024,2.35984 l -3.85118,13.38408 -3.88687,-13.58805 c -0.23557,-0.89501 -0.5066,-1.5589 -0.81283,-1.99285 -0.28269,-0.43394 -0.70685,-0.65119 -1.27222,-0.65119 -0.5418,0 -1.15436,0.13592 -1.83751,0.4071 -1.5783,0.6238 -2.36712,1.4781 -2.36712,2.56295 0,0.43396 0.12945,1.09785 0.38856,1.99286 l 6.8193,22.57852 0.24754,0.61021 c 0.1649,0.40683 0.48273,0.81364 0.95387,1.22045 0.4947,0.40682 1.11939,0.61024 1.8732,0.61024 0.75381,0 1.40164,-0.31161 1.94345,-0.93541 0.21201,-0.2441 0.40039,-0.51501 0.56529,-0.81336 0.1649,-0.29833 0.27065,-0.52943 0.31776,-0.69213 0.0471,-0.16269 1.378,-4.69143 3.99279,-13.58724 l 4.13441,14.03529 c 0.1649,0.43393 0.49487,0.88144 0.98956,1.3425 0.51826,0.43394 1.11868,0.65035 1.80183,0.65035 0.7067,0 1.30769,-0.21641 1.80239,-0.65035 0.51826,-0.46106 0.8361,-0.82719 0.95387,-1.09842 0.11777,-0.27121 0.20043,-0.50231 0.24754,-0.69213 l 6.78417,-22.57852 c 0.28269,-0.97637 0.42427,-1.64028 0.42427,-1.99286 0,-1.08485 -0.7894,-1.95301 -2.3677,-2.60392 -0.63604,-0.27121 -1.18964,-0.4071 -1.66078,-0.4071 z"
       style="font-size:27.9525px;font-family:'Fredoka One';-inkscape-font-specification:'Fredoka One';letter-spacing:0px;fill:currentColor;stroke-width:0.358878;stroke-opacity:0.501272"
       id="path645" /><path
       d="m 80.074755,142.8938 c -2.921056,0 -5.235047,0.71267 -6.941149,2.13803 -1.680253,1.40377 -2.520495,3.05588 -2.520495,4.95634 0,1.38217 0.323412,2.57042 0.969665,3.56385 0.672101,0.97183 1.499026,1.6845 2.481328,2.13803 0.982301,0.45352 2.042588,0.8526 3.179991,1.19813 1.137403,0.32396 2.197058,0.56174 3.17936,0.71291 0.982302,0.15118 1.796544,0.39931 2.442794,0.74484 0.672103,0.32395 1.008197,0.73473 1.008197,1.23145 0,1.64131 -1.201704,2.46152 -3.605758,2.46152 -0.5687,0 -1.189526,-0.16197 -1.861629,-0.48592 -0.672101,-0.34553 -1.188928,-0.70188 -1.55083,-1.06902 -1.292503,-1.07981 -2.300791,-1.61949 -3.024593,-1.61949 -0.723801,0 -1.408677,0.25915 -2.054928,0.77747 -1.111552,0.90704 -1.667064,1.64109 -1.667064,2.20259 0,0.53991 0.335465,1.1554 1.007566,1.84648 l 0.349332,0.35679 c 0.542852,0.64789 1.49914,1.31715 2.869193,2.00823 0.672102,0.36714 1.551026,0.68005 2.636728,0.93921 1.085703,0.23756 2.236039,0.35679 3.450992,0.35679 2.378205,0 4.614197,-0.57274 6.70805,-1.71735 1.085703,-0.58311 1.964628,-1.40331 2.636729,-2.46152 0.672101,-1.07982 1.008197,-2.32183 1.008197,-3.72558 0,-1.40377 -0.336096,-2.58099 -1.008197,-3.53122 -0.646252,-0.97183 -1.460493,-1.65211 -2.442794,-2.04085 -0.982303,-0.38873 -2.055273,-0.71268 -3.218526,-0.97184 -1.163253,-0.28075 -2.235592,-0.48546 -3.217894,-0.61504 -0.982302,-0.12954 -1.809858,-0.37838 -2.481961,-0.74552 -0.646251,-0.36714 -0.969031,-0.84203 -0.969031,-1.42512 0,-0.6047 0.271415,-1.06925 0.814265,-1.39319 0.568701,-0.34555 1.266262,-0.51787 2.093463,-0.51787 0.853052,0 1.551242,0.13993 2.094095,0.42068 0.18095,0.10797 0.374997,0.24858 0.581798,0.42136 0.23265,0.17277 0.387382,0.28098 0.464933,0.32417 0.801352,0.43193 1.473544,0.64766 2.016394,0.64766 0.930602,0 1.835526,-0.53968 2.714427,-1.61949 0.620402,-0.75588 0.930499,-1.34999 0.930499,-1.78193 0,-0.43192 -0.400779,-0.96125 -1.202132,-1.58755 l -0.969031,-0.61504 c -0.491151,-0.34554 -1.38339,-0.6805 -2.675892,-1.00445 -1.266654,-0.34553 -2.675089,-0.51854 -4.226092,-0.51854 z"
       style="font-size:27.9525px;font-family:'Fredoka One';-inkscape-font-specification:'Fredoka One';letter-spacing:0px;fill:currentColor;stroke-width:0.33547;stroke-opacity:0.501272"
       id="path644" /><path
       d="m 178.82071,148.06484 c -1.22512,0 -1.97177,0.22169 -2.23976,0.66507 -0.13399,0.22991 -0.21993,0.44321 -0.25821,0.64027 -0.0192,0.18064 -0.029,0.45998 -0.029,0.83768 0,0.3777 0.01,0.6649 0.029,0.86196 0.0383,0.18064 0.12422,0.39395 0.25821,0.64027 0.15314,0.24633 0.41141,0.41875 0.77512,0.51728 0.36371,0.0985 0.84222,0.1478 1.43564,0.1478 0.61255,0 1.10092,-0.0493 1.46463,-0.1478 0.3637,-0.0985 0.61259,-0.26257 0.74658,-0.49247 0.15315,-0.24633 0.23908,-0.45963 0.25822,-0.64027 0.0383,-0.19706 0.0576,-0.48478 0.0576,-0.86248 0,-0.3777 -0.0193,-0.65652 -0.0576,-0.83716 -0.0192,-0.19706 -0.10507,-0.41875 -0.25822,-0.66508 -0.24884,-0.44338 -0.97624,-0.66507 -2.18221,-0.66507 z"
       style="font-size:27.9525px;font-family:'Fredoka One';-inkscape-font-specification:'Fredoka One';letter-spacing:0px;fill:currentColor;stroke-width:0.251732;stroke-opacity:0.501272"
       id="path643" /><path
       d="m 136.31625,148.01523 c -1.2251,0 -1.97175,0.22169 -2.23975,0.66507 -0.13399,0.24633 -0.21994,0.46802 -0.25822,0.66508 -0.0192,0.18064 -0.029,0.45998 -0.029,0.83767 v 11.72487 c 0,1.75712 0.26813,3.038 0.80412,3.84266 0.44027,0.67329 1.39731,1.09204 2.87127,1.25625 1.87595,0.19706 3.06261,0.1478 3.56031,-0.14779 0.38284,-0.2299 0.57444,-0.86196 0.57444,-1.89653 0,-0.95245 -0.1916,-1.53524 -0.57444,-1.74873 -0.19143,-0.11495 -0.35391,-0.18098 -0.4879,-0.1974 -0.134,-0.0328 -0.40213,-0.0491 -0.80412,-0.0491 -0.38286,0 -0.63174,-0.0739 -0.74659,-0.22169 -0.11486,-0.16422 -0.17215,-0.54209 -0.17215,-1.13327 v -11.40447 c 0,-0.3777 -0.0193,-0.66542 -0.0576,-0.86248 -0.0191,-0.19706 -0.10508,-0.41875 -0.25821,-0.66508 -0.28714,-0.44338 -1.01454,-0.66507 -2.18223,-0.66507 z"
       style="font-size:27.9525px;font-family:'Fredoka One';-inkscape-font-specification:'Fredoka One';letter-spacing:0px;fill:currentColor;stroke-width:0.251732;stroke-opacity:0.501272"
       id="path642" /><path
       id="path574"
       style="fill:currentColor;fill-opacity:1;stroke-width:0.892435;stroke-linecap:round;stroke-linejoin:round;paint-order:stroke fill markers"
       d="m 37.513787,143.13535 c -0.338367,-0.008 -0.679286,0.0521 -0.999969,0.18864 -1.975098,0.72563 -1.789296,2.9574 -1.007932,4.47479 l 4.540867,11.35234 c 1.661033,4.15384 3.321899,8.30875 4.982922,12.46261 1.701146,2.54149 3.579658,1.90762 5.17362,-0.8532 3.304816,-8.03992 6.610505,-16.08023 9.915317,-24.12015 1.42888,-3.04732 -3.829361,-5.24166 -4.866355,-1.8289 -2.592996,6.30846 -5.1861,12.61637 -7.779138,18.92481 -1.57354,-3.93487 -3.145767,-7.86857 -4.719307,-11.80344 -0.954678,-2.38727 -1.909694,-4.77482 -2.864371,-7.16211 -0.366599,-0.97931 -1.360567,-1.6113 -2.375661,-1.63539 z m -12.913219,-0.0436 -0.612432,0.0126 c -5.490725,0.15944 -8.757945,1.59206 -10.027386,5.28343 -1.380099,5.35026 3.988805,7.68008 8.267908,8.15503 2.304737,0.37432 6.00536,0.77662 6.598732,2.14433 2.145435,5.36527 3.234561,7.70101 5.380008,13.06628 2.019607,2.66081 4.331304,1.15577 5.175058,-0.8542 0.768335,-1.86914 1.536709,-3.73812 2.305013,-5.60719 -0.780281,-1.95127 -1.560469,-3.90247 -2.340792,-5.85386 l -0.428267,-1.07084 c -0.754906,1.83655 -1.509615,3.67315 -2.264558,5.5098 -0.460523,-1.15164 -0.921632,-2.30252 -1.382176,-3.45415 -0.357906,-0.95892 -7.6e-5,7e-5 -1.269931,-3.48914 -1.921059,-4.86544 -6.084634,-4.58468 -10.094725,-5.34362 -2.66728,0.16679 -4.035164,-2.18898 -1.703255,-3.11608 4.682808,-0.98639 3.785437,1.32132 6.973886,1.23692 0.587409,-0.0156 1.551442,-0.18198 2.026866,-0.51888 1.275313,-0.90372 2.2003,-2.89122 2.2003,-2.89122 0,0 -2.738154,-3.05074 -8.19213,-3.20414 -0.337905,-0.01 -0.612081,-0.005 -0.612081,-0.005 z m 21.953131,0.13524 c -0.910752,0.0412 -1.764399,0.55255 -2.120865,1.7257 -0.618311,1.50426 -1.236562,3.00837 -1.85485,4.51258 0.292217,0.73064 0.584281,1.4613 0.876519,2.19212 0.630721,1.57718 1.261355,3.15444 1.892118,4.73174 1.316475,-3.20285 2.633066,-6.40572 3.949722,-9.60874 0.937697,-1.99979 -1.003966,-3.63206 -2.742676,-3.55342 z m -4.799731,8.24286 c -0.670522,1.63123 -1.341067,3.26253 -2.011574,4.89373 l 1.004953,2.51363 c 0.587889,1.47013 1.175781,2.94019 1.763673,4.41025 0.670591,-1.6314 1.341405,-3.26282 2.011977,-4.89418 -0.823178,-2.0584 -1.646551,-4.11666 -2.46965,-6.17496 -0.09977,-0.2495 -0.199625,-0.499 -0.299403,-0.74848 z m -23.897804,7.6851 c -2.081651,-0.0282 -3.060454,0.68687 -3.735488,1.93744 -0.135075,0.25025 -0.332888,0.68058 -0.331826,0.96291 0.0064,1.68939 3.350899,3.69462 5.052215,4.06822 4.116804,0.90395 4.596583,1.49375 9.929038,0.41052 0.756932,-0.2507 1.452309,-0.51438 2.087729,-0.79992 -0.701111,-1.67105 -1.422167,-3.39904 -2.343927,-5.70306 -0.07038,0.3157 -0.314869,0.67883 -0.793344,1.10131 -0.680178,0.60061 -2.46489,1.21776 -4.683261,0.4577 -0.387674,-0.13281 -0.993512,-0.41262 -1.337282,-0.63549 -0.752102,-0.48661 -1.365521,-1.0996 -2.41925,-1.55723 -0.260925,-0.11292 -0.709339,-0.21029 -0.993375,-0.22655 -0.148838,-0.008 -0.292471,-0.014 -0.431274,-0.0157 z" /><path
       style="opacity:0.3;fill:#000000;fill-opacity:1;fill-rule:nonzero;stroke:#000000;stroke-width:0.264583;stroke-linecap:round;stroke-linejoin:round;stroke-dasharray:none;stroke-opacity:0.501272;paint-order:stroke fill markers"
       d="m 16.035124,142.26345 78.400422,0.0668"
       id="path657" /></g></svg>
