<?xml version="1.0" encoding="UTF-8" standalone="no"?>
<!-- Created with Inkscape (http://www.inkscape.org/) -->

<svg
   width="auto"
   height="auto"
   viewBox="0 0 211.66666 52.916667"
   version="1.1"
   id="svg1"
   xml:space="preserve"
   xmlns:xlink="http://www.w3.org/1999/xlink"
   xmlns="http://www.w3.org/2000/svg"
   xmlns:svg="http://www.w3.org/2000/svg"><defs
     id="defs1" /><g
     id="layer1"
     transform="translate(-4.8732573,-131.21575)"><path
       style="opacity:0.561611;fill:#aa0000;stroke:#aa0000;stroke-linecap:round;stroke-linejoin:round;paint-order:stroke fill markers"
       xlink:href="#path552"
       id="path556"
       d="m -800.69336,179.72852 c -6.56792,0.0516 -10.34564,2.55682 -10.86133,6.43359 -0.77554,5.83007 3.3499,8.0752 8.14258,8.62695 1.8448,0.30735 3.96939,0.6725 5.36914,1.05078 0,0 2.95554,0.74964 3.63477,1.72657 1.74685,4.72775 3.5728,9.44434 5.4375,14.14257 1.25799,3.11777 5.22081,1.74887 5.80273,-0.93164 3.73988,-8.99383 7.47887,-17.9886 11.21875,-26.98242 1.61502,-3.40805 -4.26384,-5.88966 -5.4414,-2.07031 -2.9344,7.0569 -5.87029,14.11302 -8.80469,21.16992 -2.80403,-7.09569 -1.78893,-5.32789 -3.14063,-7.90234 -1.61952,-3.08454 -7.03681,-3.84825 -11.91406,-5.07227 -2.98494,-0.24054 -4.77152,-3.14368 -2.1543,-4.17187 5.76431,-1.18965 3.9793,2.0368 8.99805,1.3125 1.95935,-0.28276 3.56445,-3.69727 3.56445,-3.69727 0,0 -3.28364,-3.6864 -9.85156,-3.63476 z" /><path
       style="font-size:28.6905px;font-family:'Fredoka One';-inkscape-font-specification:'Fredoka One';letter-spacing:0px;opacity:0.516588;fill:currentColor;stroke-width:2.43575;stroke-dasharray:none"
       xlink:href="#path852"
       id="path862"
       d="m -846.5293,85.630859 c -0.45394,0 -0.84043,0.09136 -1.1582,0.275391 -0.29505,0.167306 -0.4998,0.343307 -0.61328,0.527344 -0.1135,0.184038 -0.25984,0.468713 -0.44141,0.853515 l -3.69531,8.316407 -3.71484,-8.316407 c -0.22697,-0.552109 -0.48814,-0.962778 -0.78321,-1.230468 -0.27237,-0.26769 -0.67987,-0.400391 -1.22461,-0.400391 -0.52203,0 -1.11327,0.08269 -1.77148,0.25 -1.52072,0.384805 -2.28125,0.912808 -2.28125,1.582031 0,0.267691 0.12533,0.676404 0.375,1.228516 l 5.0625,10.734375 1.59766,3.470708 c 0.1589,0.2677 0.47649,0.54371 0.95312,0.82812 0.49935,0.26769 1.07812,0.40234 1.73633,0.40234 0.04,0 0.0779,-0.003 0.11719,-0.004 0.0225,2.5e-4 0.0436,0.004 0.0664,0.004 0.72631,0 1.35101,-0.19331 1.87305,-0.57812 0.0347,-0.0256 0.0643,-0.0535 0.0977,-0.0801 0.25261,-0.16624 0.42531,-0.30888 0.50195,-0.42187 0.0849,-0.12511 0.14261,-0.23112 0.18945,-0.32813 0.0205,-0.0331 0.0483,-0.0706 0.0605,-0.0977 0.007,-0.0147 0.50295,-1.09668 0.5625,-1.22656 l 5.96289,-12.703123 c 0.27237,-0.602304 0.4082,-1.011017 0.4082,-1.228516 0,-0.498904 -0.42431,-0.923404 -1.26953,-1.273437 -0.004,-0.0023 -0.008,-0.0036 -0.0117,-0.0059 -0.41993,-0.239198 -0.87325,-0.378022 -1.35742,-0.416015 -0.4644,-0.106972 -0.87928,-0.16211 -1.24219,-0.16211 z"
       transform="translate(-0.79374999,-9.823761)" /><g
       id="g969"><g
         id="g938"
         transform="translate(967.52297,96.146442)"><path
           id="path938"
           style="font-size:28.6905px;font-family:'Fredoka One';-inkscape-font-specification:'Fredoka One';letter-spacing:0px;opacity:1;fill:currentColor;stroke-width:2.43575;stroke-dasharray:none"
           d="m -802.38481,49.468994 c -0.45394,0 -0.83997,0.09185 -1.15774,0.27588 -0.29505,0.167306 -0.49935,0.342978 -0.61283,0.527015 -0.1135,0.184038 -0.26069,0.468637 -0.44226,0.853439 l -3.69384,8.316422 -3.71544,-8.316422 c -0.22697,-0.552109 -0.48782,-0.962188 -0.78289,-1.229878 -0.27237,-0.26769 -0.68093,-0.401185 -1.22567,-0.401185 -0.52203,0 -1.11236,0.0833 -1.77057,0.250609 -1.52072,0.384805 -2.28128,0.911823 -2.28128,1.581046 0,0.267691 0.12518,0.677768 0.37485,1.22988 l 5.06325,10.73248 1.59684,3.471118 c 0.1589,0.2677 0.47631,0.54376 0.95294,0.82817 0.49935,0.26769 1.07816,0.40224 1.73637,0.40224 0.04,0 0.0786,-0.002 0.11794,-0.003 0.0225,2.5e-4 0.0425,0.003 0.0653,0.003 0.72631,0 1.35068,-0.19222 1.87272,-0.57703 0.0347,-0.0256 0.065,-0.0545 0.0984,-0.0811 0.25261,-0.16624 0.42458,-0.30821 0.50122,-0.4212 0.0849,-0.12511 0.14428,-0.23152 0.19112,-0.32853 0.0205,-0.0331 0.0478,-0.0708 0.06,-0.0979 0.007,-0.0147 0.50326,-1.09578 0.56281,-1.22566 l 5.96144,-12.702588 c 0.27237,-0.602304 0.40855,-1.012381 0.40855,-1.22988 0,-0.498904 -0.42361,-0.923017 -1.26883,-1.27305 -0.004,-0.0023 -0.008,-0.0045 -0.0121,-0.0068 -0.41993,-0.239198 -0.87259,-0.376354 -1.35676,-0.414347 -0.4644,-0.106972 -0.88066,-0.162685 -1.24357,-0.162685 z m -8.93706,-1.91e-4 c -0.35911,0 -0.67433,0.06006 -0.94827,0.175183 0.1336,0.136702 0.24994,0.294217 0.34417,0.474906 0.91023,1.855703 1.73372,3.755719 2.56935,5.649268 l 1.5074,-3.212207 c 0.27237,-0.602304 0.40825,-1.0124 0.40825,-1.229899 0,-0.498904 -0.42344,-0.923275 -1.26866,-1.273308 -0.004,-0.0023 -0.008,-0.0044 -0.0119,-0.0067 -0.41993,-0.239198 -0.87285,-0.376452 -1.35702,-0.414445 -0.4644,-0.106972 -0.88042,-0.162781 -1.24333,-0.162781 z m -11.63082,0.02532 c -0.52203,0 -1.11222,0.08332 -1.77043,0.250631 -1.52072,0.384805 -2.28152,0.912076 -2.28152,1.581299 0,0.26769 0.1255,0.677787 0.37517,1.229899 l 5.06326,10.732161 1.5968,3.471106 c 0.1589,0.2677 0.47629,0.543964 0.95292,0.828373 0.49934,0.26769 1.07811,0.402043 1.73632,0.402043 0.04,0 0.0785,-0.0016 0.11783,-0.0026 0.0225,2.5e-4 0.0423,0.0026 0.0651,0.0026 0.72631,0 1.35071,-0.191899 1.87275,-0.576709 0.0347,-0.0256 0.0653,-0.05453 0.0987,-0.08113 0.25261,-0.16624 0.42463,-0.308173 0.50127,-0.421163 0.0849,-0.12511 0.14436,-0.231652 0.1912,-0.328662 0.0205,-0.0331 0.0477,-0.07057 0.0599,-0.09767 0.007,-0.0147 0.50321,-1.095885 0.56276,-1.225765 l 0.75758,-1.613854 c -1.03072,-2.203612 -2.07008,-4.403624 -3.10938,-6.603732 l -1.06608,2.400887 -3.71554,-8.316288 c -0.22697,-0.552108 -0.48782,-0.962209 -0.78289,-1.229899 -0.27237,-0.26769 -0.68103,-0.401526 -1.22577,-0.401526 z m -12.0637,-0.319735 c -1.42579,0 -2.29415,0.22169 -2.60604,0.66508 -0.15595,0.24632 -0.2562,0.46801 -0.30076,0.66507 -0.0223,0.18064 -0.0336,0.45998 -0.0336,0.83768 v 11.72486 c 0,1.75712 0.31208,3.038 0.93586,3.84266 0.5124,0.67329 1.62599,1.09204 3.3414,1.25626 2.18325,0.19706 3.56471,0.14779 4.14393,-0.1478 0.44557,-0.2299 0.66818,-0.86196 0.66818,-1.89652 0,-0.95246 -0.22261,-1.53577 -0.66818,-1.74925 -0.22278,-0.11495 -0.41249,-0.18047 -0.56844,-0.19689 -0.15594,-0.0328 -0.4675,-0.0491 -0.93534,-0.0491 -0.44556,0 -0.73553,-0.0739 -0.8692,-0.22169 -0.13367,-0.16422 -0.2005,-0.54209 -0.2005,-1.13327 v -11.40498 c 0,-0.3777 -0.0221,-0.66491 -0.0667,-0.86197 -0.0223,-0.19706 -0.12254,-0.41875 -0.30076,-0.66507 -0.33417,-0.44339 -1.18094,-0.66508 -2.5399,-0.66508 z m 41.09382,0.04909 c -1.4258,0 -2.29467,0.2217 -2.60656,0.66508 -0.15595,0.2299 -0.2562,0.44373 -0.30076,0.64079 -0.0223,0.18064 -0.0336,0.45946 -0.0336,0.83716 0,0.37769 0.0113,0.66542 0.0336,0.86248 0.0446,0.18063 0.14481,0.39394 0.30076,0.64027 0.17822,0.24632 0.47898,0.41875 0.90227,0.51728 0.42328,0.0985 0.98008,0.14779 1.6707,0.14779 0.71289,0 1.281,-0.0493 1.70429,-0.14779 0.42328,-0.0985 0.71273,-0.26258 0.86868,-0.49248 0.17822,-0.24632 0.27847,-0.46015 0.30075,-0.64079 0.0446,-0.19706 0.0672,-0.48426 0.0672,-0.86196 0,-0.3777 -0.0226,-0.65704 -0.0672,-0.83767 -0.0223,-0.19706 -0.12253,-0.41876 -0.30075,-0.66508 -0.28962,-0.44338 -1.13587,-0.66508 -2.53938,-0.66508 z m -100.41372,0.68988 c -2.51742,0 -4.51119,0.54192 -5.98154,1.62575 -1.44808,1.0674 -2.17196,2.32366 -2.17196,3.76876 0,1.05098 0.27814,1.954 0.83509,2.70939 0.57923,0.73898 1.29232,1.28089 2.13889,1.62574 0.84656,0.34486 1.76016,0.64883 2.7404,0.91158 0.98023,0.24632 1.89331,0.42713 2.73988,0.54208 0.84657,0.11495 1.54835,0.30363 2.1053,0.56638 0.57923,0.24632 0.86868,0.55816 0.86868,0.93586 0,1.24804 -1.03544,1.87223 -3.1073,1.87223 -0.49012,0 -1.02481,-0.12316 -1.60404,-0.36948 -0.57923,-0.26275 -1.02498,-0.53371 -1.33687,-0.81287 -1.1139,-0.82108 -1.98277,-1.23145 -2.60656,-1.23145 -0.62378,0 -1.214,0.19706 -1.77095,0.59117 -0.95796,0.68971 -1.43712,1.24788 -1.43712,1.67484 0,0.41054 0.28945,0.87856 0.86868,1.40405 l 0.30076,0.27078 c 0.46783,0.49265 1.29249,1.00207 2.47323,1.52756 0.57923,0.27916 1.33653,0.51711 2.27221,0.71416 0.93568,0.18064 1.92691,0.27079 2.97398,0.27079 2.04958,0 3.97652,-0.435 5.78104,-1.30535 0.93568,-0.44338 1.6935,-1.06758 2.27273,-1.87223 0.57923,-0.82108 0.86868,-1.76499 0.86868,-2.83239 0,-1.0674 -0.28945,-1.96256 -0.86868,-2.68511 -0.55695,-0.73897 -1.25873,-1.25625 -2.1053,-1.55184 -0.84656,-0.29559 -1.77147,-0.54191 -2.77399,-0.73897 -1.00251,-0.21348 -1.9269,-0.36966 -2.77347,-0.46819 -0.84657,-0.0985 -1.55914,-0.28721 -2.13837,-0.56638 -0.55695,-0.27916 -0.83561,-0.64027 -0.83561,-1.08365 0,-0.45981 0.23393,-0.81304 0.70177,-1.05937 0.49011,-0.26274 1.09164,-0.39429 1.80454,-0.39429 0.73517,0 1.3367,0.10691 1.80454,0.3204 0.15595,0.0821 0.32304,0.18902 0.50126,0.32039 0.2005,0.13137 0.33417,0.21314 0.40101,0.24598 0.69062,0.32843 1.26952,0.49299 1.73736,0.49299 0.80201,0 1.58194,-0.41088 2.33939,-1.23196 0.53468,-0.57476 0.80202,-1.02601 0.80202,-1.35444 0,-0.32844 -0.34549,-0.73094 -1.03611,-1.20716 l -0.83509,-0.46819 c -0.42329,-0.26275 -1.1919,-0.51694 -2.3058,-0.76326 -1.09163,-0.26275 -2.30599,-0.3943 -3.64268,-0.3943 z m 130.4808,5.09892 c -2.71792,0 -4.98983,0.62419 -6.81663,1.87224 -1.80453,1.23162 -2.70682,2.88199 -2.70682,4.95111 0,1.64216 0.70178,3.12798 2.1053,4.45813 0.7129,0.68971 1.70413,1.24839 2.97398,1.67535 1.29213,0.41054 2.76252,0.61547 4.4111,0.61547 4.74523,0 7.11791,-0.7306 7.11791,-2.19212 0,-0.31201 -0.14498,-0.68988 -0.4346,-1.13326 -0.51239,-0.73897 -1.12523,-1.10846 -1.83813,-1.10846 -0.35645,0 -0.80168,0.0907 -1.33635,0.2713 l -0.36794,0.0982 c -0.73517,0.19705 -1.74851,0.29558 -3.04064,0.29558 -0.73517,0 -1.47037,-0.15566 -2.20555,-0.46767 -0.73517,-0.31201 -1.10277,-0.69826 -1.10277,-1.15807 h 7.91993 c 0.82429,0 1.57028,-0.23794 2.23862,-0.71416 0.69062,-0.49265 1.03611,-1.24001 1.03611,-2.24173 0,-1.01814 -0.37891,-1.95417 -1.13636,-2.8081 -1.44808,-1.60931 -3.72051,-2.4138 -6.81716,-2.4138 z m -0.10025,3.89175 c 0.73518,0 1.29249,0.1153 1.67122,0.3452 0.401,0.2299 0.60151,0.53336 0.60151,0.91105 0,0.5255 -0.42364,0.78859 -1.27021,0.78859 h -4.21007 c 0,-0.49265 0.35628,-0.9528 1.06918,-1.37976 0.7129,-0.44339 1.42547,-0.66508 2.13837,-0.66508 z m -17.31656,-3.86695 c -4.83434,0 -7.25123,1.29714 -7.25123,3.89176 0,0.87034 0.21182,1.62556 0.6351,2.26601 0.42328,0.62402 0.95746,1.08417 1.60352,1.37976 1.38124,0.62402 2.774,1.00976 4.17752,1.15755 1.49263,0.14779 2.23863,0.37787 2.23863,0.68988 0,0.39412 -0.67916,0.59118 -2.03812,0.59118 -0.75746,0 -1.60422,-0.19706 -2.5399,-0.59118 -0.93568,-0.41054 -1.68167,-0.61598 -2.23862,-0.61598 -0.53468,0 -0.9249,0.13941 -1.16996,0.41858 -0.84656,0.87034 -1.26969,1.51917 -1.26969,1.94613 0,0.42696 0.21182,0.7388 0.63511,0.93586 1.98274,0.91961 4.04335,1.37976 6.18205,1.37976 2.16097,0 3.95424,-0.25471 5.38003,-0.76378 0.77973,-0.29559 1.38126,-0.73897 1.80454,-1.33015 0.44556,-0.6076 0.66818,-1.33819 0.66818,-2.19211 0,-0.85393 -0.22262,-1.5604 -0.66818,-2.11874 -0.42328,-0.57475 -0.95797,-0.97674 -1.60403,-1.20664 -1.38124,-0.50907 -2.80691,-0.82143 -4.27726,-0.93638 -1.51491,-0.14779 -2.27273,-0.46801 -2.27273,-0.96066 0,-0.36128 0.65756,-0.54157 1.97197,-0.54157 0.84657,0 1.62598,0.12316 2.33888,0.36949 0.73517,0.24632 1.23644,0.36948 1.50378,0.36948 0.5124,0 1.01367,-0.28772 1.50378,-0.86248 0.49012,-0.57475 0.73536,-1.05902 0.73536,-1.45314 0,-0.39412 -0.38971,-0.72272 -1.16944,-0.98547 -1.67085,-0.55833 -3.29754,-0.83716 -4.87929,-0.83716 z m -92.92531,0.2217 c -1.47035,0 -2.72892,0.58279 -3.77599,1.74873 0,-0.55834 -0.1892,-0.98547 -0.56793,-1.28106 -0.37872,-0.29559 -1.19207,-0.44339 -2.43964,-0.44339 -1.24757,0 -2.0383,0.2217 -2.37247,0.66508 -0.17822,0.2299 -0.28979,0.44373 -0.33434,0.64079 -0.0223,0.18063 -0.0336,0.45946 -0.0336,0.83715 v 8.67079 c 0,0.39412 0.0113,0.68133 0.0336,0.86197 0.0446,0.18063 0.14481,0.39446 0.30075,0.64078 0.3119,0.44339 1.16946,0.66508 2.57297,0.66508 1.40352,0 2.27239,-0.21383 2.60656,-0.64079 0.17823,-0.24632 0.27848,-0.45963 0.30076,-0.64027 0.0446,-0.19706 0.0672,-0.48427 0.0672,-0.86196 v -4.35994 c 0,-1.42868 0.66836,-2.14302 2.00504,-2.14302 1.38124,0 2.07171,0.71434 2.07171,2.14302 v 4.31033 c 0,0.3777 0.0113,0.66542 0.0336,0.86248 0.0446,0.18064 0.14481,0.39394 0.30076,0.64027 0.31189,0.4598 1.16945,0.68988 2.57297,0.68988 1.42579,0 2.29468,-0.22169 2.60657,-0.66508 0.17822,-0.24632 0.27845,-0.46015 0.30073,-0.64078 0.0446,-0.18064 0.0667,-0.46785 0.0667,-0.86197 v -4.31084 c 0,-0.68971 0.13367,-1.22324 0.40101,-1.60094 0.2896,-0.3777 0.82429,-0.56637 1.60402,-0.56637 1.38124,0 2.07171,0.71434 2.07171,2.14302 v 4.31033 c 0,0.3777 0.0113,0.66542 0.0336,0.86248 0.0446,0.18064 0.14481,0.39394 0.30076,0.64027 0.31189,0.4598 1.16946,0.68988 2.57298,0.68988 1.4258,0 2.28388,-0.22169 2.57349,-0.66508 0.17822,-0.24632 0.27848,-0.46015 0.30076,-0.64078 0.0446,-0.19706 0.0667,-0.48427 0.0667,-0.86197 v -4.31084 c 0,-2.33187 -0.60153,-3.9985 -1.80454,-5.00022 -1.20302,-1.01814 -2.69553,-1.52703 -4.47778,-1.52703 -0.80201,0 -1.58194,0.16404 -2.33939,0.49247 -0.75745,0.31201 -1.31424,0.6076 -1.67066,0.88677 -0.33418,0.26274 -0.62415,0.51745 -0.86921,0.76378 -1.1139,-1.42868 -2.80692,-2.14302 -5.07928,-2.14302 z m 20.33241,0.02428 c -1.18074,0 -1.92673,0.2217 -2.23862,0.66508 -0.15595,0.2299 -0.2562,0.43534 -0.30076,0.61598 -0.0223,0.18064 -0.0336,0.45998 -0.0336,0.83768 v 14.38516 c 0,0.3777 0.0113,0.65704 0.0336,0.83768 0.0446,0.18064 0.14481,0.38556 0.30076,0.61547 0.17822,0.2299 0.46767,0.39446 0.86868,0.49299 0.42328,0.0985 0.98008,0.14779 1.6707,0.14779 0.69062,0 1.23662,-0.0493 1.63762,-0.14779 0.40101,-0.0985 0.67967,-0.27096 0.83561,-0.51728 0.17823,-0.2299 0.27848,-0.43535 0.30076,-0.61598 0.0446,-0.18064 0.0667,-0.45998 0.0667,-0.83768 v -4.97541 c 0.82429,0.7554 2.1497,1.13275 3.9765,1.13275 1.8268,0 3.54244,-0.63206 5.14646,-1.89652 1.6263,-1.26447 2.43964,-2.73403 2.43964,-4.40904 0,-1.675 -0.81334,-3.14508 -2.43964,-4.40955 -1.6263,-1.26446 -3.35273,-1.89652 -5.17953,-1.89652 -1.80452,0 -3.13045,0.42713 -3.97702,1.28106 -0.0668,-0.42697 -0.31155,-0.74719 -0.73484,-0.96067 -0.401,-0.2299 -1.19224,-0.3452 -2.37298,-0.3452 z m 6.08232,4.23695 c 0.86884,0 1.57062,0.2217 2.10529,0.66508 0.53468,0.42696 0.80202,0.91123 0.80202,1.45314 0,0.54191 -0.28996,1.0267 -0.86919,1.45366 -0.55696,0.42696 -1.24742,0.64027 -2.07171,0.64027 -0.80201,0 -1.47037,-0.21331 -2.00505,-0.64027 -0.51239,-0.44338 -0.76843,-0.92817 -0.76843,-1.45366 0,-0.52549 0.25604,-1.00976 0.76843,-1.45314 0.5124,-0.44338 1.19207,-0.66508 2.03864,-0.66508 z m 53.86031,-4.21214 c -1.4258,0 -2.29467,0.21331 -2.60656,0.64027 -0.15595,0.24632 -0.2562,0.46802 -0.30076,0.66507 -0.0223,0.18064 -0.0336,0.45998 -0.0336,0.83768 v 8.64598 c 0,0.39412 0.0113,0.68133 0.0336,0.86197 0.0446,0.18063 0.14481,0.39446 0.30076,0.64078 0.31189,0.44339 1.16945,0.66508 2.57297,0.66508 1.42579,0 2.28335,-0.21383 2.57297,-0.64079 0.17822,-0.24632 0.27847,-0.45963 0.30075,-0.64027 0.0446,-0.19706 0.0672,-0.48427 0.0672,-0.86196 v -8.6217 c 0,-0.31201 -0.0113,-0.54995 -0.0336,-0.71417 -0.0223,-0.47622 -0.22278,-0.82946 -0.60151,-1.05936 -0.44556,-0.27917 -1.20287,-0.41858 -2.27221,-0.41858 z" /></g><path
         id="path960"
         style="opacity:1;fill:currentColor;stroke-width:0.947241;stroke-linecap:round;stroke-linejoin:round;paint-order:stroke fill markers"
         d="m 21.005194,140.81246 -0.673028,0.01 c -6.034235,0.14998 -9.630893,1.70335 -11.0423714,5.73723 -1.5405111,5.84868 4.3487104,8.42199 9.0487094,8.96082 2.530906,0.4199 6.595575,0.87681 7.241469,2.37618 2.333496,5.88086 3.519812,8.44158 5.853312,14.32245 1.23365,3.0448 5.119811,1.70657 5.690477,-0.91125 0.852658,-2.04202 1.705414,-4.08384 2.558002,-6.12578 -0.848678,-2.13879 -1.697256,-4.27779 -2.545975,-6.4167 l -0.4658,-1.17354 c -0.837761,2.0064 -1.675326,4.01288 -2.513129,6.01937 -0.500896,-1.26229 -1.002407,-2.52379 -1.50333,-3.78611 -0.388997,-1.05095 -8.5e-5,-7e-5 -1.37983,-3.82403 -2.089178,-5.33287 -6.665613,-5.0442 -11.068738,-5.89262 -2.931703,0.17061 -4.424262,-2.4133 -1.857666,-3.41744 5.150153,-1.05849 4.153749,1.46258 7.657782,1.38447 0.645552,-0.0145 1.705635,-0.19225 2.229558,-0.55878 1.405445,-0.98328 2.430784,-3.15379 2.430784,-3.15379 0,0 -2.995176,-3.35106 -8.987648,-3.54323 -0.371258,-0.0127 -0.672578,-0.008 -0.672578,-0.008 z m 14.189664,0.10535 c -0.371779,-0.01 -0.746976,0.0536 -1.099976,0.20169 -2.173601,0.78527 -1.979074,3.22857 -1.127275,4.89257 l 4.938817,12.44302 c 1.806624,4.55303 3.612806,9.10748 5.419429,13.66048 1.233665,3.04485 5.118419,1.70702 5.689085,-0.91078 3.667571,-8.78343 7.33594,-17.5671 11.003511,-26.35052 1.583794,-3.32833 -4.184119,-5.75328 -5.338926,-2.02328 -2.87765,6.89181 -5.75568,13.78305 -8.633326,20.67486 -1.711477,-4.31299 -3.421167,-8.62453 -5.132626,-12.93751 -1.03835,-2.6167 -2.077502,-5.23398 -3.115839,-7.85067 -0.398463,-1.07332 -1.487523,-1.76895 -2.602874,-1.79986 z m 9.933145,0.14025 c -1.000975,0.0409 -1.94131,0.59722 -2.338268,1.87941 -0.68618,1.64336 -1.37229,3.28629 -2.05841,4.92954 0.317801,0.80088 0.63548,1.60203 0.953342,2.40305 0.685997,1.72876 1.371896,3.45743 2.05795,5.18629 1.460966,-3.49905 2.922142,-6.99822 4.383277,-10.49746 1.039359,-2.18421 -1.086936,-3.97913 -2.997891,-3.90083 z m -31.606194,17.30227 c -2.287305,-0.0401 -3.365755,0.73779 -4.1131244,2.1033 -0.149555,0.27326 -0.369036,0.74336 -0.369134,1.05234 -5.49e-4,1.84873 3.6653714,4.05797 5.5332124,4.4744 4.519718,1.00758 5.044668,1.65514 10.909152,0.49355 0.832876,-0.27095 1.59804,-0.55629 2.297556,-0.86592 -0.762928,-1.83181 -1.547574,-3.72567 -2.550121,-6.25111 -0.07877,0.34515 -0.348906,0.74109 -0.876571,1.20127 -0.750098,0.65421 -2.714084,1.32181 -5.148342,0.48016 -0.425401,-0.14708 -1.089858,-0.45668 -1.466799,-0.70172 -0.824272,-0.53584 -1.495584,-1.20924 -2.651432,-1.71474 -0.286043,-0.12519 -0.778246,-0.23343 -1.09027,-0.25255 -0.163481,-0.01 -0.321632,-0.0163 -0.474127,-0.019 z" /></g><g
       id="g966"
       transform="translate(897.05433,59.972284)"
       style="fill:none"><path
         id="path964"
         style="font-size:28.6905px;font-family:'Fredoka One';-inkscape-font-specification:'Fredoka One';letter-spacing:0px;opacity:1;fill:none;stroke-width:2.43575;stroke-dasharray:none"
         d="m -875.1371,97.724771 c -0.62122,0 -1.20906,0.196614 -1.76372,0.589112 -0.95401,0.686868 -1.43143,1.242394 -1.43143,1.667598 0,0.408849 0.28873,0.875039 0.86558,1.398369 l 0.29972,0.26975 c 0.46591,0.49063 1.28651,0.99802 2.46238,1.52135 0.57685,0.27801 1.33108,0.51482 2.26291,0.71107 0.93183,0.17989 1.91985,0.26975 2.96261,0.26975 1.73735,0 3.38321,-0.32335 4.94337,-0.9524 -0.75256,-1.41911 -1.31465,-2.94519 -2.07429,-4.364072 -0.28794,0.860602 -1.28581,1.293462 -3.0024,1.293462 -0.4881,0 -1.02099,-0.12263 -1.59784,-0.367937 -0.57685,-0.261665 -1.02057,-0.531234 -1.33118,-0.809253 -1.10932,-0.8177 -1.97449,-1.226799 -2.59571,-1.226799 z" /><path
         id="path965"
         style="font-size:28.6905px;font-family:'Fredoka One';-inkscape-font-specification:'Fredoka One';letter-spacing:0px;opacity:1;fill:none;stroke-width:2.43575;stroke-dasharray:none"
         d="m -869.77877,85.630936 c -2.50707,0 -4.49296,0.539658 -5.95726,1.619023 -1.44211,1.063013 -2.16317,2.314104 -2.16317,3.753259 0,1.046657 0.27733,1.946258 0.83199,2.698543 0.57684,0.73593 1.28649,1.275588 2.12958,1.619023 0.84308,0.343433 1.75282,0.645773 2.72903,0.907438 0.9762,0.245311 1.88646,0.425541 2.72955,0.540019 0.84309,0.114479 1.54187,0.302124 2.09652,0.56379 0,0 0.56743,0.277393 0.79943,0.543636 0.23199,0.266242 0.51211,0.804085 0.51211,0.804085 l 0.72192,1.549258 0.77928,1.69395 0.27079,0.5886 0.12351,0.26923 0.0703,0.14935 0.01,0.016 0.0393,0.0553 c 0.17144,0.24275 0.4645,0.49199 0.894,0.74828 0.49935,0.26769 1.07812,0.40204 1.73633,0.40204 0.04,0 0.0784,-0.002 0.11782,-0.003 0.0225,2.5e-4 0.0423,0.003 0.0651,0.003 0.72631,0 1.35073,-0.19242 1.87276,-0.57723 0.0347,-0.0256 0.0653,-0.0545 0.0987,-0.0811 0.25261,-0.16624 0.42462,-0.30817 0.50126,-0.42116 0.0849,-0.12511 0.14385,-0.23114 0.19069,-0.32815 0.0205,-0.0331 0.0488,-0.0711 0.061,-0.0982 0.007,-0.0147 0.50269,-1.09589 0.56224,-1.22577 l 0.75396,-1.6061 c -1.03153,-2.205446 -2.06564,-4.409885 -3.10523,-6.612 l -1.06661,2.401404 -5.1e-4,-0.001 -0.0326,-0.03876 c -0.0179,-0.02344 -0.0337,-0.04823 -0.0522,-0.07131 -0.12361,-0.163998 -0.25533,-0.315266 -0.39326,-0.457337 l -0.0165,-0.01964 -5.1e-4,5.17e-4 c -0.47716,-0.486001 -1.03867,-0.842747 -1.68569,-1.068669 -0.84309,-0.294369 -1.76371,-0.540139 -2.7621,-0.736389 -0.99839,-0.212602 -1.91904,-0.367997 -2.76211,-0.466121 -0.84308,-0.09812 -1.55377,-0.28577 -2.13062,-0.56379 -0.55466,-0.278019 -0.83199,-0.637961 -0.83199,-1.079521 0,-0.457911 0.23326,-0.809405 0.69918,-1.054716 0.4881,-0.261665 1.08682,-0.392741 1.79679,-0.392741 0.73216,0 1.33191,0.106242 1.79783,0.318844 0.15531,0.08177 0.32118,0.188528 0.49867,0.31936 0.19968,0.130833 0.3329,0.212239 0.39946,0.244947 0.68778,0.327078 1.26524,0.490926 1.73116,0.490926 0.79871,0 1.5742,-0.409099 2.32854,-1.226799 0.24155,-0.259652 0.42092,-0.490511 0.55294,-0.699699 -0.26076,-0.529261 -0.50398,-1.079577 -0.48782,-1.626257 -0.0946,-0.0741 -0.18389,-0.147217 -0.29714,-0.225309 l -0.83199,-0.466122 c -0.42154,-0.261663 -1.18719,-0.514849 -2.2965,-0.76016 -1.08714,-0.261665 -2.29598,-0.392741 -3.62717,-0.392741 z m 14.31127,0 c -0.35934,0 -0.67412,0.05989 -0.94826,0.175183 0.13302,0.136241 0.24961,0.293413 0.34365,0.473356 0.91164,1.855581 1.73388,3.756652 2.56935,5.651335 l 1.50843,-3.213241 c 0.27236,-0.602299 0.40825,-1.0124 0.40825,-1.229899 0,-0.498899 -0.42396,-0.922762 -1.26918,-1.27279 -0.004,-0.0023 -0.008,-0.0044 -0.0119,-0.0067 -0.41993,-0.239198 -0.87285,-0.376452 -1.35702,-0.414445 -0.4644,-0.106972 -0.88043,-0.162781 -1.24334,-0.162781 z" /><path
         id="path966"
         style="font-size:28.6905px;font-family:'Fredoka One';-inkscape-font-specification:'Fredoka One';letter-spacing:0px;opacity:1;fill:none;stroke-width:2.43575;stroke-dasharray:none"
         d="m -846.53016,85.630936 c -0.45394,0 -0.83997,0.09185 -1.15774,0.27588 -0.29505,0.167306 -0.49935,0.342978 -0.61283,0.527015 -0.1135,0.184038 -0.26069,0.468637 -0.44226,0.853439 l -3.69384,8.316422 -3.71544,-8.316422 c -0.22697,-0.552109 -0.48782,-0.962188 -0.78289,-1.229878 -0.27237,-0.26769 -0.68093,-0.401185 -1.22567,-0.401185 -0.52203,0 -1.11236,0.0833 -1.77057,0.250609 -1.52072,0.384805 -2.28128,0.911823 -2.28128,1.581046 0,0.267691 0.12518,0.677768 0.37485,1.22988 l 5.06325,10.73248 1.59684,3.471118 c 0.1589,0.2677 0.47631,0.54376 0.95294,0.82817 0.49935,0.26769 1.07816,0.40224 1.73637,0.40224 0.04,0 0.0786,-0.002 0.11794,-0.003 0.0225,2.5e-4 0.0425,0.003 0.0653,0.003 0.72631,0 1.35068,-0.19222 1.87272,-0.57703 0.0347,-0.0256 0.065,-0.0545 0.0984,-0.0811 0.25261,-0.16624 0.42458,-0.30821 0.50122,-0.4212 0.0849,-0.12511 0.14428,-0.23152 0.19112,-0.32853 0.0205,-0.0331 0.0478,-0.0708 0.06,-0.0979 0.007,-0.0147 0.50326,-1.09578 0.56281,-1.22566 l 5.96144,-12.702588 c 0.27237,-0.602304 0.40855,-1.012381 0.40855,-1.22988 0,-0.498904 -0.42361,-0.923017 -1.26883,-1.27305 -0.004,-0.0023 -0.008,-0.0045 -0.0121,-0.0068 -0.41993,-0.239198 -0.87259,-0.376354 -1.35676,-0.414347 -0.4644,-0.106972 -0.88066,-0.162685 -1.24357,-0.162685 z" /></g></g></svg>
