<?xml version="1.0" encoding="UTF-8" standalone="no"?>
<!-- Created with Inkscape (http://www.inkscape.org/) -->

<svg
   width="auto"
   height="auto"
   viewBox="0 0 211.66666 52.916667"
   version="1.1"
   id="svg1"
   xml:space="preserve"
   xmlns="http://www.w3.org/2000/svg"
   xmlns:svg="http://www.w3.org/2000/svg"><defs
     id="defs1" /><g
     id="layer1"
     transform="translate(-4.8732573,-131.21575)"><g
       id="g97"
       transform="translate(1.8475263,66.786575)"><text
         xml:space="preserve"
         style="font-style:normal;font-variant:normal;font-weight:normal;font-stretch:normal;font-size:28.6905px;font-family:'Fredoka One';-inkscape-font-specification:'Fredoka One';letter-spacing:0px;fill:currentColor;fill-opacity:1;stroke-width:2.39085"
         x="44.002056"
         y="116.26108"
         id="text8"
         transform="scale(1.1647451,0.85855694)"><tspan
           id="tspan8"
           style="font-style:normal;font-variant:normal;font-weight:normal;font-stretch:normal;font-family:'Fredoka One';-inkscape-font-specification:'Fredoka One';letter-spacing:0px;fill:currentColor;fill-opacity:1;stroke-width:2.39085"
           x="44.002056"
           y="116.26108">SmplWise</tspan></text><g
         id="g96"><g
           id="g68"
           transform="matrix(0.77460115,-0.19334949,0.18765054,0.75176988,-328.8438,117.95533)"
           style="stroke:currentColor"><path
             d="m 426.03411,66.400069 c -2.14155,0.567238 0.66034,3.123266 1.00192,4.298725 4.5947,7.904538 8.77845,15.375962 14.93096,22.305335 0.78052,1.17496 2.03484,0.176255 2.44056,-0.820446 l 3.82938,-5.761065 c 1.46507,2.248769 2.86289,4.546678 4.37028,6.764523 1.33768,1.174527 2.13728,-0.716392 2.75383,-1.630827 5.35988,-8.161833 10.83441,-16.249757 16.15044,-24.439494 -0.57871,-1.531924 -2.1199,-0.22609 -2.49986,0.769704 -5.18954,7.809153 -10.35679,15.63307 -15.55641,23.435537 -1.3819,-2.182125 -2.84299,-4.312308 -4.2261,-6.493661 3.94867,-5.886815 7.9377,-11.750485 11.72642,-17.741036 -0.62101,-1.4121 -2.02893,-0.261771 -2.4009,0.692637 -3.42757,5.182703 -6.90104,10.334717 -10.35751,15.498115 l -10.69446,-16.38092 c -1.49952,-1.452743 -2.38913,0.724917 -0.92287,1.703891 3.48944,5.4252 7.04151,10.810231 10.5657,16.212844 -1.41524,2.15973 -2.83049,4.319461 -4.24573,6.479191 -2.58121,-3.946873 -5.44545,-7.469192 -8.02666,-11.416065 -2.74974,-4.204567 -5.21644,-8.833689 -7.96617,-13.038256 -0.25569,-0.206994 -0.55084,-0.364731 -0.87282,-0.438732 z"
             style="font-size:34.8881px;font-family:'Bernardo Moda Bold';-inkscape-font-specification:'Bernardo Moda Bold, ';letter-spacing:0px;fill:currentColor;stroke:currentColor;stroke-width:1.32292;stroke-linejoin:round"
             id="path68" /></g><path
           d="m 31.731341,84.830171 c -0.737189,0.184011 -1.493363,0.390149 -2.267948,0.617981 -0.765453,0.225697 -1.507242,0.467533 -2.225894,0.725725 -0.71871,0.258122 -1.390638,0.529812 -2.015562,0.81495 -0.625695,0.282132 -1.16284,0.570466 -1.611369,0.865101 -0.448522,0.294668 -0.789884,0.5925 -1.024128,0.893508 -0.22513,0.298732 -0.300953,0.594965 -0.227687,0.888487 0.06291,0.252041 0.227951,0.448543 0.495072,0.589751 0.266538,0.138206 0.604978,0.234862 1.01512,0.289991 0.418502,0.04983 0.895599,0.06302 1.431164,0.03957 0.544655,-0.02574 1.117532,-0.07408 1.718479,-0.145348 0.609337,-0.07654 1.233892,-0.169448 1.873708,-0.278708 0.648162,-0.114542 1.2899,-0.235469 1.925243,-0.362567 L 32.4167,89.435575 c 0.569455,-0.120107 1.162335,-0.242886 1.778743,-0.368425 0.616454,-0.125531 1.221927,-0.237065 1.816175,-0.335176 0.593588,-0.10092 1.163076,-0.181603 1.708671,-0.242204 0.545609,-0.06063 1.028131,-0.08352 1.447616,-0.06854 0.427816,0.0097 0.775745,0.0663 1.043234,0.169619 0.27585,0.0981 0.440672,0.255359 0.494703,0.471815 0.05181,0.207548 -0.0059,0.421894 -0.172958,0.643144 -0.167869,0.218283 -0.417538,0.438223 -0.749014,0.659541 -0.322408,0.219023 -0.713117,0.436285 -1.171767,0.651578 -0.449586,0.212982 -0.939495,0.418762 -1.47,0.617322 -0.521434,0.196274 -1.069791,0.381879 -1.644879,0.556915 -0.565974,0.172761 -1.121706,0.327237 -1.66777,0.463541 -0.646154,0.161287 -1.301496,0.305801 -1.965642,0.433805 -0.663409,0.130963 -1.313262,0.238136 -1.949907,0.321492 -0.636606,0.08333 -1.250985,0.140504 -1.842605,0.171641 -0.591632,0.03118 -1.142901,0.03025 -1.65387,-0.0028 l 0.01371,-0.0034 c -0.07864,-0.0056 -0.165765,-0.0059 -0.261217,-9.25e-4 -0.09613,0.0019 -0.226179,0.02331 -0.389995,0.0642 -0.172894,0.04316 -0.318238,0.1 -0.436059,0.170161 -0.109525,0.06512 -0.156687,0.127265 -0.141848,0.186711 0.01036,0.0415 0.07594,0.07235 0.19717,0.09248 0.121025,0.02018 0.254755,0.03403 0.401645,0.04144 0.146985,0.0074 0.287908,0.01001 0.422721,0.0078 0.135553,7.95e-4 0.222633,0.0013 0.261252,0.0011 l -0.01487,-0.0012 c 1.158,-0.0087 2.356591,-0.106273 3.595888,-0.292765 1.240008,-0.18357 2.537814,-0.444509 3.893892,-0.783002 0.664344,-0.165828 1.333133,-0.353328 2.006135,-0.56207 0.67296,-0.208907 1.318192,-0.431455 1.936011,-0.667551 0.617824,-0.236084 1.189624,-0.482606 1.71516,-0.739786 0.534681,-0.259412 0.986626,-0.521921 1.355456,-0.787217 0.378681,-0.264623 0.660635,-0.528668 0.84619,-0.792316 0.184829,-0.266632 0.245645,-0.525957 0.182741,-0.777967 -0.06735,-0.269825 -0.257556,-0.471216 -0.571126,-0.603961 -0.313499,-0.132797 -0.715116,-0.212178 -1.204934,-0.237956 -0.481469,-0.03096 -1.033803,-0.01588 -1.656685,0.04511 -0.623613,0.05789 -1.279003,0.142892 -1.966525,0.25466 -0.679245,0.106397 -1.373463,0.23097 -2.082369,0.373286 -0.700551,0.137081 -1.381216,0.275496 -2.042425,0.415351 l -0.468701,0.09828 0.01371,-0.0034 c -0.238558,0.0513 -0.482271,0.101478 -0.730243,0.153769 -0.239756,0.04659 -0.470147,0.09215 -0.691497,0.134986 -0.498113,0.09599 -1.011715,0.188067 -1.540833,0.276059 -0.520022,0.08572 -1.033693,0.158757 -1.540684,0.219183 -0.497876,0.05815 -0.971229,0.09759 -1.420441,0.118351 -0.4492,0.02082 -0.847679,0.01325 -1.195085,-0.02288 -0.347374,-0.03609 -0.635091,-0.104478 -0.863222,-0.205038 -0.218906,-0.102797 -0.352255,-0.249189 -0.399619,-0.438937 -0.05847,-0.234256 0.01228,-0.473856 0.212173,-0.719039 0.199851,-0.24516 0.491716,-0.489687 0.875596,-0.733565 0.383136,-0.246776 0.8399,-0.48848 1.370618,-0.724895 0.529985,-0.239515 1.096629,-0.467495 1.69995,-0.684251 0.612448,-0.218992 1.238255,-0.423928 1.877031,-0.614862 0.638776,-0.190933 1.262804,-0.362457 1.872559,-0.514659 0.782704,-0.195372 1.608356,-0.374615 2.476387,-0.537917 0.86733,-0.166105 1.7184,-0.299834 2.553559,-0.401191 0.835188,-0.101248 1.62651,-0.165 2.374117,-0.190974 0.756732,-0.0283 1.415661,-0.0038 1.976375,0.07362 0.06043,0.01011 0.124836,0.01624 0.192978,0.01811 0.06814,0.0019 0.182315,-0.0046 0.342994,-0.0195 0.209335,-0.05225 0.381812,-0.117351 0.517084,-0.195188 0.14356,-0.08308 0.208082,-0.152875 0.194026,-0.209185 l -0.02591,-0.04541 c -0.151832,-0.06601 -0.350227,-0.106245 -0.595533,-0.120599 -0.236909,-0.01959 -0.481898,-0.03251 -0.734803,-0.0386 l 0.01371,-0.0034 -0.117013,-0.0041 c -0.643583,-0.02203 -1.326697,-0.009 -2.049451,0.03915 -0.714372,0.04292 -1.454651,0.117446 -2.22094,0.223671 -0.766982,0.103283 -1.546802,0.233467 -2.339106,0.39022 -0.792304,0.156839 -1.584191,0.333952 -2.375972,0.53159 z"
           style="font-size:34.8881px;font-family:'Bernardo Moda Bold';-inkscape-font-specification:'Bernardo Moda Bold, ';letter-spacing:0px;fill:currentColor;stroke:currentColor;stroke-width:0.926042;stroke-linejoin:round;stroke-dasharray:none"
           id="path69" /></g></g></g></svg>
