<?xml version="1.0" encoding="UTF-8" standalone="no"?>
<!-- Created with Inkscape (http://www.inkscape.org/) -->

<svg
   width="auto"
   height="auto"
   viewBox="0 0 52.916665 52.916667"
   version="1.1"
   id="svg1"
   xml:space="preserve"
   xmlns="http://www.w3.org/2000/svg"
   xmlns:svg="http://www.w3.org/2000/svg"><defs
     id="defs1" /><g
     id="layer1"
     transform="translate(-4.8732573,-131.21575)"><path
       id="path574-7"
       style="fill:currentColor;fill-opacity:1;stroke-width:0.892435;stroke-linecap:round;stroke-linejoin:round;paint-order:stroke fill markers"
       d="m 31.793935,142.59626 c -0.338367,-0.008 -0.679286,0.0521 -0.999969,0.18864 -1.975098,0.72563 -1.789296,2.9574 -1.007932,4.47479 l 4.540867,11.35234 c 1.661033,4.15384 3.321899,8.30875 4.982922,12.46261 1.134011,2.7778 4.664058,1.54108 5.17362,-0.8532 3.304816,-8.03992 6.610505,-16.08023 9.915317,-24.12015 1.42888,-3.04732 -3.829361,-5.24166 -4.866355,-1.8289 -2.592996,6.30846 -5.1861,12.61637 -7.779138,18.92481 -1.57354,-3.93487 -3.145767,-7.86857 -4.719307,-11.80344 -0.954678,-2.38727 -1.909694,-4.77482 -2.864371,-7.16211 -0.366599,-0.97931 -1.360567,-1.6113 -2.375661,-1.63539 z m -12.913219,-0.0436 -0.612432,0.0126 c -5.490725,0.15944 -8.7579454,1.59206 -10.0273864,5.28343 -1.3800986,5.35026 3.9888054,7.68008 8.2679084,8.15503 2.304737,0.37432 6.00536,0.77662 6.598732,2.14433 2.145435,5.36527 3.234561,7.70101 5.380008,13.06628 1.13401,2.77778 4.665492,1.54009 5.175058,-0.8542 0.768335,-1.86914 1.536709,-3.73812 2.305013,-5.60719 -0.780281,-1.95127 -1.560469,-3.90247 -2.340792,-5.85386 l -0.428267,-1.07084 c -0.754906,1.83655 -1.509615,3.67315 -2.264558,5.5098 -0.460523,-1.15164 -0.921632,-2.30252 -1.382176,-3.45415 -0.357906,-0.95892 -7.6e-5,7e-5 -1.269931,-3.48914 -1.921059,-4.86544 -6.084634,-4.58468 -10.094725,-5.34362 -2.66728,0.16679 -4.035164,-2.18898 -1.703255,-3.11608 4.682808,-0.98639 3.785437,1.32132 6.973886,1.23692 0.587409,-0.0156 1.551442,-0.18198 2.026866,-0.51888 1.275313,-0.90372 2.2003,-2.89122 2.2003,-2.89122 0,0 -2.738154,-3.05074 -8.19213,-3.20414 -0.337905,-0.01 -0.612081,-0.005 -0.612081,-0.005 z m 21.953131,0.13524 c -0.910752,0.0412 -1.764399,0.55255 -2.120865,1.7257 -0.618311,1.50426 -1.236562,3.00837 -1.85485,4.51258 0.292217,0.73064 0.584281,1.4613 0.876519,2.19212 0.630721,1.57718 1.261355,3.15444 1.892118,4.73174 1.316475,-3.20285 2.633066,-6.40572 3.949722,-9.60874 0.937697,-1.99979 -1.003966,-3.63206 -2.742676,-3.55342 z m -4.799731,8.24286 c -0.670522,1.63123 -1.341067,3.26253 -2.011574,4.89373 l 1.004953,2.51363 c 0.587889,1.47013 1.175781,2.94019 1.763673,4.41025 0.670591,-1.6314 1.341405,-3.26282 2.011977,-4.89418 -0.823178,-2.0584 -1.646551,-4.11666 -2.46965,-6.17496 -0.09977,-0.2495 -0.199625,-0.499 -0.299403,-0.74848 z m -23.897804,7.6851 c -2.081651,-0.0282 -3.0604544,0.68687 -3.7354884,1.93744 -0.135075,0.25025 -0.3328876,0.68058 -0.3318256,0.96291 0.0064,1.68939 3.350899,3.69462 5.052215,4.06822 4.116804,0.90395 4.596583,1.49375 9.929038,0.41052 0.756932,-0.2507 1.452309,-0.51438 2.087729,-0.79992 -0.701111,-1.67105 -1.422167,-3.39904 -2.343927,-5.70306 -0.07038,0.3157 -0.314869,0.67883 -0.793344,1.10131 -0.680178,0.60061 -2.46489,1.21776 -4.683261,0.4577 -0.387674,-0.13281 -0.993512,-0.41262 -1.337282,-0.63549 -0.752102,-0.48661 -1.365521,-1.0996 -2.41925,-1.55723 -0.260925,-0.11292 -0.709339,-0.21029 -0.993375,-0.22655 -0.148838,-0.008 -0.292471,-0.014 -0.431274,-0.0157 z" /></g></svg>
